<svg width="442" height="182" viewBox="0 0 442 182" fill="none" xmlns="http://www.w3.org/2000/svg">
<g clip-path="url(#clip0_203_815)">
<path d="M36.52 0.719971V35.73H28.01V12.79L21.08 22.01H15.44L8.51 12.79V35.73H0V0.719971H8.79L18.22 13.51L27.73 0.719971H36.52Z" fill="#738664"/>
<path d="M62.24 7.86C59.53 7.86 57.21 8.86 55.31 10.86C53.45 12.86 52.52 15.29 52.52 18.15C52.52 21.01 53.45 23.46 55.31 25.51C57.17 27.51 59.48 28.51 62.24 28.51C65 28.51 67.31 27.51 69.17 25.51C71.02 23.46 71.96 21.01 71.96 18.15C71.96 15.29 71.03 12.86 69.17 10.86C67.31 8.86 65 7.86 62.24 7.86ZM80.61 18.15C80.61 23.25 78.82 27.58 75.24 31.15C71.71 34.67 67.39 36.44 62.28 36.44C57.17 36.44 52.95 34.68 49.32 31.15C45.79 27.53 44.02 23.19 44.02 18.15C44.02 13.11 45.78 8.81 49.32 5.28C52.95 1.76 57.27 0 62.28 0C67.29 0 71.7 1.76 75.24 5.29C78.82 8.82 80.61 13.1 80.61 18.16" fill="#738664"/>
<path d="M114.34 25.87V33.87C111.38 35.58 107.91 36.44 103.91 36.44C98.67 36.44 94.29 34.68 90.76 31.15C87.28 27.67 85.54 23.36 85.54 18.22C85.54 13.08 87.3 8.81 90.83 5.29C94.35 1.76 98.74 0 103.98 0C105.74 0 107.43 0.21 109.05 0.64C110.67 1.07 111.86 1.5 112.62 1.93L113.76 2.57V10.5C110.95 8.79 107.85 7.93 104.47 7.93C101.47 7.93 99.01 8.93 97.11 10.93C95.16 12.98 94.18 15.41 94.18 18.22C94.18 21.03 95.16 23.48 97.11 25.58C99.02 27.58 101.49 28.58 104.54 28.58C106.02 28.58 107.58 28.35 109.22 27.9C110.86 27.45 112.14 27.01 113.04 26.58L114.33 25.87H114.34Z" fill="#738664"/>
<path d="M130.85 0.719971V13.86L141.57 0.719971H152.64L138.35 17.15L153.86 35.73H142.78L130.85 21.08V35.73H122.2V0.719971H130.85Z" fill="#738664"/>
<path d="M173.51 7.86C170.8 7.86 168.48 8.86 166.58 10.86C164.72 12.86 163.79 15.29 163.79 18.15C163.79 21.01 164.72 23.46 166.58 25.51C168.44 27.51 170.75 28.51 173.51 28.51C176.27 28.51 178.59 27.51 180.44 25.51C182.3 23.46 183.23 21.01 183.23 18.15C183.23 15.29 182.3 12.86 180.44 10.86C178.58 8.86 176.27 7.86 173.51 7.86ZM191.88 18.15C191.88 23.25 190.09 27.58 186.51 31.15C182.98 34.67 178.66 36.44 173.55 36.44C168.44 36.44 164.22 34.68 160.59 31.15C157.05 27.53 155.29 23.19 155.29 18.15C155.29 13.11 157.05 8.81 160.59 5.28C164.21 1.76 168.53 0 173.55 0C178.57 0 182.97 1.76 186.51 5.29C190.09 8.82 191.88 13.1 191.88 18.16" fill="#738664"/>
<path d="M220.75 24.87C220.75 22.73 218.91 21.65 215.25 21.65H207.75V27.87H215.97C217.45 27.87 218.61 27.6 219.47 27.05C220.33 26.51 220.76 25.78 220.76 24.87M207.75 14.22H214.97C216.45 14.22 217.6 13.95 218.44 13.4C219.27 12.85 219.69 12.15 219.69 11.29C219.69 10.39 219.31 9.67997 218.55 9.17997C217.79 8.67997 216.76 8.42997 215.48 8.42997H207.76V14.22H207.75ZM228.33 10.79C228.33 11.98 228.08 13.1 227.57 14.15C227.06 15.2 226.55 15.96 226.02 16.44L225.23 17.16C225.56 17.35 225.96 17.64 226.43 18.02C226.9 18.4 227.54 19.28 228.34 20.67C229.14 22.05 229.54 23.6 229.54 25.31C229.54 28.41 228.35 30.93 225.97 32.89C223.63 34.79 220.61 35.75 216.89 35.75H199.31V0.719971H214.86C219.06 0.719971 222.36 1.57997 224.75 3.28997C227.14 4.99997 228.33 7.50997 228.33 10.79Z" fill="#738664"/>
<path d="M263.69 25.87V33.87C260.74 35.58 257.26 36.44 253.26 36.44C248.02 36.44 243.64 34.68 240.11 31.15C236.63 27.67 234.89 23.36 234.89 18.22C234.89 13.08 236.65 8.81 240.18 5.29C243.71 1.76 248.09 0 253.33 0C255.09 0 256.78 0.21 258.41 0.64C260.03 1.07 261.22 1.5 261.98 1.93L263.12 2.57V10.5C260.31 8.79 257.21 7.93 253.83 7.93C250.83 7.93 248.38 8.93 246.47 10.93C244.52 12.98 243.54 15.41 243.54 18.22C243.54 21.03 244.52 23.48 246.47 25.58C248.37 27.58 250.85 28.58 253.9 28.58C255.37 28.58 256.94 28.35 258.58 27.9C260.22 27.45 261.5 27.01 262.41 26.58L263.69 25.87Z" fill="#738664"/>
<path d="M280.2 0.719971V13.86L290.92 0.719971H302L287.71 17.15L303.21 35.73H292.14L280.2 21.08V35.73H271.56V0.719971H280.2Z" fill="#738664"/>
<path d="M308.93 35.73V0.719971H317.58V22.23L318.72 19.51L330.94 0.719971H340.01V35.73H331.37V14.15L330.22 16.94L317.94 35.73H308.93Z" fill="#738664"/>
<path d="M365.39 7.43C363.1 7.43 361.14 8.18 359.49 9.68C357.85 11.18 356.74 13.1 356.17 15.43H373.39C373.39 13.1 372.56 11.17 370.89 9.65C369.27 8.17 367.44 7.43 365.39 7.43ZM380.75 21.65H356.38C357.1 23.77 358.32 25.48 360.06 26.78C361.8 28.08 363.88 28.73 366.31 28.73C368.07 28.73 369.85 28.49 371.63 28.02C373.42 27.54 374.76 27.07 375.67 26.59L377.03 25.88V34C374.12 35.63 370.53 36.45 366.24 36.45C360.66 36.45 356.14 34.67 352.66 31.09C349.18 27.57 347.44 23.3 347.44 18.3C347.44 13.3 349.16 8.82 352.59 5.29C356.02 1.76 360.17 0 365.02 0C369.87 0 373.55 1.52 376.6 4.57C379.75 7.57 381.32 11.38 381.32 16.01C381.32 16.82 381.27 17.7 381.18 18.65C381.09 19.61 380.99 20.34 380.9 20.87L380.76 21.65H380.75Z" fill="#738664"/>
<path d="M40.88 64.1V99.12H0V64.1H8.65V91.4H16.15V64.1H24.58V91.4H32.23V64.1H40.88Z" fill="#738664"/>
<path d="M59.4601 64.1V77.26L70.1801 64.1H81.2501L66.9601 80.54L82.4701 99.12H71.3901L59.4601 84.47V99.12H50.8101V64.1H59.4601Z" fill="#738664"/>
<path d="M102.12 71.25C99.4099 71.25 97.0899 72.25 95.1899 74.25C93.3299 76.25 92.3999 78.68 92.3999 81.54C92.3999 84.4 93.3299 86.85 95.1899 88.9C97.0499 90.9 99.3599 91.9 102.12 91.9C104.88 91.9 107.19 90.9 109.05 88.9C110.91 86.85 111.84 84.4 111.84 81.54C111.84 78.68 110.91 76.25 109.05 74.25C107.19 72.25 104.88 71.25 102.12 71.25ZM120.49 81.54C120.49 86.64 118.7 90.97 115.12 94.55C111.59 98.07 107.27 99.84 102.16 99.84C97.0499 99.84 92.8299 98.07 89.1999 94.55C85.6699 90.93 83.8999 86.6 83.8999 81.54C83.8999 76.48 85.6699 72.2 89.1999 68.68C92.8299 65.16 97.1499 63.39 102.16 63.39C107.17 63.39 111.59 65.16 115.12 68.68C118.7 72.21 120.49 76.5 120.49 81.54Z" fill="#738664"/>
<path d="M129.85 89.62L132.35 64.11H157.15V99.12H148.64V71.82H139.78L137.78 91.98L130.85 101.41L124.35 97.12L129.85 89.62Z" fill="#738664"/>
<path d="M199.31 64.1H207.96V99.11H199.31V64.1ZM175.66 84.11V91.4H182.31C183.55 91.4 184.58 91.04 185.42 90.32C186.25 89.6 186.67 88.71 186.67 87.65C186.67 86.74 186.24 85.92 185.39 85.2C184.53 84.48 183.51 84.12 182.32 84.12H175.67L175.66 84.11ZM167.16 99.11V64.1H175.66V76.39H182.19C185.92 76.39 189.05 77.44 191.58 79.54C194.07 81.6 195.31 84.27 195.31 87.57C195.31 89.25 195 90.79 194.38 92.19C193.76 93.6 192.88 94.82 191.73 95.85C190.58 96.88 189.21 97.68 187.61 98.25C186.01 98.82 184.23 99.11 182.27 99.11H167.15H167.16Z" fill="#738664"/>
<path d="M0 162.51V127.49H8.65V149L9.79 146.29L22.01 127.49H31.09V162.51H22.44V140.93L21.3 143.71L9.01 162.51H0Z" fill="#738664"/>
<path d="M67.32 152.65V160.66C64.37 162.37 60.89 163.23 56.89 163.23C51.65 163.23 47.27 161.47 43.74 157.94C40.26 154.46 38.53 150.15 38.53 145.01C38.53 139.87 40.29 135.61 43.82 132.08C47.35 128.56 51.73 126.79 56.97 126.79C58.73 126.79 60.43 127 62.05 127.43C63.67 127.86 64.86 128.29 65.62 128.72L66.76 129.37V137.3C63.95 135.59 60.85 134.73 57.47 134.73C54.47 134.73 52.01 135.73 50.11 137.74C48.15 139.79 47.18 142.22 47.18 145.03C47.18 147.84 48.16 150.3 50.11 152.39C52.01 154.39 54.49 155.39 57.54 155.39C59.01 155.39 60.58 155.16 62.22 154.71C63.86 154.26 65.14 153.82 66.05 153.39L67.34 152.68L67.32 152.65Z" fill="#738664"/>
<path d="M83.8199 127.49V140.64L94.5499 127.49H105.62L91.3299 143.93L106.84 162.51H95.7599L83.8199 147.86V162.51H75.1799V127.49H83.8199Z" fill="#738664"/>
<path d="M135.99 127.49H145.28L131.21 169.87L122.92 181.23L116.77 176.58L123.13 167.08L124.77 162.51H121.2L111.55 136L107.55 132.14L112.26 126.27L118.56 130.99L126.99 154.65H127.27L135.99 127.49Z" fill="#738664"/>
<path d="M176.94 152.65V160.66C173.99 162.37 170.51 163.23 166.5 163.23C161.26 163.23 156.88 161.47 153.35 157.94C149.87 154.46 148.13 150.15 148.13 145.01C148.13 139.87 149.89 135.61 153.42 132.08C156.95 128.56 161.33 126.79 166.57 126.79C168.33 126.79 170.02 127 171.64 127.43C173.26 127.86 174.45 128.29 175.21 128.72L176.36 129.37V137.3C173.55 135.59 170.45 134.73 167.07 134.73C164.07 134.73 161.61 135.73 159.71 137.74C157.76 139.79 156.78 142.22 156.78 145.03C156.78 147.84 157.76 150.3 159.71 152.39C161.62 154.39 164.09 155.39 167.14 155.39C168.62 155.39 170.18 155.16 171.82 154.71C173.46 154.26 174.74 153.82 175.64 153.39L176.93 152.68L176.94 152.65Z" fill="#738664"/>
<path d="M211.1 152.65V160.66C208.14 162.37 204.67 163.23 200.67 163.23C195.43 163.23 191.05 161.47 187.52 157.94C184.04 154.46 182.3 150.15 182.3 145.01C182.3 139.87 184.06 135.61 187.59 132.08C191.12 128.56 195.5 126.79 200.74 126.79C202.5 126.79 204.19 127 205.81 127.43C207.43 127.86 208.62 128.29 209.38 128.72L210.52 129.37V137.3C207.71 135.59 204.61 134.73 201.23 134.73C198.23 134.73 195.77 135.73 193.87 137.74C191.92 139.79 190.94 142.22 190.94 145.03C190.94 147.84 191.92 150.3 193.87 152.39C195.78 154.39 198.25 155.39 201.3 155.39C202.78 155.39 204.34 155.16 205.98 154.71C207.62 154.26 208.9 153.82 209.8 153.39L211.09 152.68L211.1 152.65Z" fill="#738664"/>
<path d="M244.4 135.21H234.11V162.51H225.61V135.21H215.39V127.49H244.4V135.21Z" fill="#738664"/>
<path d="M272.27 151.65C272.27 149.51 270.44 148.43 266.77 148.43H259.27V154.65H267.49C268.97 154.65 270.13 154.38 270.99 153.83C271.85 153.28 272.28 152.56 272.28 151.65M259.28 141H266.49C267.97 141 269.12 140.73 269.96 140.18C270.79 139.63 271.21 138.93 271.21 138.07C271.21 137.16 270.83 136.46 270.07 135.96C269.31 135.46 268.28 135.21 267 135.21H259.28V141ZM279.86 137.57C279.86 138.76 279.61 139.88 279.11 140.93C278.6 141.98 278.09 142.74 277.56 143.22L276.77 143.93C277.1 144.12 277.5 144.41 277.97 144.79C278.44 145.17 279.08 146.05 279.88 147.43C280.68 148.82 281.08 150.36 281.08 152.08C281.08 155.18 279.89 157.7 277.51 159.65C275.18 161.56 272.15 162.51 268.43 162.51H250.85V127.5H266.4C270.6 127.5 273.9 128.35 276.28 130.07C278.67 131.78 279.86 134.29 279.86 137.57Z" fill="#738664"/>
<path d="M428.03 1.12C426.01 0.0499952 422.44 1.1 420.53 4.44C418.69 7.66 416.84 12.64 420.26 21.94C421.28 24.73 424.08 31.05 424.74 37.57C424.25 42.79 423.45 47.95 422.38 52.95C422.02 52.24 421.73 51.51 421.52 50.79C419.97 45.55 416.68 41.37 411.49 38.01C408.1 35.82 405.02 36.01 403.04 38.54C401.61 40.36 400.93 43.28 401.12 46.76C401.63 56 410.35 62.08 413.02 63.72C414.97 64.91 416.69 66.34 418.16 67.98C414.92 77.28 410.61 86.08 405.34 94.17C404.87 88.82 401.48 81.61 397.03 79.09C394.87 77.87 392.59 77.83 390.43 78.95C389.41 79.48 388.53 80.21 387.82 81.12C383.29 86.9 386.51 98.18 389.6 102.87C391.35 105.48 392.42 108.1 393.04 109.96C386.59 116.94 379.25 123.17 371.17 128.53C371.79 125.62 372.14 121.53 370.6 117.88C368.84 113.71 366.3 111.2 363.44 110.82C359.9 110.35 356.33 113.28 354.21 118.44C352 123.8 354.33 133.48 355.6 137.35C343.19 143.31 330.26 147.33 316.12 149.62C314.49 149.9 313.18 151.54 313.7 152.65C313.91 153.11 314.57 154.53 317.16 154.14C326.2 152.79 335.28 150.55 344.16 147.5C346.44 151.13 350.72 157.1 355.8 160.08C361.3 163.32 369.85 163.84 373.33 159.39C374.52 157.87 374.98 155.96 374.7 153.7C373.94 147.58 365.07 144.22 356.85 142.42C366.94 137.81 376.22 132.1 384.5 125.4C388.21 128.57 394.84 133.78 400.98 136.32C407.43 138.99 416.29 138.97 419.94 134.32C421.33 132.55 421.79 130.33 421.33 127.72C419.75 118.61 406.95 117.09 402.13 116.52C401.62 116.46 401.21 116.41 400.93 116.37C399.5 116.14 397 116.09 394.74 116.11C396.41 114.41 398.07 112.61 399.73 110.7L400.15 110.35L400.46 109.85C404.84 104.72 408.76 99.27 412.19 93.54C414.86 94.66 422.76 97.46 430 95.24C433.76 94.09 437.02 91.92 439.19 89.16C441.58 86.11 442.39 82.67 441.36 79.97C440.51 77.75 438.47 76.24 435.61 75.74C429.85 74.71 424.51 75.29 420.3 77.36C425.1 65.8 428.46 50.48 429.75 37.72C434.56 29.8 435.99 24.29 435.88 16.67C435.77 8.87 432.02 3.24 428.06 1.14" fill="#738664"/>
</g>
<defs>
<clipPath id="clip0_203_815">
<rect width="441.77" height="181.23" fill="white"/>
</clipPath>
</defs>
</svg>
