<svg width="792" height="593" viewBox="0 0 792 593" fill="none" xmlns="http://www.w3.org/2000/svg">
<path d="M601.288 397.243C603.005 417.776 602.028 435.909 594 455C581.532 484.651 554.96 498.007 528.971 515.52C468.101 556.54 402.608 571.688 329.928 561.376C285.361 555.052 248.913 540.585 211.321 515.888C132.004 463.777 67.4067 389.293 78.1161 291.521C87.3041 207.644 139.736 141.784 218.379 111.664C240.053 103.361 259.263 94.72 282.657 97.5454C368.169 107.871 175.587 180.808 198.991 265.775C210.336 306.96 229.837 325.592 260.425 337.493C331.644 365.204 401.815 276.121 496.649 274.604C519.103 274.244 541.556 291.272 560.033 309.076C585.223 333.347 598.377 362.436 601.288 397.243Z" fill="#F391A8" stroke="#992953" stroke-width="8" stroke-miterlimit="3" stroke-linecap="square"/>
<path d="M579.333 364.175C596.38 412.772 565.231 450.375 534.367 480.801C511.785 503.061 483.888 517.123 454.197 526.329C412.056 539.396 372.369 549.028 326.112 540.259C282.372 531.965 246.256 513.811 209.924 483.968C149.897 434.661 95.9854 371.952 99.2934 290.887C101.992 224.76 136.333 176.148 187.631 144.993C197.725 138.863 206.173 132.951 217.849 130.441C270.74 119.072 161.007 210.457 174.888 261.9C190.265 318.892 234.432 354.203 285.593 368.017C350.377 385.511 402.313 313.859 472.18 300.541C507.445 293.819 534.355 301.833 558.013 327.835C567.969 338.777 574.399 350.108 579.333 364.175Z" fill="#FAC1D2"/>
<path d="M524.415 312.372C517.799 311.433 514.424 318.685 516.236 324.563C517.663 329.188 521.892 332.968 526.777 332.317C532.773 331.519 534.375 324.643 532.236 319.291C530.845 315.811 528.216 312.912 524.415 312.372Z" fill="#F680A4"/>
<path d="M123.973 240.68C117.305 240.571 112.828 248.989 113.872 255.18C114.693 260.052 118.516 263.605 123.627 262.212C129.9 260.503 132.501 252.743 131.048 247.173C130.104 243.553 127.805 240.743 123.973 240.68Z" fill="#F680A4"/>
<path d="M122.656 275.524C111.735 275.079 104.747 288.512 106.705 298.564C108.248 306.473 114.647 312.373 122.955 310.328C133.155 307.817 137.1 295.375 134.497 286.311C132.805 280.417 128.928 275.78 122.656 275.524Z" fill="#F680A4"/>
<path d="M137.203 262.519C132.792 262.373 129.925 267.844 130.684 271.915C131.281 275.117 133.847 277.489 137.209 276.633C141.339 275.581 142.973 270.521 141.951 266.855C141.287 264.469 139.736 262.601 137.203 262.519Z" fill="#F680A4"/>
<path d="M259.948 116.131C253.999 111.079 242.297 114.591 237.628 120.399C233.953 124.971 234.196 130.703 240.095 133.375C247.337 136.655 256.739 132.283 260.473 126.675C262.901 123.028 263.367 119.033 259.948 116.131Z" fill="#FDE6EF"/>
<path d="M274.74 116.379C272.267 113.663 267.631 115.284 265.855 118.212C264.456 120.517 264.651 123.489 267.063 124.971C270.024 126.791 273.723 124.687 275.128 121.845C276.04 119.999 276.16 117.939 274.74 116.379Z" fill="#FDE6EF"/>
<path d="M270.995 111.867C272.184 110.541 271.047 108.916 269.452 108.588C268.197 108.329 266.72 108.787 266.144 109.931C265.439 111.335 266.753 112.528 268.277 112.72C269.268 112.845 270.311 112.628 270.995 111.867Z" fill="#FDE6EF"/>
<path d="M368.78 511.781C367.785 511.672 367.236 512.805 367.479 513.699C367.669 514.403 368.289 514.96 369.031 514.835C369.941 514.68 370.22 513.615 369.925 512.803C369.733 512.276 369.351 511.844 368.78 511.781Z" fill="#F680A4"/>
<path d="M343.419 510.716C340.231 512.467 341.757 515.051 344.921 515.8C347.411 516.389 350.745 515.965 352.552 514.379C354.769 512.432 352.644 510.455 349.556 509.917C347.548 509.567 345.251 509.711 343.419 510.716Z" fill="#F680A4"/>
<path d="M310.577 505.357C308.277 505.069 307.056 507.641 307.649 509.697C308.117 511.315 309.568 512.616 311.275 512.357C313.371 512.039 313.972 509.609 313.26 507.741C312.797 506.527 311.899 505.524 310.577 505.357Z" fill="#F680A4"/>
<path d="M361.675 514.484C359.375 514.195 358.153 516.767 358.748 518.823C359.215 520.44 360.665 521.743 362.372 521.483C364.468 521.164 365.069 518.736 364.357 516.867C363.895 515.652 362.997 514.649 361.675 514.484Z" fill="#F680A4"/>
<path d="M311.228 519.443C306.812 527.083 314.024 534.388 322.112 534.775C328.476 535.079 335.188 531.595 336.803 525.363C338.785 517.711 331.159 512.729 323.553 512.973C318.608 513.132 313.763 515.055 311.228 519.443Z" fill="#F680A4"/>
<path d="M345.381 520.395C340.061 519.645 337.34 525.485 338.792 530.215C339.935 533.935 343.333 536.972 347.263 536.444C352.087 535.796 353.38 530.26 351.665 525.955C350.551 523.156 348.439 520.825 345.381 520.395Z" fill="#F680A4"/>
<path d="M510.26 322.831C508.653 322.595 507.843 324.348 508.289 325.772C508.64 326.893 509.671 327.813 510.856 327.661C512.309 327.475 512.691 325.812 512.165 324.513C511.824 323.669 511.183 322.965 510.26 322.831Z" fill="#F680A4"/>
<path d="M505.949 306.995C502.688 306.525 501.035 310.089 501.935 312.984C502.641 315.261 504.729 317.125 507.135 316.811C510.088 316.425 510.869 313.044 509.809 310.408C509.12 308.693 507.821 307.265 505.949 306.995Z" fill="#F680A4"/>
<path d="M601.288 397.243C603.005 417.776 602.028 435.909 594 455C581.532 484.651 554.96 498.007 528.971 515.52C468.101 556.54 402.608 571.688 329.928 561.376C285.361 555.052 248.913 540.585 211.321 515.888C132.004 463.777 67.4067 389.293 78.1161 291.521C87.3041 207.644 139.736 141.784 218.379 111.664C240.053 103.361 259.263 94.72 282.657 97.5454C368.169 107.871 175.587 180.808 198.991 265.775C210.336 306.96 229.837 325.592 260.425 337.493C331.644 365.204 401.815 276.121 496.649 274.604C519.103 274.244 541.556 291.272 560.033 309.076C585.223 333.347 598.377 362.436 601.288 397.243Z" fill="#F391A8" stroke="#992953" stroke-width="8" stroke-miterlimit="3" stroke-linecap="square"/>
<path d="M579.333 364.175C596.38 412.772 565.231 450.375 534.367 480.801C511.785 503.061 483.888 517.123 454.197 526.329C412.056 539.396 372.369 549.028 326.112 540.259C282.372 531.965 246.256 513.811 209.924 483.968C149.897 434.661 95.9854 371.952 99.2934 290.887C101.992 224.76 136.333 176.148 187.631 144.993C197.725 138.863 206.173 132.951 217.849 130.441C270.74 119.072 161.007 210.457 174.888 261.9C190.265 318.892 234.432 354.203 285.593 368.017C350.377 385.511 402.313 313.859 472.18 300.541C507.445 293.819 534.355 301.833 558.013 327.835C567.969 338.777 574.399 350.108 579.333 364.175Z" fill="#FAC1D2"/>
<path d="M524.415 312.372C517.799 311.433 514.424 318.685 516.236 324.563C517.663 329.188 521.892 332.968 526.777 332.317C532.773 331.519 534.375 324.643 532.236 319.291C530.845 315.811 528.216 312.912 524.415 312.372Z" fill="#F680A4"/>
<path d="M123.973 240.68C117.305 240.571 112.828 248.989 113.872 255.18C114.693 260.052 118.516 263.605 123.627 262.212C129.9 260.503 132.501 252.743 131.048 247.173C130.104 243.553 127.805 240.743 123.973 240.68Z" fill="#F680A4"/>
<path d="M122.656 275.524C111.735 275.079 104.747 288.512 106.705 298.564C108.248 306.473 114.647 312.373 122.955 310.328C133.155 307.817 137.1 295.375 134.497 286.311C132.805 280.417 128.928 275.78 122.656 275.524Z" fill="#F680A4"/>
<path d="M137.203 262.519C132.792 262.373 129.925 267.844 130.684 271.915C131.281 275.117 133.847 277.489 137.209 276.633C141.339 275.581 142.973 270.521 141.951 266.855C141.287 264.469 139.736 262.601 137.203 262.519Z" fill="#F680A4"/>
<path d="M259.948 116.131C253.999 111.079 242.297 114.591 237.628 120.399C233.953 124.971 234.196 130.703 240.095 133.375C247.337 136.655 256.739 132.283 260.473 126.675C262.901 123.028 263.367 119.033 259.948 116.131Z" fill="#FDE6EF"/>
<path d="M274.74 116.379C272.267 113.663 267.631 115.284 265.855 118.212C264.456 120.517 264.651 123.489 267.063 124.971C270.024 126.791 273.723 124.687 275.128 121.845C276.04 119.999 276.16 117.939 274.74 116.379Z" fill="#FDE6EF"/>
<path d="M270.995 111.867C272.184 110.541 271.047 108.916 269.452 108.588C268.197 108.329 266.72 108.787 266.144 109.931C265.439 111.335 266.753 112.528 268.277 112.72C269.268 112.845 270.311 112.628 270.995 111.867Z" fill="#FDE6EF"/>
<path d="M368.78 511.781C367.785 511.672 367.236 512.805 367.479 513.699C367.669 514.403 368.289 514.96 369.031 514.835C369.941 514.68 370.22 513.615 369.925 512.803C369.733 512.276 369.351 511.844 368.78 511.781Z" fill="#F680A4"/>
<path d="M343.419 510.716C340.231 512.467 341.757 515.051 344.921 515.8C347.411 516.389 350.745 515.965 352.552 514.379C354.769 512.432 352.644 510.455 349.556 509.917C347.548 509.567 345.251 509.711 343.419 510.716Z" fill="#F680A4"/>
<path d="M310.577 505.357C308.277 505.069 307.056 507.641 307.649 509.697C308.117 511.315 309.568 512.616 311.275 512.357C313.371 512.039 313.972 509.609 313.26 507.741C312.797 506.527 311.899 505.524 310.577 505.357Z" fill="#F680A4"/>
<path d="M361.675 514.484C359.375 514.195 358.153 516.767 358.748 518.823C359.215 520.44 360.665 521.743 362.372 521.483C364.468 521.164 365.069 518.736 364.357 516.867C363.895 515.652 362.997 514.649 361.675 514.484Z" fill="#F680A4"/>
<path d="M311.228 519.443C306.812 527.083 314.024 534.388 322.112 534.775C328.476 535.079 335.188 531.595 336.803 525.363C338.785 517.711 331.159 512.729 323.553 512.973C318.608 513.132 313.763 515.055 311.228 519.443Z" fill="#F680A4"/>
<path d="M345.381 520.395C340.061 519.645 337.34 525.485 338.792 530.215C339.935 533.935 343.333 536.972 347.263 536.444C352.087 535.796 353.38 530.26 351.665 525.955C350.551 523.156 348.439 520.825 345.381 520.395Z" fill="#F680A4"/>
<path d="M510.26 322.831C508.653 322.595 507.843 324.348 508.289 325.772C508.64 326.893 509.671 327.813 510.856 327.661C512.309 327.475 512.691 325.812 512.165 324.513C511.824 323.669 511.183 322.965 510.26 322.831Z" fill="#F680A4"/>
<path d="M505.949 306.995C502.688 306.525 501.035 310.089 501.935 312.984C502.641 315.261 504.729 317.125 507.135 316.811C510.088 316.425 510.869 313.044 509.809 310.408C509.12 308.693 507.821 307.265 505.949 306.995Z" fill="#F680A4"/>
<path d="M570.204 443.759C568.753 454.16 562.936 462.16 554.34 467.032C544.436 472.645 534.528 468.772 524.38 465.497C512.825 460.092 505.883 453.068 495.872 445.783C491.748 442.781 479.808 433.264 483.429 438.487C485.472 441.433 488.415 444.588 487.153 448.587C486.311 451.259 484.912 453.088 482.039 454.031C476.957 455.697 474.081 455.008 470.192 453.605C465.969 452.083 462.313 449.197 460.235 444.487C457.652 438.635 469.224 422.897 463.744 429.6C460.944 433.024 458.599 440.375 459.551 445.064C460.471 449.597 450.115 441.681 448.876 436.319C448.035 432.676 449.552 429.529 450.848 426.108C452.203 422.536 454.416 420.155 456.383 416.955C459.293 412.221 449.912 427.383 448.24 430.527C446.092 434.569 445.037 422.905 445.335 418.405C445.655 413.556 449.069 408.016 455.579 401.787C462.492 398.105 460.493 398.919 467.721 398.491C473.275 398.163 457.461 398.477 454.333 401.944C452.495 403.98 455.785 396.224 457.815 394.451C461.971 390.817 464.145 389.837 468.009 389.52C471.476 389.095 476.996 392.868 482.061 393.904C490.035 395.536 497.191 393.037 505.131 394.895C513.077 396.752 518.988 400.808 526.389 404.276C534.316 407.991 540.968 411.205 548.711 415.4C557.823 420.337 569.42 424.825 570.46 437.233C570.651 439.519 570.523 441.48 570.204 443.759Z" fill="#FAC1D2" stroke="#992953" stroke-width="5.33333" stroke-miterlimit="3" stroke-linecap="square"/>
<path d="M577.392 429.204C563.538 445.678 551.031 454.922 539.872 456.936C526.044 459.433 508.32 452.299 486.7 435.533C520.599 467.129 546.9 476.983 565.621 465.039C572.197 460.843 576.121 448.898 577.392 429.204Z" fill="#F391A8"/>
<path d="M547.328 430.249C546.567 434.892 552.004 439.439 556.448 439.752C559.945 439.997 562.827 437.924 562.376 434.117C561.823 429.444 556.655 426.319 552.604 426.397C549.971 426.448 547.765 427.581 547.328 430.249Z" fill="#F680A4"/>
<path d="M537.172 422.821C536.597 424.739 538.629 426.273 540.476 426.155C541.931 426.06 543.253 425.064 543.273 423.552C543.299 421.695 541.303 420.719 539.599 420.973C538.491 421.14 537.503 421.72 537.172 422.821Z" fill="#F680A4"/>
<path d="M474.316 408.088C473.741 410.005 475.773 411.541 477.62 411.421C479.073 411.328 480.397 410.331 480.417 408.819C480.443 406.963 478.445 405.985 476.741 406.241C475.635 406.407 474.647 406.987 474.316 408.088Z" fill="#F680A4"/>
<path d="M541.691 429.589C541.344 430.395 542.112 430.903 542.893 430.752C543.508 430.635 544.119 430.159 544.211 429.547C544.323 428.796 543.539 428.512 542.809 428.709C542.336 428.837 541.889 429.125 541.691 429.589Z" fill="#F680A4"/>
<path d="M546.055 423.32C546.655 425.039 548.941 425.092 550.217 424.023C551.223 423.181 551.653 421.743 550.867 420.617C549.9 419.235 547.935 419.575 546.835 420.669C546.12 421.38 545.711 422.332 546.055 423.32Z" fill="#F680A4"/>
<path d="M402.04 325.844C393.148 320.331 383.411 319.745 374.369 323.317C363.951 327.433 360.823 337.611 357.088 347.591C354.127 360.025 355.249 369.909 354.684 382.344C354.451 387.467 354.413 402.827 352.628 396.676C351.621 393.207 351.008 388.904 347.156 387.332C344.581 386.28 342.313 386.2 339.819 387.832C335.405 390.719 334.163 393.395 332.845 397.315C331.415 401.569 331.381 406.253 333.723 410.877C336.632 416.623 355.863 417.675 347.333 417.656C342.975 417.645 335.877 414.776 332.857 411.041C329.937 407.431 329.644 420.537 333.005 424.924C335.288 427.905 338.643 428.735 342.073 429.911C345.653 431.139 348.848 430.939 352.521 431.452C357.955 432.212 340.515 429.825 337.067 429.117C332.635 428.207 340.955 436.473 344.597 439.116C348.525 441.964 354.889 442.847 363.689 441.764C370.781 438.739 368.924 439.773 373.707 434.428C377.381 430.319 367.395 442.412 362.801 442.632C360.103 442.76 368.095 445.155 370.709 444.709C376.064 443.799 378.157 442.733 380.783 439.932C383.245 437.508 383.744 430.807 386.068 426.207C389.727 418.965 396.057 414.997 399.521 407.64C402.989 400.275 403.512 393.089 405.405 385.12C407.433 376.585 409.06 369.361 410.604 360.663C412.423 350.427 416.117 338.544 407.216 329.813C405.576 328.205 403.989 327.052 402.04 325.844Z" fill="#FAC1D2" stroke="#992953" stroke-width="5.33333" stroke-miterlimit="3" stroke-linecap="square"/>
<path d="M409.932 323.597C392.169 327.509 379.83 332.944 372.917 339.901C363.157 349.724 357.823 368.429 356.915 396.019C349.885 349.607 356.147 323.988 375.715 319.107C385.916 316.561 396.699 316.263 409.932 323.597Z" fill="#F391A8"/>
<path d="M395.347 347.947C393.075 348.599 390.949 346.025 390.869 343.735C390.805 341.932 391.861 340.32 393.707 340.344C395.972 340.373 397.409 342.885 397.307 344.993C397.239 346.364 396.652 347.572 395.347 347.947Z" fill="#F680A4"/>
<path d="M343.072 399.481C341.244 398.704 341.315 396.144 342.544 394.784C343.512 393.713 345.093 393.321 346.269 394.271C347.713 395.437 347.233 397.613 345.987 398.775C345.177 399.529 344.123 399.928 343.072 399.481Z" fill="#F680A4"/>
<path d="M403.287 345.317C401.457 344.54 401.528 341.98 402.759 340.62C403.727 339.549 405.308 339.157 406.484 340.107C407.927 341.273 407.448 343.449 406.201 344.611C405.391 345.365 404.337 345.764 403.287 345.317Z" fill="#F680A4"/>
<path d="M399.228 334.196C398.395 333.951 398.477 333.029 399.075 332.517C399.544 332.115 400.287 331.944 400.813 332.264C401.46 332.656 401.196 333.447 400.595 333.887C400.204 334.173 399.707 334.336 399.228 334.196Z" fill="#F680A4"/>
<path d="M390.832 335.52C389.879 333.956 391.247 332.144 392.856 331.835C394.121 331.592 395.493 332.175 395.875 333.505C396.343 335.139 394.869 336.449 393.351 336.607C392.363 336.708 391.379 336.419 390.832 335.52Z" fill="#F680A4"/>
<path d="M274.791 362.803C271.716 371.543 266.64 378.329 258.871 383.707C249.52 390.177 239.309 392.673 228.444 390.677C216.459 388.476 210.592 380.924 202.391 370.795C192.939 359.119 187.909 346.608 181.692 332.641C177.632 323.517 175.652 315.161 171.464 306.097C165.768 293.767 134.336 275.851 152.257 272.668C158.775 271.511 164.564 272.019 169.512 277.156C175.207 283.069 160.455 262.235 168.24 256.5C175.259 251.327 185.523 260.716 188.04 264.968C191.208 270.32 185.257 247.077 193.439 242.324C207.033 234.425 205.36 257.485 212.359 265.244C217.511 270.953 222.12 275.557 227.543 281.017C238.767 292.317 248.183 299.997 260.531 312.135C269.511 320.96 275.577 331.015 276.719 343.972C277.3 350.568 277.048 356.384 274.791 362.803Z" fill="#FAC1D2" stroke="#992953" stroke-width="5.33333" stroke-miterlimit="3" stroke-linecap="square"/>
<path d="M238.748 362.235C243.169 365.328 244.077 371.675 240.773 376.399C237.469 381.121 231.196 382.445 226.775 379.352C222.352 376.259 221.445 369.913 224.749 365.189C228.053 360.465 234.325 359.143 238.748 362.235Z" fill="#F680A4"/>
<path d="M238.748 362.235C243.169 365.328 244.077 371.675 240.773 376.399C237.469 381.121 231.196 382.445 226.775 379.352C222.352 376.259 221.445 369.913 224.749 365.189C228.053 360.465 234.325 359.143 238.748 362.235Z" fill="#F680A4"/>
<path d="M226.8 347.912C229.715 349.951 230.369 354.053 228.26 357.068C226.151 360.084 222.072 360.876 219.157 358.837C216.243 356.799 215.589 352.696 217.699 349.681C219.807 346.665 223.885 345.873 226.8 347.912Z" fill="#F680A4"/>
<path d="M242.028 350.417C243.949 351.76 244.416 354.413 243.069 356.339C241.724 358.263 239.071 358.735 237.151 357.391C235.229 356.047 234.763 353.393 236.109 351.469C237.455 349.544 240.108 349.073 242.028 350.417Z" fill="#F680A4"/>
<path d="M271.913 384.485C263.108 404.395 236.652 412.02 212.871 401.503C189.089 390.985 176.931 366.283 185.736 346.372C194.541 326.463 220.997 318.837 244.779 329.355C268.56 339.872 280.719 364.576 271.913 384.485Z" fill="#FAC1D2"/>
<path d="M218.836 450.753C221.236 459.703 220.879 468.171 217.504 476.996C213.441 487.617 206.425 495.444 196.332 499.932C185.196 504.884 176.089 501.965 163.601 498.237C149.207 493.94 137.991 486.456 124.972 478.44C116.469 473.205 110.116 467.427 101.541 462.311C89.876 455.353 53.8186 458.319 66.8106 445.571C71.536 440.935 76.6 438.084 83.5853 439.531C91.624 441.193 67.684 432.332 70.8693 423.201C73.7413 414.969 87.5133 416.921 91.992 419.008C97.6293 421.636 79.592 405.816 83.6586 397.272C90.4173 383.075 102.06 403.052 112.217 405.501C119.693 407.304 126.097 408.501 133.656 409.944C149.3 412.929 161.408 413.951 178.453 416.993C190.849 419.205 201.533 424.077 209.792 434.125C213.997 439.24 217.075 444.183 218.836 450.753Z" fill="#FAC1D2" stroke="#992953" stroke-width="5.33333" stroke-miterlimit="3" stroke-linecap="square"/>
<path d="M149.476 419.588C153.176 420.465 155.513 423.987 154.692 427.448C153.871 430.909 150.201 433.007 146.501 432.128C142.803 431.251 140.465 427.729 141.287 424.268C142.107 420.808 145.777 418.711 149.476 419.588Z" fill="#F680A4"/>
<path d="M132.5 424.24C134.708 424.764 136.052 427.077 135.5 429.405C134.948 431.732 132.708 433.196 130.5 432.672C128.292 432.149 126.948 429.835 127.5 427.507C128.052 425.18 130.292 423.716 132.5 424.24Z" fill="#F680A4"/>
<path d="M138.347 432.832C139.664 433.145 140.433 434.669 140.061 436.233C139.691 437.799 138.32 438.815 137.001 438.503C135.684 438.191 134.916 436.667 135.287 435.101C135.659 433.537 137.029 432.52 138.347 432.832Z" fill="#F680A4"/>
<path d="M149.533 434.393C150.32 434.58 150.756 435.585 150.507 436.637C150.256 437.689 149.416 438.392 148.629 438.207C147.843 438.02 147.408 437.013 147.657 435.961C147.907 434.909 148.748 434.207 149.533 434.393Z" fill="#F680A4"/>
<path d="M170.4 404.969C186.473 396.265 208.839 406.399 220.312 427.585C231.785 448.772 228.052 473.04 211.979 481.745C195.904 490.449 173.54 480.316 162.065 459.129C150.592 437.943 154.327 413.675 170.4 404.969Z" fill="#FAC1D2"/>
<path d="M718.543 120.912C717.729 119.185 716.489 118.095 715.775 118.479C715.06 118.864 715.14 120.577 715.952 122.304C716.765 124.031 718.005 125.121 718.72 124.737C719.435 124.352 719.355 122.639 718.543 120.912Z" fill="#992953"/>
<path d="M724.743 117.9C724.217 116.051 723.171 114.749 722.404 114.997C721.639 115.245 721.443 116.948 721.967 118.797C722.492 120.647 723.54 121.948 724.305 121.7C725.071 121.453 725.267 119.751 724.743 117.9Z" fill="#992953"/>
<path d="M766.467 154.885C768.261 154.66 769.64 153.787 769.547 152.936C769.452 152.085 767.919 151.579 766.125 151.803C764.332 152.028 762.952 152.901 763.047 153.752C763.14 154.603 764.673 155.109 766.467 154.885Z" fill="#992953"/>
<path d="M767.66 161.079C769.977 161.012 771.841 160.263 771.819 159.408C771.796 158.552 769.896 157.911 767.579 157.977C765.261 158.044 763.399 158.792 763.421 159.648C763.443 160.504 765.343 161.145 767.66 161.079Z" fill="#992953"/>
<path d="M681.589 202.38C677.36 180.441 701.532 177.245 701.835 169.856C702.801 146.157 710.621 109.903 742.82 120.781C758.663 126.135 763.757 140.581 764.431 156.069C765.808 187.729 723.224 216.579 693.015 215.756C687.627 215.609 682.696 208.12 681.589 202.38Z" fill="#CA4986" stroke="#992953" stroke-width="5.33333" stroke-miterlimit="3" stroke-linecap="square"/>
<path d="M733.096 170.671C723.601 170.095 710.309 165.861 708.272 160.819C706.305 155.952 706.645 148.751 708.441 142.492C710.837 134.137 715.037 127.056 722.848 123.245C733.048 118.268 744.117 121.115 752.593 128.475C762.387 136.979 765.133 151.465 761.027 162.411C758.956 167.927 743.499 171.301 733.096 170.671Z" fill="#F46AA6"/>
<path d="M738.047 132.759C737.649 135.983 734.983 138.213 731.905 138.493C726.82 138.955 722.84 132.704 725.887 128.207C728.068 124.988 732.352 124.541 735.3 126.721C737.216 128.137 738.353 130.267 738.047 132.759Z" fill="#F78FCC"/>
<path d="M725.891 139.677C725.691 141.531 724.213 142.792 722.493 142.928C719.649 143.152 717.377 139.523 719.051 136.96C720.248 135.125 722.644 134.903 724.309 136.181C725.392 137.012 726.044 138.247 725.891 139.677Z" fill="#F78FCC"/>
<path d="M731.516 142.485C731.417 143.549 730.6 144.264 729.637 144.328C728.047 144.435 726.749 142.328 727.668 140.865C728.325 139.82 729.665 139.712 730.607 140.46C731.219 140.948 731.592 141.663 731.516 142.485Z" fill="#F78FCC"/>
<path d="M758.317 157.231C758.044 159.9 755.941 161.711 753.484 161.893C749.424 162.197 746.155 156.948 748.531 153.263C750.231 150.625 753.651 150.323 756.037 152.177C757.589 153.384 758.528 155.168 758.317 157.231Z" fill="#F78FCC"/>
<path d="M768.395 207.991C768.915 206.315 768.748 204.799 768.021 204.608C767.295 204.416 766.281 205.62 765.761 207.295C765.24 208.971 765.408 210.487 766.135 210.677C766.861 210.869 767.873 209.665 768.395 207.991Z" fill="#992953"/>
<path d="M774.499 209.869C775.292 208.293 775.388 206.757 774.711 206.441C774.035 206.125 772.841 207.148 772.047 208.724C771.253 210.301 771.157 211.837 771.835 212.153C772.511 212.469 773.704 211.447 774.499 209.869Z" fill="#992953"/>
<path d="M779.929 261.073C781.292 262.052 782.777 262.333 783.243 261.701C783.707 261.069 782.977 259.761 781.615 258.783C780.251 257.804 778.765 257.523 778.301 258.155C777.836 258.787 778.565 260.095 779.929 261.073Z" fill="#992953"/>
<path d="M776.887 265.996C778.508 267.412 780.245 268.083 780.763 267.492C781.28 266.901 780.383 265.272 778.761 263.856C777.14 262.44 775.403 261.771 774.885 262.361C774.368 262.952 775.264 264.58 776.887 265.996Z" fill="#992953"/>
<path d="M692.467 239.561C703.243 222.121 721.719 235.204 726.525 230.419C741.94 215.069 769.847 195.584 785.035 223.204C792.507 236.793 786.987 249.733 777.803 260.588C759.029 282.776 715.111 277.081 691.932 255.769C688.247 252.383 689.648 244.124 692.467 239.561Z" fill="#CA4986" stroke="#992953" stroke-width="5.33333" stroke-miterlimit="3" stroke-linecap="square"/>
<path d="M744.933 252.317C738.685 245.771 732.215 234.137 734.144 229.193C736.005 224.421 741.029 219.46 746.443 216.117C753.669 211.653 761.309 209.272 769.297 211.576C779.729 214.583 785.568 223.783 786.596 234.553C787.784 246.996 780.073 259.193 769.931 264.416C764.819 267.048 751.779 259.491 744.933 252.317Z" fill="#F46AA6"/>
<path d="M774.321 228.26C772.043 230.183 768.835 230.003 766.563 228.252C762.807 225.357 763.983 218.64 768.863 217.531C772.353 216.739 775.553 219.137 776.207 222.463C776.631 224.625 776.081 226.776 774.321 228.26Z" fill="#F78FCC"/>
<path d="M761.721 225.259C760.433 226.38 758.64 226.299 757.381 225.305C755.303 223.664 756.012 219.788 758.749 219.117C760.709 218.636 762.481 219.997 762.821 221.907C763.041 223.149 762.719 224.391 761.721 225.259Z" fill="#F78FCC"/>
<path d="M763.811 230.695C763.081 231.349 762.079 231.315 761.383 230.752C760.232 229.82 760.657 227.584 762.195 227.179C763.295 226.889 764.275 227.66 764.451 228.757C764.565 229.472 764.375 230.189 763.811 230.695Z" fill="#F78FCC"/>
<path d="M772.909 257.516C771.06 259.143 768.5 259.036 766.711 257.611C763.752 255.256 764.791 249.661 768.705 248.676C771.507 247.972 774.028 249.923 774.5 252.676C774.808 254.467 774.337 256.26 772.909 257.516Z" fill="#F78FCC"/>
<path d="M760.807 306.245C761.977 305.324 762.617 304.189 762.233 303.713C761.849 303.237 760.587 303.599 759.416 304.52C758.244 305.441 757.605 306.576 757.989 307.053C758.372 307.529 759.635 307.168 760.807 306.245Z" fill="#992953"/>
<path d="M763.897 310.433C765.2 309.709 766.021 308.684 765.733 308.145C765.444 307.605 764.151 307.756 762.849 308.48C761.547 309.204 760.724 310.229 761.013 310.768C761.303 311.308 762.595 311.157 763.897 310.433Z" fill="#992953"/>
<path d="M742.153 348.669C742.568 349.993 743.407 350.889 744.025 350.669C744.644 350.448 744.811 349.192 744.396 347.868C743.983 346.543 743.144 345.647 742.525 345.867C741.905 346.088 741.74 347.344 742.153 348.669Z" fill="#992953"/>
<path d="M737.715 350.664C738.083 352.415 738.896 353.701 739.529 353.533C740.161 353.367 740.376 351.808 740.008 350.057C739.64 348.307 738.828 347.02 738.195 347.188C737.563 347.355 737.347 348.913 737.715 350.664Z" fill="#992953"/>
<path d="M695.188 292.441C710.908 285.372 716.607 303.199 722.14 302.131C739.883 298.705 767.897 298.287 764.243 324.692C762.444 337.683 752.409 344.095 740.993 347.328C717.657 353.935 696.159 335.707 686.82 303.481C685.667 299.5 691.075 294.292 695.188 292.441Z" fill="#CA4986" stroke="#992953" stroke-width="5.33333" stroke-miterlimit="3" stroke-linecap="square"/>
<path d="M723.369 325.719C722.481 318.097 724.015 306.769 727.809 304.191C731.469 301.703 737.351 300.591 742.676 300.809C749.784 301.103 756.117 303.067 760.319 308.515C765.805 315.628 765.077 324.931 760.325 333.048C754.835 342.425 743.493 347.377 734.043 346.228C729.28 345.648 724.343 334.068 723.369 325.719Z" fill="#F46AA6"/>
<path d="M754.687 323.163C752.236 323.428 750.211 321.791 749.58 319.499C748.539 315.711 752.635 311.585 756.396 313.113C759.088 314.208 760.009 317.388 758.795 320.013C758.005 321.72 756.58 322.959 754.687 323.163Z" fill="#F78FCC"/>
<path d="M747.873 315.131C746.469 315.304 745.328 314.403 744.991 313.117C744.433 310.993 746.816 308.628 748.952 309.451C750.48 310.04 750.975 311.823 750.253 313.315C749.785 314.284 748.957 314.996 747.873 315.131Z" fill="#F78FCC"/>
<path d="M746.56 319.904C745.756 320.016 745.112 319.519 744.932 318.797C744.635 317.607 746.021 316.249 747.235 316.692C748.103 317.008 748.367 318.008 747.94 318.856C747.661 319.407 747.181 319.817 746.56 319.904Z" fill="#F78FCC"/>
<path d="M739.289 342.88C737.268 343.141 735.635 341.86 735.16 340.024C734.376 336.988 737.827 333.58 740.892 334.739C743.085 335.569 743.781 338.117 742.731 340.259C742.048 341.651 740.851 342.679 739.289 342.88Z" fill="#F78FCC"/>
<path d="M573.383 372.376C501.253 361.999 396.248 357.076 391.411 278.024C386.277 194.127 464.473 121.245 544.241 124.029C637.089 127.271 726.917 201.836 706.371 292.347C692.755 352.323 632.584 380.893 573.383 372.376Z" fill="#FAC1D2" stroke="#992953" stroke-width="8" stroke-miterlimit="3" stroke-linecap="square"/>
<path d="M475.515 156.669C476.785 164.996 487.108 164.551 493.907 162.155C499.183 160.295 504.329 156.82 504.267 150.9C504.164 140.991 491.297 140.964 483.919 144.663C479.121 147.067 474.657 151.051 475.515 156.669Z" fill="#FDE6EF"/>
<path d="M462.915 251.629C457.427 260.857 467.38 270.063 475.621 274.096C482.016 277.225 489.584 278.676 494.268 272.901C502.108 263.236 490.167 251.2 480.344 247.883C473.957 245.725 466.617 245.404 462.915 251.629Z" fill="#F680A4"/>
<path d="M644.572 288.909C647.811 297.075 659.224 296.385 666.283 293.863C671.76 291.904 676.739 288.36 675.375 282.535C673.091 272.784 658.737 273.071 651.317 276.889C646.493 279.372 642.387 283.4 644.572 288.909Z" fill="#F680A4"/>
<path d="M496.268 250.581C505.359 256.24 515.244 250.317 519.561 241.42C524.948 230.323 519.904 211.411 507.576 211.104C492.2 210.721 486.52 220.777 487.512 235.819C487.797 240.143 491.071 247.347 496.268 250.581Z" fill="#992953"/>
<path d="M634.94 272.519C644.393 277.775 652.076 273.604 656.625 264.961C662.439 253.92 658.089 235.964 645.749 235.289C630.272 234.443 627.725 246.844 627.099 257.327C627.117 264.5 630.055 269.801 634.94 272.519Z" fill="#992953"/>
<path d="M476.219 169.579C476.348 172.256 478.723 174.615 481.639 175.492C486.46 176.943 490.744 172.763 488.181 168.5C486.348 165.451 482.292 164.183 479.309 165.309C477.369 166.041 476.119 167.511 476.219 169.579Z" fill="#FDE6EF"/>
<path d="M465.545 158.708C465.529 160.108 466.631 161.273 468.043 161.647C470.379 162.263 472.617 159.943 471.48 157.784C470.667 156.24 468.704 155.696 467.199 156.376C466.22 156.819 465.559 157.627 465.545 158.708Z" fill="#FDE6EF"/>
<path d="M467.391 238.929C467.375 240.329 468.476 241.495 469.888 241.868C472.224 242.484 474.461 240.165 473.325 238.007C472.512 236.461 470.549 235.919 469.044 236.599C468.064 237.04 467.404 237.848 467.391 238.929Z" fill="#F680A4"/>
<path d="M676.359 282.131C676.343 283.531 677.443 284.697 678.856 285.069C681.191 285.685 683.429 283.367 682.293 281.208C681.48 279.663 679.516 279.12 678.011 279.8C677.032 280.241 676.371 281.049 676.359 282.131Z" fill="#F680A4"/>
<path d="M676.303 269.792C676.316 270.501 676.912 271.111 677.657 271.323C678.892 271.672 680.028 270.531 679.399 269.417C678.947 268.62 677.909 268.312 677.132 268.633C676.625 268.843 676.292 269.243 676.303 269.792Z" fill="#F680A4"/>
<path d="M448.817 245.324C448.641 248.371 450.801 250.796 453.688 251.463C458.459 252.564 463.332 247.287 461.2 242.705C459.675 239.427 455.664 238.445 452.477 240.08C450.407 241.143 448.955 242.969 448.817 245.324Z" fill="#F680A4"/>
<path d="M657.172 300.089C657.047 301.957 658.341 303.429 660.088 303.821C662.975 304.467 665.961 301.205 664.696 298.411C663.791 296.412 661.365 295.835 659.423 296.855C658.16 297.519 657.268 298.645 657.172 300.089Z" fill="#F680A4"/>
<path d="M486.419 281.649C486.445 282.581 487.24 283.387 488.229 283.673C489.867 284.147 491.357 282.663 490.511 281.195C489.905 280.144 488.528 279.729 487.503 280.141C486.835 280.409 486.399 280.931 486.419 281.649Z" fill="#F680A4"/>
<path d="M632.46 246.579C632.313 249.835 634.689 252.457 637.829 253.212C643.017 254.46 648.223 248.892 645.844 243.964C644.141 240.437 639.78 239.329 636.351 241.029C634.12 242.133 632.573 244.064 632.46 246.579Z" fill="#FDE6EF"/>
<path d="M493.955 224.347C493.789 227.797 496.292 230.571 499.605 231.36C505.083 232.665 510.599 226.745 508.103 221.529C506.316 217.799 501.713 216.637 498.084 218.451C495.724 219.631 494.084 221.681 493.955 224.347Z" fill="#FDE6EF"/>
<path d="M496.937 167.839C497.063 170.309 499.581 171.971 501.968 173.311C509.995 177.812 514.776 166.733 513.216 162.565C512.067 159.495 503.241 161.092 499.787 163.903C498.427 165.011 496.84 165.929 496.937 167.839Z" fill="#FDE6EF"/>
<path d="M640.293 179.844C643.253 185.228 657.321 186.389 654.497 180.868C653.085 178.105 648.041 178.577 647.26 176.099C646.684 174.275 644.175 171.029 641.3 171.38C637.217 171.879 638.648 176.851 640.293 179.844Z" fill="#FDE6EF"/>
<path d="M566.305 306.373C582.031 307.977 592.151 296.735 593.004 291.031C593.857 285.325 574.869 275.86 570.871 274.747C567.099 273.696 548.671 279.137 545.215 285.179C542.327 290.228 556.257 305.349 566.305 306.373Z" fill="#F680A4"/>
<path d="M449.929 165.511C448.495 176.405 447.123 184.753 445.811 190.556C441.068 211.532 425.168 225.773 424.016 247.529C422.941 267.829 428.655 284.797 437.503 302.952C444.592 317.496 459.461 334.739 482.112 354.681C447.893 347.199 425.019 336.27 413.488 321.895C401.912 307.463 396.644 291.939 394.468 273.641C391.277 246.809 398.959 223.497 413.675 201.044C420.244 191.022 432.328 179.177 449.929 165.511Z" fill="#F391A8"/>
<path d="M516.683 276.197C520.609 280.295 524.263 282.788 529.197 285.004C543.859 291.587 556.787 276.321 572.056 278.699C585.98 280.867 593.564 296.661 608.083 295.16C613.349 294.616 617.499 293.229 622.409 290.792C629.119 287.461 611.2 290.723 605.259 289.54C591.724 286.848 584.771 272.883 570.841 271.717C558.275 270.665 549.544 281.796 536.996 281.165C529.613 280.795 511.239 270.517 516.683 276.197Z" fill="#992953"/>
<path d="M420.835 83.112C422.107 81.3107 423.764 80.312 424.533 80.8853C425.303 81.4573 424.893 83.384 423.621 85.1854C422.349 86.9867 420.692 87.984 419.923 87.412C419.153 86.84 419.563 84.9133 420.835 83.112Z" fill="#992953"/>
<path d="M414.105 78.512C415.061 76.516 416.531 75.2427 417.385 75.6693C418.24 76.0973 418.156 78.064 417.2 80.06C416.244 82.056 414.773 83.3293 413.92 82.9013C413.065 82.4747 413.148 80.508 414.105 78.512Z" fill="#992953"/>
<path d="M358.291 112.436C356.225 111.837 354.765 110.584 355.032 109.637C355.299 108.692 357.193 108.411 359.259 109.009C361.325 109.608 362.785 110.861 362.519 111.807C362.251 112.752 360.357 113.035 358.291 112.436Z" fill="#992953"/>
<path d="M355.751 119.227C353.041 118.708 350.989 117.503 351.173 116.536C351.357 115.571 353.707 115.208 356.417 115.727C359.127 116.247 361.177 117.451 360.995 118.417C360.811 119.383 358.461 119.745 355.751 119.227Z" fill="#992953"/>
<path d="M449.269 182.509C458.269 158.457 430.461 150.208 431.465 141.776C434.685 114.735 432.164 72.152 392.339 78.316C372.744 81.3493 361.368 96.4 360.465 114.168C359.093 141.187 396.212 193.736 436.055 192.877C442.475 192.739 446.913 188.803 449.269 182.509Z" fill="#CA4986" stroke="#992953" stroke-width="5.33333" stroke-miterlimit="3" stroke-linecap="square"/>
<path d="M395.677 137.232C406.989 138.399 423.465 136.104 426.808 130.717C430.032 125.52 431.117 116.763 430.007 109.024C428.601 99.2267 424.909 90.6 416.589 84.8654C405.476 77.2054 391.883 78.336 380.511 85.1387C367.373 92.9987 361.437 109.068 364.249 122.397C365.667 129.116 383.284 135.955 395.677 137.232Z" fill="#F46AA6"/>
<path d="M395.745 92.8026C395.619 96.5333 398.341 99.572 401.905 100.477C407.795 101.973 413.619 95.6533 410.865 89.972C408.896 85.9066 403.945 84.58 400.081 86.4866C397.571 87.7253 395.843 89.92 395.745 92.8026Z" fill="#F78FCC"/>
<path d="M408.753 102.971C408.647 105.108 410.151 106.821 412.147 107.304C415.447 108.103 418.783 104.425 417.288 101.2C416.217 98.892 413.445 98.1813 411.253 99.3107C409.829 100.045 408.836 101.32 408.753 102.971Z" fill="#F78FCC"/>
<path d="M401.628 105.076C401.548 106.301 402.379 107.267 403.497 107.524C405.345 107.948 407.257 105.809 406.447 103.977C405.867 102.665 404.313 102.287 403.069 102.956C402.261 103.391 401.691 104.129 401.628 105.076Z" fill="#F78FCC"/>
<path d="M367.427 116.841C367.256 119.92 369.393 122.373 372.245 123.051C376.96 124.172 381.764 118.849 379.652 114.219C378.14 110.905 374.177 109.907 371.033 111.552C368.988 112.621 367.557 114.464 367.427 116.841Z" fill="#F78FCC"/>
<path d="M346.227 173.756C345.883 172.001 346.319 170.537 347.2 170.488C348.083 170.439 349.079 171.823 349.424 173.576C349.768 175.331 349.332 176.795 348.449 176.844C347.568 176.895 346.572 175.509 346.227 173.756Z" fill="#992953"/>
<path d="M338.776 174.436C338.095 172.727 338.227 171.192 339.069 171.011C339.913 170.828 341.149 172.068 341.829 173.777C342.511 175.487 342.379 177.023 341.536 177.204C340.693 177.385 339.456 176.145 338.776 174.436Z" fill="#992953"/>
<path d="M324.291 223.948C322.537 224.652 320.753 224.644 320.308 223.931C319.864 223.217 320.927 222.065 322.68 221.361C324.433 220.657 326.217 220.665 326.663 221.379C327.107 222.093 326.045 223.244 324.291 223.948Z" fill="#992953"/>
<path d="M315.549 209.557C313.165 209.433 311.148 208.644 311.045 207.796C310.943 206.949 312.795 206.361 315.179 206.485C317.561 206.609 319.58 207.397 319.681 208.245C319.784 209.093 317.932 209.681 315.549 209.557Z" fill="#992953"/>
<path d="M316.071 192.777C313.84 191.931 312.16 190.563 312.323 189.724C312.484 188.885 314.427 188.892 316.659 189.74C318.889 190.587 320.569 191.955 320.408 192.793C320.245 193.632 318.303 193.624 316.071 192.777Z" fill="#992953"/>
<path d="M362.723 243.107C362.575 245.488 361.767 247.499 360.917 247.592C360.069 247.687 359.5 245.829 359.647 243.447C359.795 241.065 360.603 239.055 361.452 238.961C362.3 238.867 362.869 240.724 362.723 243.107Z" fill="#992953"/>
<path d="M430.207 219.547C420.343 200.252 396.615 209.613 391.74 203.961C376.108 185.839 346.493 161.227 324.313 185.575C313.401 197.553 314.964 213.237 326.86 223.877C347.461 242.303 406.333 258.06 428.264 235.653C431.957 231.879 432.787 224.595 430.207 219.547Z" fill="#CA4986" stroke="#992953" stroke-width="5.33333" stroke-miterlimit="3" stroke-linecap="square"/>
<path d="M366.957 221.897C375.5 216.528 385.148 206.095 383.663 200.76C382.229 195.611 377.051 189.661 371.141 185.261C363.252 179.388 354.525 175.525 344.608 176.297C331.656 177.308 323.165 185.419 320.157 196.035C316.681 208.299 323.869 222.031 335.116 229.228C340.783 232.856 357.6 227.78 366.957 221.897Z" fill="#F46AA6"/>
<path d="M330.631 220.104C332.996 222.44 336.784 222.881 339.725 221.589C344.585 219.455 344.272 212.596 338.729 210.561C334.764 209.107 330.632 210.86 329.34 214.017C328.5 216.071 328.803 218.3 330.631 220.104Z" fill="#F78FCC"/>
<path d="M342.981 208.916C344.315 210.272 346.429 210.536 348.061 209.799C350.757 208.579 350.541 204.615 347.439 203.424C346.329 202.999 345.2 203.036 344.263 203.408C343.324 203.78 342.576 204.485 342.225 205.396C341.769 206.579 341.951 207.868 342.981 208.916Z" fill="#F78FCC"/>
<path d="M365.228 210.867C365.979 211.653 367.16 211.812 368.065 211.391C369.561 210.692 369.416 208.401 367.679 207.705C366.436 207.208 365.164 207.78 364.784 208.831C364.537 209.513 364.647 210.259 365.228 210.867Z" fill="#F78FCC"/>
<path d="M350.213 216.636C352.121 218.597 355.14 218.984 357.463 217.923C361.304 216.167 360.973 210.443 356.541 208.716C353.371 207.481 350.107 208.923 349.115 211.551C348.471 213.259 348.739 215.12 350.213 216.636Z" fill="#F78FCC"/>
<path d="M339.539 272.231C338.312 271.096 337.743 269.852 338.268 269.456C338.793 269.06 340.216 269.66 341.443 270.795C342.669 271.931 343.239 273.175 342.713 273.571C342.188 273.967 340.765 273.367 339.539 272.231Z" fill="#992953"/>
<path d="M335.253 275.771C333.841 274.805 333.04 273.635 333.464 273.157C333.889 272.681 335.38 273.079 336.791 274.044C338.203 275.009 339.004 276.18 338.58 276.657C338.155 277.133 336.664 276.736 335.253 275.771Z" fill="#992953"/>
<path d="M354.672 317.709C353.977 318.939 352.852 319.661 352.163 319.324C351.472 318.987 351.476 317.715 352.171 316.487C352.867 315.259 353.992 314.535 354.681 314.872C355.372 315.209 355.368 316.481 354.672 317.709Z" fill="#992953"/>
<path d="M359.557 320.535C358.849 322.192 357.692 323.305 356.977 323.019C356.263 322.731 356.257 321.152 356.967 319.493C357.675 317.835 358.832 316.723 359.547 317.009C360.261 317.296 360.267 318.876 359.557 320.535Z" fill="#992953"/>
<path d="M418.632 271.235C401.329 261.228 391.823 277.732 385.508 275.612C365.257 268.815 332.491 263.007 332.587 289.783C332.635 302.956 342.869 312.641 356.245 316.609C381.421 324.077 427.461 311.513 426.688 283.747C426.569 279.461 423.16 273.853 418.632 271.235Z" fill="#CA4986" stroke="#992953" stroke-width="5.33333" stroke-miterlimit="3" stroke-linecap="square"/>
<path d="M380.389 298.515C382.68 291.116 382.764 279.589 378.809 276.332C374.992 273.189 368.385 271.004 362.201 270.241C353.947 269.225 346.311 270.009 340.564 274.643C333.059 280.693 332.14 290.081 336.517 298.991C341.728 309.597 355.395 315.217 366.495 315.816C372.088 316.117 378.087 305.953 380.389 298.515Z" fill="#F46AA6"/>
<path d="M370.356 286.555C373.187 287.288 375.819 286.061 376.921 283.92C378.744 280.38 374.596 275.519 369.945 276.304C366.617 276.865 365.033 279.828 366.04 282.653C366.696 284.491 368.169 285.989 370.356 286.555Z" fill="#F78FCC"/>
<path d="M368.231 294.879C369.848 295.32 371.329 294.649 371.928 293.445C372.919 291.456 370.5 288.66 367.867 289.063C365.983 289.349 365.12 291.015 365.728 292.627C366.124 293.673 366.981 294.537 368.231 294.879Z" fill="#F78FCC"/>
<path d="M360.752 288.94C361.677 289.205 362.509 288.839 362.835 288.163C363.373 287.043 361.963 285.436 360.472 285.64C359.404 285.785 358.936 286.721 359.301 287.64C359.54 288.237 360.037 288.735 360.752 288.94Z" fill="#F78FCC"/>
<path d="M450.613 169.424C443.06 162.392 429.128 162.885 425.625 173.313C424.293 177.277 424.769 181.131 426.595 184.891C432.537 197.132 454.923 196.875 455.885 182.023C456.208 177.063 454.223 172.784 450.613 169.424Z" fill="#CA4986"/>
<path d="M424.96 212.149C415.431 209.407 403.463 215.94 404.748 226.455C405.236 230.451 407.257 233.56 410.42 235.997C420.712 243.931 440.164 233.893 434.816 220.684C433.031 216.273 429.513 213.459 424.96 212.149Z" fill="#CA4986"/>
<path d="M408.56 272.436C401.145 277.78 399.717 288.472 408.732 291.799C412.157 293.063 415.728 292.937 419.395 291.772C431.329 287.983 434.111 270.836 420.729 269.18C416.261 268.627 412.103 269.881 408.56 272.436Z" fill="#CA4986"/>
<mask id="mask0_132_3" style="mask-type:luminance" maskUnits="userSpaceOnUse" x="0" y="0" width="214" height="131">
<path d="M213.333 0H0V130.735H213.333V0Z" fill="white"/>
</mask>
<g mask="url(#mask0_132_3)">
<path d="M53.2969 95.4062H45.0469V109.609H30.8906V95.4062H1.64062V85.3281L31.6875 41.0781H45.0469V84.1562H53.2969V95.4062ZM30.8906 84.1562V72.5312C30.8906 71.4375 30.9062 70.1406 30.9375 68.6406C31 67.1406 31.0625 65.6406 31.125 64.1406C31.1875 62.6406 31.25 61.3125 31.3125 60.1562C31.4062 58.9688 31.4688 58.1406 31.5 57.6719H31.125C30.5312 58.9531 29.9062 60.2031 29.25 61.4219C28.5938 62.6094 27.8281 63.8594 26.9531 65.1719L14.3906 84.1562H30.8906ZM106.312 75.3438C106.312 80.875 105.875 85.8125 105 90.1562C104.156 94.5 102.781 98.1875 100.875 101.219C99 104.25 96.5312 106.562 93.4688 108.156C90.4062 109.75 86.6875 110.547 82.3125 110.547C76.8125 110.547 72.2969 109.156 68.7656 106.375C65.2344 103.562 62.625 99.5312 60.9375 94.2812C59.25 89 58.4062 82.6875 58.4062 75.3438C58.4062 67.9375 59.1719 61.6094 60.7031 56.3594C62.2656 51.0781 64.7969 47.0312 68.2969 44.2188C71.7969 41.4062 76.4688 40 82.3125 40C87.7812 40 92.2812 41.4062 95.8125 44.2188C99.375 47 102.016 51.0312 103.734 56.3125C105.453 61.5625 106.312 67.9062 106.312 75.3438ZM72.7969 75.3438C72.7969 80.5625 73.0781 84.9219 73.6406 88.4219C74.2344 91.8906 75.2188 94.5 76.5938 96.25C77.9688 98 79.875 98.875 82.3125 98.875C84.7188 98.875 86.6094 98.0156 87.9844 96.2969C89.3906 94.5469 90.3906 91.9375 90.9844 88.4688C91.5781 84.9688 91.875 80.5938 91.875 75.3438C91.875 70.125 91.5781 65.7656 90.9844 62.2656C90.3906 58.7656 89.3906 56.1406 87.9844 54.3906C86.6094 52.6094 84.7188 51.7188 82.3125 51.7188C79.875 51.7188 77.9688 52.6094 76.5938 54.3906C75.2188 56.1406 74.2344 58.7656 73.6406 62.2656C73.0781 65.7656 72.7969 70.125 72.7969 75.3438ZM163.172 95.4062H154.922V109.609H140.766V95.4062H111.516V85.3281L141.562 41.0781H154.922V84.1562H163.172V95.4062ZM140.766 84.1562V72.5312C140.766 71.4375 140.781 70.1406 140.812 68.6406C140.875 67.1406 140.938 65.6406 141 64.1406C141.062 62.6406 141.125 61.3125 141.188 60.1562C141.281 58.9688 141.344 58.1406 141.375 57.6719H141C140.406 58.9531 139.781 60.2031 139.125 61.4219C138.469 62.6094 137.703 63.8594 136.828 65.1719L124.266 84.1562H140.766Z" fill="white"/>
</g>
<path d="M340 88.3333C355.709 88.3333 368.444 76.1953 368.444 61.2222C368.444 46.2492 355.709 34.1111 340 34.1111C324.291 34.1111 311.556 46.2492 311.556 61.2222C311.556 76.1953 324.291 88.3333 340 88.3333Z" fill="#DDF7DB"/>
<path d="M546.667 593C562.376 593 575.111 580.862 575.111 565.889C575.111 550.916 562.376 538.778 546.667 538.778C530.957 538.778 518.222 550.916 518.222 565.889C518.222 580.862 530.957 593 546.667 593Z" fill="#DDF7DB"/>
<path d="M674.444 478.368C695.186 478.368 712 462.342 712 442.573C712 422.804 695.186 406.778 674.444 406.778C653.703 406.778 636.889 422.804 636.889 442.573C636.889 462.342 653.703 478.368 674.444 478.368Z" fill="#DDF7DB"/>
<path d="M63.0383 168.333C75.271 168.333 85.1876 158.882 85.1876 147.222C85.1876 135.563 75.271 126.111 63.0383 126.111C50.8055 126.111 40.8889 135.563 40.8889 147.222C40.8889 158.882 50.8055 168.333 63.0383 168.333Z" fill="#DDF7DB"/>
<path d="M195.778 563.097C204.369 563.097 211.333 556.459 211.333 548.271C211.333 540.082 204.369 533.444 195.778 533.444C187.187 533.444 180.222 540.082 180.222 548.271C180.222 556.459 187.187 563.097 195.778 563.097Z" fill="#DDF7DB"/>
<path d="M540.667 117.667C547.908 117.667 553.778 112.294 553.778 105.667C553.778 99.0393 547.908 93.6667 540.667 93.6667C533.426 93.6667 527.556 99.0393 527.556 105.667C527.556 112.294 533.426 117.667 540.667 117.667Z" fill="#DDF7DB"/>
<path d="M284.279 224.239C291.223 224.239 296.852 218.703 296.852 211.874C296.852 205.046 291.223 199.51 284.279 199.51C277.334 199.51 271.705 205.046 271.705 211.874C271.705 218.703 277.334 224.239 284.279 224.239Z" fill="#DDF7DB"/>
<path d="M350.188 59.7724C354.709 59.7724 358.375 56.0128 358.375 51.375C358.375 46.7372 354.709 42.9775 350.188 42.9775C345.666 42.9775 342 46.7372 342 51.375C342 56.0128 345.666 59.7724 350.188 59.7724Z" fill="white"/>
<path d="M556.854 564.439C561.376 564.439 565.042 560.679 565.042 556.042C565.042 551.404 561.376 547.644 556.854 547.644C552.332 547.644 548.667 551.404 548.667 556.042C548.667 560.679 552.332 564.439 556.854 564.439Z" fill="white"/>
<path d="M687.895 440.659C693.865 440.659 698.705 435.695 698.705 429.571C698.705 423.448 693.865 418.484 687.895 418.484C681.925 418.484 677.085 423.448 677.085 429.571C677.085 435.695 681.925 440.659 687.895 440.659Z" fill="white"/>
<path d="M70.9711 146.093C74.4922 146.093 77.3466 143.166 77.3466 139.554C77.3466 135.943 74.4922 133.015 70.9711 133.015C67.45 133.015 64.5956 135.943 64.5956 139.554C64.5956 143.166 67.45 146.093 70.9711 146.093Z" fill="white"/>
<path d="M201.349 547.478C203.822 547.478 205.827 545.422 205.827 542.886C205.827 540.349 203.822 538.293 201.349 538.293C198.876 538.293 196.872 540.349 196.872 542.886C196.872 545.422 198.876 547.478 201.349 547.478Z" fill="white"/>
<path d="M544.696 105.025C546.78 105.025 548.47 103.361 548.47 101.308C548.47 99.2553 546.78 97.5912 544.696 97.5912C542.612 97.5912 540.922 99.2553 540.922 101.308C540.922 103.361 542.612 105.025 544.696 105.025Z" fill="white"/>
<path d="M311.751 212.619C313.75 212.619 315.37 210.905 315.37 208.79C315.37 206.674 313.75 204.96 311.751 204.96C309.752 204.96 308.131 206.674 308.131 208.79C308.131 210.905 309.752 212.619 311.751 212.619Z" fill="white"/>
<path d="M289.719 211.588C291.718 211.588 293.339 209.873 293.339 207.758C293.339 205.643 291.718 203.929 289.719 203.929C287.721 203.929 286.1 205.643 286.1 207.758C286.1 209.873 287.721 211.588 289.719 211.588Z" fill="white"/>
<path d="M564.667 578.439C566.968 578.439 568.833 576.526 568.833 574.166C568.833 571.805 566.968 569.892 564.667 569.892C562.365 569.892 560.5 571.805 560.5 574.166C560.5 576.526 562.365 578.439 564.667 578.439Z" fill="white"/>
<path d="M698.21 459.143C701.248 459.143 703.711 456.617 703.711 453.501C703.711 450.385 701.248 447.858 698.21 447.858C695.172 447.858 692.709 450.385 692.709 453.501C692.709 456.617 695.172 459.143 698.21 459.143Z" fill="white"/>
<path d="M61.7213 137.662C63.5133 137.662 64.9659 136.172 64.9659 134.334C64.9659 132.496 63.5133 131.006 61.7213 131.006C59.9294 131.006 58.4768 132.496 58.4768 134.334C58.4768 136.172 59.9294 137.662 61.7213 137.662Z" fill="white"/>
<path d="M205.622 555.134C206.88 555.134 207.9 554.088 207.9 552.797C207.9 551.506 206.88 550.46 205.622 550.46C204.363 550.46 203.343 551.506 203.343 552.797C203.343 554.088 204.363 555.134 205.622 555.134Z" fill="white"/>
<path d="M315.204 219.004C316.222 219.004 317.046 218.132 317.046 217.055C317.046 215.979 316.222 215.106 315.204 215.106C314.187 215.106 313.362 215.979 313.362 217.055C313.362 218.132 314.187 219.004 315.204 219.004Z" fill="white"/>
<path d="M277.048 219.098C278.065 219.098 278.89 218.225 278.89 217.149C278.89 216.073 278.065 215.2 277.048 215.2C276.031 215.2 275.206 216.073 275.206 217.149C275.206 218.225 276.031 219.098 277.048 219.098Z" fill="white"/>
</svg>
