<svg width="626" height="664" viewBox="0 0 626 664" fill="none" xmlns="http://www.w3.org/2000/svg">
<g clip-path="url(#clip0_1_552)">
<mask id="mask0_1_552" style="mask-type:luminance" maskUnits="userSpaceOnUse" x="0" y="0" width="626" height="664">
<path d="M625.515 0H0V663.923H625.515V0Z" fill="white"/>
</mask>
<g mask="url(#mask0_1_552)">
<path d="M316.889 501.272C323.761 495.057 331.461 491.516 340.855 490.5C352.161 489.276 362.325 491.955 370.92 498.895C380.401 506.549 381.953 515.985 384.325 528.801C387.06 543.572 385.508 556.967 384.305 572.208C383.52 582.163 381.272 590.451 380.625 600.415C379.747 613.968 398.817 644.713 381.551 638.957C375.271 636.864 370.425 633.655 368.529 626.779C366.347 618.865 369.368 644.213 359.789 645.539C351.152 646.733 346.615 633.585 346.431 628.647C346.201 622.431 340.339 645.696 330.88 645.969C315.164 646.423 327.64 626.956 325.192 616.797C323.389 609.321 321.537 603.076 319.377 595.691C314.905 580.404 310.297 569.161 305.239 552.603C301.559 540.56 301.028 528.829 306.208 516.899C308.845 510.825 311.841 505.835 316.889 501.272Z" fill="#FAC1D2" stroke="#992953" stroke-width="5.33333" stroke-miterlimit="3" stroke-linecap="square"/>
<path d="M320.752 577.213C319.848 573.52 321.917 569.836 325.372 568.989C328.827 568.143 332.367 570.453 333.271 574.147C334.176 577.84 332.105 581.525 328.651 582.371C325.196 583.217 321.657 580.907 320.752 577.213Z" fill="#F680A4"/>
<path d="M332.629 590.205C332.089 588.001 333.537 585.749 335.86 585.181C338.183 584.612 340.507 585.939 341.047 588.143C341.587 590.347 340.139 592.597 337.816 593.167C335.493 593.736 333.169 592.409 332.629 590.205Z" fill="#F680A4"/>
<path d="M337.613 581.085C337.292 579.769 338.299 578.392 339.86 578.009C341.423 577.627 342.952 578.383 343.275 579.699C343.596 581.013 342.589 582.392 341.028 582.775C339.465 583.157 337.936 582.4 337.613 581.085Z" fill="#F680A4"/>
<path d="M333.905 570.416C333.713 569.631 334.409 568.785 335.46 568.528C336.511 568.271 337.519 568.699 337.712 569.484C337.904 570.268 337.207 571.115 336.157 571.372C335.107 571.629 334.097 571.2 333.905 570.416Z" fill="#F680A4"/>
<path d="M298.205 565.249C283.133 554.908 281.963 530.383 295.593 510.515C309.224 490.648 332.528 482.913 347.6 493.255C362.673 503.595 363.844 528.121 350.213 547.989C336.583 567.856 313.279 575.591 298.205 565.249Z" fill="#FAC1D2"/>
<path d="M428.805 155.817C444.112 162.775 453.099 175.161 463.428 188.612C490.917 224.408 492.34 266.649 494.42 311.736C497.791 384.781 481.325 449.391 438.595 507.704C412.392 543.461 383.287 568.155 345.192 588.837C264.816 632.477 172.889 652.333 97.1813 595.137C32.232 546.071 2.51996 468.123 14.6626 384.82C18.0093 361.861 19.916 340.884 33.2613 321.872C82.044 252.379 51.6266 455.971 132.819 477.157C172.173 487.428 196.743 479.547 220.971 458.705C277.384 410.183 236.841 305.404 280.231 221.985C290.504 202.236 316.668 194.531 338.539 183.601C368.537 168.611 396.04 140.923 428.805 155.817Z" fill="#F391A8" stroke="#992953" stroke-width="8" stroke-miterlimit="3" stroke-linecap="square"/>
<path d="M381.208 192.991C427.788 201.817 443.555 247.339 453.724 289.112C461.165 319.673 459.631 350.876 453.401 381.276C444.56 424.423 434.101 463.753 405.951 499.841C379.332 533.967 348.328 556.629 307.899 573.777C241.1 602.112 166.403 618.572 103.219 576.148C51.6773 541.541 28.5826 487.864 27.1759 427.905C26.8986 416.107 26.0439 405.852 29.3799 394.439C44.4906 342.739 67.2479 483.068 114.651 496.045C167.165 510.421 215.541 489.101 249.961 451.195C293.545 403.192 260.109 322.925 281.427 255.461C292.188 221.408 310.888 201.835 342.457 193.871C355.743 190.52 367.725 190.436 381.208 192.991Z" fill="#FAC1D2"/>
<path d="M314.755 215.649C310.979 220.964 315.225 227.447 320.744 228.732C325.087 229.744 330.037 227.895 331.752 223.316C333.857 217.693 329.101 212.943 323.852 212.199C320.439 211.715 316.923 212.596 314.755 215.649Z" fill="#F680A4"/>
<path d="M74.4333 530.124C71.2973 535.891 75.9693 543.903 81.3867 546.012C85.6507 547.671 90.2347 546.068 91.46 540.929C92.964 534.621 87.9613 528.565 82.852 527.117C79.5293 526.176 76.2347 526.812 74.4333 530.124Z" fill="#F680A4"/>
<path d="M101.639 548.269C96.2907 557.581 103.816 570.231 112.733 573.424C119.752 575.937 127.387 573.231 129.553 564.983C132.213 554.857 124.087 545.345 115.663 543.196C110.185 541.799 104.712 542.92 101.639 548.269Z" fill="#F680A4"/>
<path d="M97.9106 529.231C95.7786 533.009 98.8346 538.179 102.429 539.503C105.259 540.544 108.325 539.461 109.18 536.109C110.228 531.993 106.937 528.099 103.543 527.203C101.336 526.619 99.136 527.061 97.9106 529.231Z" fill="#F680A4"/>
<path d="M37.2081 350.721C30.4561 353.449 27.9081 365.372 30.4094 372.28C32.3774 377.716 37.0627 380.3 41.8921 376.456C47.8214 371.736 48.6321 361.4 45.8641 355.405C44.0641 351.508 41.0881 349.153 37.2081 350.721Z" fill="#FDE6EF"/>
<path d="M44.1693 337.935C40.872 338.768 40.0453 343.605 41.5707 346.583C42.7707 348.927 45.2307 350.207 47.5173 348.825C50.324 347.128 50.336 342.873 48.7107 340.263C47.6547 338.565 46.064 337.456 44.1693 337.935Z" fill="#FDE6EF"/>
<path d="M38.8573 339.003C38.3427 337.317 36.5253 337.517 35.5347 338.749C34.7547 339.719 34.444 341.231 35.0933 342.291C35.8907 343.591 37.4453 343.025 38.296 341.789C38.848 340.985 39.152 339.971 38.8573 339.003Z" fill="#FDE6EF"/>
<path d="M402.733 448.72C402.192 449.535 402.845 450.565 403.669 450.789C404.317 450.967 405.047 450.699 405.285 449.989C405.579 449.12 404.855 448.357 404.072 448.219C403.564 448.128 403.045 448.252 402.733 448.72Z" fill="#F680A4"/>
<path d="M390.288 470.331C390.227 473.967 392.987 473.896 395.032 471.5C396.641 469.615 397.827 466.497 397.387 464.148C396.847 461.264 394.297 462.153 392.456 464.587C391.259 466.168 390.323 468.243 390.288 470.331Z" fill="#F680A4"/>
<path d="M370.993 496.376C369.712 498.243 371.205 500.564 373.117 501.048C374.623 501.428 376.325 500.797 376.899 499.181C377.603 497.197 375.94 495.488 374.123 495.197C372.941 495.009 371.731 495.304 370.993 496.376Z" fill="#F680A4"/>
<path d="M401.641 456.237C400.36 458.104 401.853 460.425 403.765 460.908C405.271 461.289 406.973 460.659 407.547 459.043C408.251 457.059 406.588 455.349 404.771 455.059C403.589 454.871 402.379 455.165 401.641 456.237Z" fill="#F680A4"/>
<path d="M382.532 502.679C386.611 510.257 395.739 507.527 399.745 500.659C402.897 495.252 403.187 487.696 398.951 483.248C393.751 477.785 386.288 482.012 383.005 488.768C380.869 493.16 380.189 498.325 382.532 502.679Z" fill="#F680A4"/>
<path d="M398.909 473.339C395.879 477.616 399.295 482.839 403.732 483.879C407.224 484.696 411.203 483.212 412.577 479.525C414.267 475 410.44 471.171 406.22 470.567C403.476 470.175 400.651 470.881 398.909 473.339Z" fill="#F680A4"/>
<path d="M316.628 233.101C315.705 234.389 316.733 235.951 318.075 236.256C319.131 236.497 320.336 236.045 320.756 234.939C321.272 233.579 320.119 232.435 318.843 232.26C318.013 232.147 317.157 232.363 316.628 233.101Z" fill="#F680A4"/>
<path d="M302.019 229.14C300.153 231.756 302.243 234.939 304.963 235.565C307.104 236.059 309.547 235.145 310.396 232.893C311.437 230.128 309.096 227.797 306.508 227.436C304.825 227.201 303.091 227.637 302.019 229.14Z" fill="#F680A4"/>
<path d="M226.125 505.388C234.243 500.923 242.552 499.248 251.927 500.42C263.211 501.831 272.485 506.777 279.253 515.508C286.719 525.14 286.057 534.68 285.417 547.697C284.679 562.701 280.087 575.38 275.409 589.935C272.353 599.441 268.257 606.989 265.336 616.537C261.363 629.525 272.845 663.833 257.367 654.259C251.737 650.776 247.76 646.539 247.497 639.409C247.195 631.207 244.301 656.569 234.675 655.655C225.995 654.831 224.604 640.991 225.563 636.143C226.769 630.041 215.709 651.333 206.443 649.421C191.044 646.247 207.665 630.173 207.62 619.724C207.587 612.033 207.221 605.529 206.819 597.845C205.985 581.94 204.088 569.939 202.975 552.66C202.165 540.095 204.348 528.556 212.135 518.139C216.099 512.833 220.164 508.667 226.125 505.388Z" fill="#FAC1D2" stroke="#992953" stroke-width="5.33333" stroke-miterlimit="3" stroke-linecap="square"/>
<path d="M252.612 529.839C251.377 524.585 254.932 519.251 260.544 517.932C266.156 516.615 271.713 519.809 272.947 525.063C274.181 530.316 270.627 535.652 265.015 536.969C259.403 538.288 253.845 535.092 252.612 529.839Z" fill="#F680A4"/>
<path d="M252.612 529.839C251.377 524.585 254.932 519.251 260.544 517.932C266.156 516.615 271.713 519.809 272.947 525.063C274.181 530.316 270.627 535.652 265.015 536.969C259.403 538.288 253.845 535.092 252.612 529.839Z" fill="#F680A4"/>
<path d="M251.968 548.48C251.155 545.017 253.403 541.523 256.984 540.681C260.567 539.84 264.135 541.969 264.948 545.431C265.761 548.893 263.513 552.388 259.932 553.229C256.349 554.071 252.781 551.943 251.968 548.48Z" fill="#F680A4"/>
<path d="M242.287 536.461C241.751 534.179 243.172 531.889 245.459 531.353C247.745 530.816 250.036 532.232 250.572 534.515C251.108 536.797 249.688 539.085 247.401 539.623C245.115 540.16 242.823 538.743 242.287 536.461Z" fill="#F680A4"/>
<path d="M242.725 491.144C262.561 482.175 287.364 494.128 298.077 517.821C308.792 541.515 301.385 568.033 281.549 577.004C261.713 585.973 236.911 574.02 226.196 550.325C215.483 526.632 222.888 500.115 242.725 491.144Z" fill="#FAC1D2"/>
<path d="M536.179 19.1667C535.197 17.5293 533.853 16.5693 533.181 17.024C532.508 17.4773 532.76 19.1747 533.741 20.812C534.724 22.448 536.067 23.408 536.74 22.9533C537.412 22.5 537.161 20.8027 536.179 19.1667Z" fill="#992953"/>
<path d="M542.045 15.5467C541.337 13.76 540.164 12.5707 539.427 12.8933C538.691 13.2173 538.667 14.9307 539.373 16.7187C540.081 18.5067 541.255 19.6947 541.992 19.372C542.729 19.0493 542.753 17.3347 542.045 15.5467Z" fill="#992953"/>
<path d="M587.272 48.1547C589.035 47.7507 590.32 46.744 590.14 45.9067C589.961 45.0707 588.385 44.7187 586.623 45.124C584.861 45.528 583.576 46.5347 583.755 47.372C583.935 48.208 585.511 48.5587 587.272 48.1547Z" fill="#992953"/>
<path d="M589.081 54.1973C591.381 53.8987 593.159 52.9667 593.051 52.1173C592.943 51.268 590.988 50.8213 588.689 51.12C586.391 51.4187 584.612 52.3507 584.72 53.2C584.828 54.0493 586.783 54.496 589.081 54.1973Z" fill="#992953"/>
<path d="M507.593 103.933C501.183 82.5293 524.912 76.9227 524.469 69.54C523.053 45.864 527.192 9.00799 560.321 16.5987C576.62 20.3333 583.14 34.196 585.365 49.5373C589.915 80.8987 550.443 113.879 520.304 116.093C514.928 116.489 509.271 109.533 507.593 103.933Z" fill="#CA4986" stroke="#992953" stroke-width="5.33333" stroke-miterlimit="3" stroke-linecap="square"/>
<path d="M555.656 67.212C546.152 67.5933 532.5 64.716 529.967 59.9027C527.523 55.2587 527.137 48.0587 528.295 41.652C529.84 33.0987 533.308 25.632 540.697 21.0547C550.345 15.0787 561.645 16.8 570.817 23.272C581.415 30.7493 585.603 44.8867 582.615 56.1893C581.109 61.8853 566.068 66.7947 555.656 67.212Z" fill="#F46AA6"/>
<path d="M556.773 28.9947C556.703 32.2427 554.273 34.7293 551.24 35.316C546.225 36.2867 541.639 30.468 544.219 25.6867C546.065 22.264 550.283 21.3907 553.435 23.2627C555.483 24.4813 556.829 26.484 556.773 28.9947Z" fill="#F78FCC"/>
<path d="M545.373 37.0987C545.361 38.9627 544.019 40.3667 542.32 40.6733C539.513 41.1827 536.888 37.8 538.296 35.0813C539.304 33.136 541.664 32.6747 543.449 33.7787C544.611 34.4973 545.383 35.66 545.373 37.0987Z" fill="#F78FCC"/>
<path d="M551.253 39.328C551.263 40.3973 550.52 41.1893 549.569 41.3493C547.997 41.6146 546.495 39.6493 547.261 38.1026C547.811 36.996 549.132 36.7533 550.144 37.4053C550.803 37.828 551.247 38.5027 551.253 39.328Z" fill="#F78FCC"/>
<path d="M579.399 51.308C579.396 53.9907 577.485 56.0027 575.06 56.432C571.049 57.1413 567.271 52.2467 569.264 48.3427C570.691 45.548 574.063 44.9027 576.624 46.508C578.288 47.5533 579.401 49.2333 579.399 51.308Z" fill="#F78FCC"/>
<path d="M594.523 100.799C594.873 99.08 594.555 97.588 593.812 97.4707C593.069 97.352 592.183 98.652 591.833 100.372C591.483 102.091 591.801 103.581 592.544 103.7C593.287 103.817 594.173 102.517 594.523 100.799Z" fill="#992953"/>
<path d="M600.784 102.056C601.416 100.408 601.356 98.8693 600.652 98.6226C599.947 98.376 598.863 99.5146 598.231 101.163C597.599 102.811 597.659 104.349 598.363 104.595C599.068 104.841 600.153 103.704 600.784 102.056Z" fill="#992953"/>
<path d="M611.329 152.455C612.784 153.292 614.289 153.424 614.689 152.748C615.088 152.072 614.231 150.844 612.776 150.007C611.321 149.169 609.816 149.039 609.416 149.715C609.017 150.391 609.875 151.619 611.329 152.455Z" fill="#992953"/>
<path d="M608.796 157.659C610.552 158.904 612.348 159.397 612.803 158.757C613.259 158.117 612.203 156.587 610.447 155.341C608.692 154.096 606.896 153.603 606.44 154.243C605.985 154.883 607.04 156.413 608.796 157.659Z" fill="#992953"/>
<path d="M522.149 139.835C531.119 121.401 550.816 132.563 555.117 127.317C568.913 110.499 594.721 88.3093 612.607 114.265C621.405 127.035 617.212 140.464 609.165 152.185C592.715 176.147 548.445 174.891 523.244 156.015C519.239 153.013 519.803 144.657 522.149 139.835Z" fill="#CA4986" stroke="#992953" stroke-width="5.33333" stroke-miterlimit="3" stroke-linecap="square"/>
<path d="M575.632 147.257C568.757 141.371 561.152 130.447 562.575 125.333C563.947 120.4 568.448 114.959 573.499 111.088C580.24 105.923 587.601 102.785 595.781 104.275C606.463 106.22 613.195 114.787 615.3 125.399C617.731 137.661 611.284 150.571 601.716 156.785C596.895 159.917 583.163 153.707 575.632 147.257Z" fill="#F46AA6"/>
<path d="M602.455 120.371C600.381 122.512 597.171 122.656 594.735 121.141C590.707 118.639 591.203 111.837 595.947 110.244C599.34 109.104 602.765 111.171 603.749 114.413C604.388 116.523 604.057 118.717 602.455 120.371Z" fill="#F78FCC"/>
<path d="M589.618 118.649C588.448 119.895 586.656 119.995 585.304 119.132C583.071 117.708 583.387 113.78 586.044 112.837C587.946 112.163 589.846 113.339 590.375 115.205C590.719 116.419 590.523 117.687 589.618 118.649Z" fill="#F78FCC"/>
<path d="M592.243 123.848C591.581 124.573 590.581 124.64 589.832 124.149C588.593 123.339 588.793 121.071 590.281 120.513C591.347 120.113 592.4 120.783 592.684 121.857C592.869 122.556 592.752 123.288 592.243 123.848Z" fill="#F78FCC"/>
<path d="M603.988 149.621C602.312 151.424 599.753 151.575 597.829 150.337C594.649 148.291 595.121 142.62 598.917 141.248C601.633 140.265 604.339 141.953 605.085 144.645C605.571 146.396 605.283 148.228 603.988 149.621Z" fill="#F78FCC"/>
<path d="M596.84 199.32C597.912 198.285 598.435 197.092 598.005 196.656C597.576 196.221 596.356 196.708 595.283 197.743C594.209 198.776 593.688 199.969 594.117 200.405C594.547 200.84 595.767 200.355 596.84 199.32Z" fill="#992953"/>
<path d="M600.335 203.176C601.557 202.324 602.273 201.221 601.932 200.715C601.589 200.207 600.319 200.487 599.096 201.337C597.873 202.188 597.157 203.291 597.499 203.799C597.841 204.305 599.112 204.027 600.335 203.176Z" fill="#992953"/>
<path d="M582.541 243.401C583.085 244.677 584.009 245.485 584.604 245.203C585.197 244.921 585.236 243.655 584.692 242.379C584.147 241.101 583.223 240.295 582.629 240.576C582.035 240.859 581.996 242.124 582.541 243.401Z" fill="#992953"/>
<path d="M578.325 245.832C578.867 247.537 579.805 248.735 580.417 248.505C581.031 248.275 581.088 246.703 580.547 244.997C580.004 243.292 579.067 242.095 578.453 242.325C577.841 242.555 577.783 244.127 578.325 245.832Z" fill="#992953"/>
<path d="M530.167 192.175C545.097 183.561 552.557 200.725 557.955 199.108C575.264 193.917 603.096 190.688 602.111 217.327C601.625 230.433 592.285 237.821 581.252 242.183C558.697 251.1 535.476 235.123 522.949 203.999C521.401 200.153 526.26 194.428 530.167 192.175Z" fill="#CA4986" stroke="#992953" stroke-width="5.33333" stroke-miterlimit="3" stroke-linecap="square"/>
<path d="M561.548 222.452C559.899 214.959 560.287 203.535 563.803 200.588C567.195 197.744 572.935 196.048 578.255 195.731C585.356 195.309 591.855 196.627 596.583 201.625C602.755 208.152 602.966 217.481 599.052 226.035C594.531 235.916 583.744 241.981 574.227 241.787C569.43 241.688 563.354 230.661 561.548 222.452Z" fill="#F46AA6"/>
<path d="M592.449 216.765C590.037 217.275 587.859 215.849 587.001 213.632C585.584 209.968 589.245 205.453 593.141 206.596C595.929 207.413 597.165 210.485 596.22 213.219C595.607 214.996 594.312 216.372 592.449 216.765Z" fill="#F78FCC"/>
<path d="M584.864 209.459C583.484 209.772 582.259 208.989 581.793 207.744C581.025 205.687 583.16 203.093 585.367 203.699C586.947 204.131 587.617 205.856 587.049 207.412C586.681 208.424 585.929 209.216 584.864 209.459Z" fill="#F78FCC"/>
<path d="M584.036 214.339C583.248 214.531 582.558 214.101 582.307 213.403C581.891 212.247 583.135 210.757 584.386 211.076C585.28 211.303 585.644 212.272 585.304 213.157C585.083 213.733 584.647 214.189 584.036 214.339Z" fill="#F78FCC"/>
<path d="M579.109 237.929C577.125 238.392 575.371 237.281 574.715 235.501C573.629 232.56 576.72 228.823 579.887 229.668C582.152 230.273 583.1 232.74 582.271 234.976C581.731 236.429 580.644 237.572 579.109 237.929Z" fill="#F78FCC"/>
<path d="M417.004 283.935C344.196 280.853 239.228 286.5 226.477 208.332C212.945 125.376 283.428 45.0107 363.072 39.7707C455.776 33.672 552.637 98.8413 541.283 190.956C533.759 251.996 476.76 286.465 417.004 283.935Z" fill="#FAC1D2" stroke="#992953" stroke-width="8" stroke-miterlimit="3" stroke-linecap="square"/>
<path d="M297.971 79.1453C300.071 87.304 310.296 85.824 316.82 82.7573C321.883 80.3773 326.653 76.404 325.997 70.5187C324.9 60.6707 312.096 61.936 305.127 66.356C300.595 69.2307 296.553 73.6413 297.971 79.1453Z" fill="#FDE6EF"/>
<path d="M294.969 174.892C290.435 184.624 301.263 192.783 309.867 195.969C316.544 198.441 324.219 199.124 328.3 192.908C335.129 182.504 322.04 171.728 311.933 169.413C305.363 167.909 298.028 168.327 294.969 174.892Z" fill="#F680A4"/>
<path d="M479.452 193.743C483.493 201.541 494.78 199.709 501.549 196.491C506.803 193.992 511.401 189.967 509.459 184.307C506.207 174.835 491.955 176.561 484.956 181.105C480.405 184.06 476.724 188.481 479.452 193.743Z" fill="#F680A4"/>
<path d="M328.049 170.5C337.661 175.217 346.903 168.332 350.305 159.047C354.549 147.464 347.632 129.153 335.335 130.087C319.999 131.251 315.357 141.825 317.855 156.692C318.572 160.964 322.553 167.804 328.049 170.5Z" fill="#992953"/>
<path d="M468.223 178.401C478.155 182.681 485.38 177.761 489.04 168.705C493.715 157.136 487.584 139.708 475.239 140.275C459.755 140.988 458.467 153.581 458.895 164.073C459.635 171.209 463.088 176.188 468.223 178.401Z" fill="#992953"/>
<path d="M299.967 91.92C300.364 94.5693 302.964 96.6787 305.953 97.2587C310.895 98.2173 314.737 93.6293 311.761 89.6453C309.631 86.7947 305.467 85.9413 302.612 87.3613C300.757 88.2853 299.66 89.8733 299.967 91.92Z" fill="#FDE6EF"/>
<path d="M288.256 82.176C288.38 83.5693 289.593 84.62 291.036 84.848C293.421 85.2267 295.416 82.6947 294.068 80.6613C293.104 79.2067 291.096 78.8627 289.667 79.6907C288.737 80.228 288.16 81.0987 288.256 82.176Z" fill="#FDE6EF"/>
<path d="M298.148 161.807C298.272 163.201 299.484 164.251 300.927 164.48C303.312 164.859 305.307 162.325 303.959 160.292C302.995 158.837 300.987 158.493 299.557 159.321C298.628 159.86 298.051 160.729 298.148 161.807Z" fill="#F680A4"/>
<path d="M510.396 183.807C510.521 185.2 511.733 186.251 513.176 186.479C515.561 186.857 517.556 184.325 516.208 182.292C515.244 180.837 513.236 180.493 511.807 181.321C510.877 181.859 510.3 182.729 510.396 183.807Z" fill="#F680A4"/>
<path d="M509.101 171.535C509.187 172.24 509.84 172.787 510.604 172.923C511.867 173.147 512.883 171.896 512.144 170.851C511.616 170.103 510.552 169.901 509.811 170.3C509.328 170.559 509.036 170.989 509.101 171.535Z" fill="#F680A4"/>
<path d="M280.311 170.033C280.44 173.083 282.832 175.279 285.772 175.652C290.629 176.269 294.948 170.529 292.367 166.185C290.52 163.077 286.432 162.503 283.425 164.448C281.471 165.713 280.209 167.677 280.311 170.033Z" fill="#F680A4"/>
<path d="M493.111 203.6C493.173 205.472 494.609 206.807 496.387 207.02C499.324 207.373 501.968 203.828 500.428 201.175C499.327 199.277 496.855 198.945 495.025 200.156C493.836 200.943 493.061 202.155 493.111 203.6Z" fill="#F680A4"/>
<path d="M321.368 202.4C321.488 203.324 322.36 204.047 323.375 204.232C325.049 204.539 326.384 202.912 325.393 201.536C324.685 200.552 323.275 200.277 322.295 200.791C321.659 201.125 321.276 201.687 321.368 202.4Z" fill="#F680A4"/>
<path d="M463.151 152.843C463.331 156.096 465.959 158.467 469.159 158.903C474.447 159.624 479.065 153.56 476.204 148.896C474.156 145.559 469.705 144.893 466.464 146.929C464.356 148.253 463.011 150.329 463.151 152.843Z" fill="#FDE6EF"/>
<path d="M323.113 144.631C323.295 148.08 326.063 150.588 329.439 151.04C335.019 151.789 339.913 145.345 336.907 140.407C334.755 136.873 330.057 136.181 326.629 138.349C324.4 139.76 322.973 141.965 323.113 144.631Z" fill="#FDE6EF"/>
<path d="M320.405 88.108C320.779 90.5533 323.452 91.9547 325.961 93.0467C334.399 96.72 338.044 85.2173 336.072 81.2267C334.621 78.288 326.001 80.7627 322.847 83.9067C321.604 85.144 320.116 86.2173 320.405 88.108Z" fill="#FDE6EF"/>
<path d="M464.243 85.6573C467.728 90.7173 481.843 90.46 478.477 85.2493C476.795 82.644 471.824 83.6187 470.797 81.232C470.041 79.4747 467.219 76.4987 464.395 77.136C460.383 78.0413 462.305 82.8453 464.243 85.6573Z" fill="#FDE6EF"/>
<path d="M273.403 90.512C273.069 101.495 272.541 109.939 271.819 115.844C269.207 137.191 254.816 152.957 255.855 174.719C256.825 195.024 264.212 211.332 274.839 228.507C283.352 242.265 299.879 257.928 324.417 275.496C289.62 271.487 265.764 262.91 252.848 249.765C239.881 236.568 233.081 221.652 229.079 203.665C223.209 177.289 228.512 153.324 240.899 129.507C246.428 118.876 257.262 105.877 273.403 90.512Z" fill="#F391A8"/>
<path d="M420.12 219.044C420.876 218.023 417.832 219.4 415.719 220.241C409.888 222.563 408.197 223.771 404.161 223.984C399.043 224.253 392.465 220.139 391.415 219.679C390.363 219.22 388.568 217.953 386.744 219.023C384.253 220.485 388.515 220.044 389.493 220.564C394.383 223.164 398.101 226.853 404.219 226.428C408.545 226.127 412.456 224.916 416.528 222.044C417.853 221.109 419.015 220.537 420.12 219.044Z" fill="#992953"/>
<path d="M236.18 11.4506C237.265 9.53064 238.813 8.37198 239.636 8.86398C240.459 9.35598 240.245 11.3146 239.161 13.2346C238.076 15.1546 236.527 16.3133 235.704 15.8213C234.883 15.3293 235.095 13.3706 236.18 11.4506Z" fill="#992953"/>
<path d="M229.023 7.55064C229.773 5.46798 231.108 4.05331 232.001 4.39331C232.893 4.73198 233.008 6.69731 232.257 8.77998C231.507 10.8613 230.172 12.276 229.279 11.9373C228.387 11.5973 228.271 9.63198 229.023 7.55064Z" fill="#992953"/>
<path d="M176.897 46.9067C174.781 46.5187 173.203 45.4187 173.373 44.4507C173.544 43.4827 175.401 43.0133 177.516 43.4013C179.632 43.7893 181.211 44.8893 181.04 45.8573C180.869 46.8253 179.012 47.296 176.897 46.9067Z" fill="#992953"/>
<path d="M175.052 53.9187C172.303 53.6747 170.141 52.6813 170.228 51.7027C170.313 50.7227 172.615 50.1267 175.363 50.3707C178.112 50.6147 180.273 51.608 180.187 52.5867C180.101 53.5653 177.8 54.1627 175.052 53.9187Z" fill="#992953"/>
<path d="M274.452 107.491C280.992 82.656 252.496 77.2413 252.648 68.7506C253.136 41.524 246.352 -0.590689 207.347 9.54131C188.156 14.5266 178.348 30.6426 179.235 48.412C180.583 75.432 222.791 123.988 262.345 119.133C268.719 118.352 272.74 113.989 274.452 107.491Z" fill="#CA4986" stroke="#992953" stroke-width="5.33333" stroke-miterlimit="3" stroke-linecap="square"/>
<path d="M216.584 67.824C227.956 67.848 244.119 63.9106 246.903 58.216C249.589 52.7213 249.791 43.9 247.908 36.3106C245.525 26.7053 240.987 18.492 232.133 13.6226C220.305 7.11731 206.895 9.60664 196.264 17.5173C183.981 26.656 179.689 43.24 183.825 56.2213C185.911 62.7626 204.125 67.7973 216.584 67.824Z" fill="#F46AA6"/>
<path d="M212.191 23.612C212.439 27.336 215.453 30.0866 219.089 30.6293C225.1 31.5266 230.26 24.6533 226.951 19.2773C224.583 15.4306 219.523 14.608 215.871 16.8933C213.497 18.3773 211.999 20.7346 212.191 23.612Z" fill="#F78FCC"/>
<path d="M226.155 32.4226C226.263 34.56 227.931 36.1133 229.965 36.3946C233.328 36.8573 236.279 32.864 234.467 29.804C233.171 27.6146 230.34 27.1866 228.273 28.5306C226.931 29.4053 226.071 30.772 226.155 32.4226Z" fill="#F78FCC"/>
<path d="M219.276 35.2333C219.32 36.46 220.243 37.3373 221.381 37.4813C223.263 37.7173 224.951 35.3973 223.96 33.656C223.251 32.4093 221.668 32.188 220.497 32.9787C219.737 33.492 219.243 34.2853 219.276 35.2333Z" fill="#F78FCC"/>
<path d="M186.428 50.3733C186.568 53.4533 188.941 55.68 191.847 56.068C196.651 56.7093 200.896 50.932 198.329 46.536C196.492 43.3907 192.45 42.796 189.486 44.748C187.559 46.0173 186.32 47.9947 186.428 50.3733Z" fill="#F78FCC"/>
<path d="M171.052 109.129C170.532 107.417 170.82 105.917 171.692 105.779C172.564 105.641 173.695 106.919 174.213 108.629C174.733 110.34 174.445 111.841 173.573 111.979C172.7 112.116 171.571 110.84 171.052 109.129Z" fill="#992953"/>
<path d="M163.705 110.555C162.857 108.921 162.835 107.381 163.655 107.116C164.475 106.851 165.831 107.96 166.679 109.592C167.528 111.224 167.551 112.765 166.731 113.031C165.909 113.296 164.555 112.187 163.705 110.555Z" fill="#992953"/>
<path d="M154.267 161.269C152.593 162.147 150.816 162.317 150.303 161.652C149.788 160.987 150.729 159.735 152.403 158.859C154.077 157.983 155.853 157.811 156.368 158.476C156.881 159.141 155.94 160.393 154.267 161.269Z" fill="#992953"/>
<path d="M144.124 147.829C141.74 147.945 139.653 147.364 139.465 146.531C139.279 145.697 141.063 144.927 143.447 144.811C145.831 144.695 147.917 145.276 148.104 146.109C148.291 146.943 146.507 147.713 144.124 147.829Z" fill="#992953"/>
<path d="M142.959 131.083C140.653 130.464 138.844 129.271 138.921 128.42C138.999 127.571 140.932 127.383 143.237 128.001C145.543 128.62 147.351 129.812 147.273 130.663C147.197 131.513 145.263 131.701 142.959 131.083Z" fill="#992953"/>
<path d="M194.428 176.473C194.52 178.857 193.917 180.939 193.083 181.117C192.248 181.296 191.495 179.505 191.401 177.12C191.309 174.736 191.912 172.655 192.747 172.476C193.581 172.297 194.335 174.088 194.428 176.473Z" fill="#992953"/>
<path d="M259.204 146.255C247.453 128.049 224.785 139.745 219.368 134.612C201.995 118.151 170.059 96.636 150.435 123.088C140.781 136.101 143.911 151.549 156.815 160.941C179.163 177.205 239.319 186.971 258.889 162.476C262.185 158.349 262.279 151.019 259.204 146.255Z" fill="#CA4986" stroke="#992953" stroke-width="5.33333" stroke-miterlimit="3" stroke-linecap="square"/>
<path d="M196.512 154.945C204.471 148.745 213.023 137.396 211.009 132.237C209.067 127.259 203.317 121.859 196.995 118.075C188.556 113.023 179.485 110.056 169.696 111.821C156.911 114.125 149.277 123.049 147.351 133.913C145.124 146.464 153.655 159.405 165.567 165.436C171.569 168.476 187.791 161.737 196.512 154.945Z" fill="#F46AA6"/>
<path d="M160.188 156.809C162.776 158.896 166.589 158.955 169.385 157.373C174.008 154.761 173.007 147.968 167.288 146.501C163.196 145.452 159.261 147.611 158.292 150.883C157.663 153.009 158.188 155.197 160.188 156.809Z" fill="#F78FCC"/>
<path d="M171.352 144.437C172.815 145.652 174.945 145.704 176.495 144.805C179.056 143.32 178.443 139.399 175.236 138.525C174.089 138.213 172.971 138.364 172.075 138.828C171.177 139.292 170.504 140.069 170.247 141.011C169.912 142.235 170.223 143.499 171.352 144.437Z" fill="#F78FCC"/>
<path d="M193.683 144.144C194.509 144.852 195.7 144.891 196.557 144.38C197.976 143.536 197.603 141.272 195.804 140.753C194.517 140.383 193.309 141.08 193.037 142.163C192.86 142.867 193.044 143.597 193.683 144.144Z" fill="#F78FCC"/>
<path d="M179.323 151.392C181.419 153.152 184.46 153.235 186.665 151.944C190.311 149.811 189.407 144.149 184.825 142.877C181.545 141.967 178.443 143.728 177.72 146.443C177.251 148.207 177.704 150.032 179.323 151.392Z" fill="#F78FCC"/>
<path d="M174.285 207.779C172.951 206.772 172.26 205.592 172.743 205.144C173.225 204.697 174.701 205.152 176.035 206.159C177.369 207.164 178.061 208.345 177.579 208.792C177.096 209.239 175.62 208.785 174.285 207.779Z" fill="#992953"/>
<path d="M170.376 211.731C168.875 210.912 167.96 209.827 168.335 209.311C168.709 208.793 170.232 209.039 171.733 209.857C173.235 210.676 174.149 211.761 173.776 212.277C173.401 212.795 171.877 212.549 170.376 211.731Z" fill="#992953"/>
<path d="M193.909 251.507C193.341 252.799 192.295 253.632 191.573 253.365C190.853 253.099 190.729 251.833 191.297 250.541C191.867 249.249 192.913 248.416 193.633 248.683C194.355 248.949 194.477 250.215 193.909 251.507Z" fill="#992953"/>
<path d="M199.053 253.827C198.515 255.548 197.476 256.771 196.736 256.557C195.995 256.344 195.832 254.772 196.371 253.052C196.909 251.331 197.948 250.107 198.688 250.321C199.429 250.535 199.592 252.105 199.053 253.827Z" fill="#992953"/>
<path d="M252.879 198.845C234.659 190.625 226.857 208.001 220.363 206.527C199.531 201.796 166.347 199.308 169.132 225.939C170.501 239.04 181.656 247.649 195.363 250.253C221.163 255.157 265.708 238.032 262.151 210.484C261.601 206.232 257.647 200.996 252.879 198.845Z" fill="#CA4986" stroke="#992953" stroke-width="5.33333" stroke-miterlimit="3" stroke-linecap="square"/>
<path d="M217.569 229.827C219.105 222.236 218.031 210.759 213.769 207.915C209.656 205.171 202.863 203.66 196.633 203.523C188.319 203.34 180.8 204.887 175.547 210.075C168.688 216.849 168.717 226.281 173.967 234.705C180.216 244.735 194.377 248.955 205.481 248.436C211.077 248.173 216.024 237.459 217.569 229.827Z" fill="#F46AA6"/>
<path d="M206.385 218.935C209.275 219.38 211.771 217.895 212.653 215.653C214.111 211.949 209.496 207.529 204.948 208.776C201.692 209.669 200.415 212.777 201.7 215.487C202.536 217.249 204.152 218.591 206.385 218.935Z" fill="#F78FCC"/>
<path d="M205.107 227.429C206.76 227.707 208.165 226.891 208.641 225.633C209.427 223.553 206.74 221.016 204.16 221.68C202.315 222.155 201.624 223.899 202.391 225.44C202.889 226.443 203.828 227.216 205.107 227.429Z" fill="#F78FCC"/>
<path d="M197.069 222.272C198.016 222.444 198.808 221.996 199.064 221.289C199.487 220.123 197.921 218.664 196.459 219.016C195.412 219.268 195.039 220.247 195.496 221.125C195.792 221.696 196.337 222.14 197.069 222.272Z" fill="#F78FCC"/>
<path d="M274.475 94.3373C266.253 88.1 252.441 89.988 250.004 100.716C249.077 104.793 249.937 108.58 252.131 112.137C259.273 123.72 281.52 121.216 280.987 106.343C280.808 101.376 278.404 97.3173 274.475 94.3373Z" fill="#CA4986"/>
<path d="M253.241 139.421C243.485 137.651 232.235 145.353 234.568 155.685C235.456 159.612 237.779 162.503 241.169 164.611C252.207 171.469 270.552 159.529 263.905 146.924C261.685 142.715 257.904 140.268 253.241 139.421Z" fill="#CA4986"/>
<path d="M242.977 201.051C236.139 207.113 235.791 217.895 245.093 220.299C248.629 221.212 252.168 220.729 255.7 219.203C267.193 214.233 268.239 196.893 254.76 196.589C250.259 196.488 246.245 198.153 242.977 201.051Z" fill="#CA4986"/>
<path d="M535.794 369.903L274.614 244.096L187.855 424.212L449.034 550.019L535.794 369.903Z" fill="#EBEBEB"/>
<path d="M553.061 434.763L375.004 297L280 419.792L458.056 557.555L553.061 434.763Z" fill="#ECD2D2"/>
<path d="M451.794 311.036L230.969 267.817L201.163 420.103L421.989 463.323L451.794 311.036Z" fill="#ADC0A8"/>
<path d="M526.021 370.761L273.19 248.976L188.607 424.575L441.437 546.36L526.021 370.761Z" fill="#9AA9C8"/>
<path d="M476.224 295.739C486.179 299.083 492.968 306.277 496.171 315.624C499.861 326.392 494.227 335.417 489.137 344.787C481.692 355.145 473.508 360.673 464.501 369.169C460.791 372.668 449.235 382.648 455.035 380.052C458.308 378.588 461.952 376.277 465.649 378.255C468.12 379.576 469.66 381.289 470.056 384.285C470.757 389.588 469.549 392.288 467.453 395.852C465.177 399.72 461.668 402.781 456.655 403.956C450.427 405.415 437.095 391.139 442.671 397.761C445.519 401.144 452.311 404.805 457.096 404.735C461.721 404.667 452.031 413.384 446.532 413.613C442.796 413.768 439.983 411.696 436.859 409.791C433.599 407.801 431.667 405.187 428.885 402.663C424.769 398.929 437.94 410.947 440.723 413.169C444.299 416.027 432.64 414.912 428.273 413.789C423.565 412.58 418.75 408.202 413.828 400.656C411.485 393.181 411.916 395.296 412.828 388.113C413.529 382.595 410.924 398.195 413.753 401.909C415.415 404.092 408.4 399.427 407.031 397.105C404.227 392.351 403.664 390.032 404.064 386.175C404.285 382.689 409.013 377.961 410.967 373.173C414.04 365.637 412.905 358.144 416.195 350.683C419.485 343.215 424.563 338.153 429.337 331.52C434.449 324.413 438.836 318.469 444.387 311.632C450.92 303.588 457.469 293.017 469.857 294.284C472.139 294.517 474.043 295.005 476.224 295.739Z" fill="#FAC1D2" stroke="#992953" stroke-width="5.33333" stroke-miterlimit="3" stroke-linecap="square"/>
<path d="M463.244 285.989C476.88 302.644 483.658 316.642 483.58 327.981C483.483 342.032 473.202 358.136 452.737 376.293C490.044 348.804 504.579 324.772 496.292 304.168C493.382 296.932 482.366 290.872 463.244 285.989Z" fill="#F391A8"/>
<path d="M458.725 315.731C463.149 317.336 468.621 312.829 469.748 308.52C470.635 305.128 469.128 301.913 465.304 301.655C460.609 301.336 456.584 305.84 455.913 309.835C455.477 312.432 456.185 314.809 458.725 315.731Z" fill="#F680A4"/>
<path d="M449.552 324.341C451.331 325.26 453.215 323.547 453.437 321.709C453.613 320.263 452.877 318.779 451.395 318.48C449.575 318.113 448.247 319.895 448.184 321.617C448.143 322.736 448.531 323.813 449.552 324.341Z" fill="#F680A4"/>
<path d="M423.479 383.401C425.256 384.321 427.14 382.607 427.364 380.769C427.54 379.324 426.804 377.839 425.321 377.54C423.501 377.173 422.173 378.956 422.109 380.677C422.069 381.796 422.456 382.875 423.479 383.401Z" fill="#F680A4"/>
<path d="M457.037 321.149C457.765 321.639 458.407 320.979 458.403 320.183C458.4 319.556 458.045 318.868 457.46 318.665C456.743 318.416 456.319 319.135 456.379 319.887C456.417 320.377 456.619 320.869 457.037 321.149Z" fill="#F680A4"/>
<path d="M451.68 315.704C453.481 315.432 453.955 313.193 453.139 311.741C452.497 310.6 451.164 309.911 449.912 310.476C448.375 311.171 448.347 313.165 449.219 314.448C449.785 315.283 450.647 315.86 451.68 315.704Z" fill="#F680A4"/>
<path d="M207.516 340.511C201.751 349.288 200.851 359.139 204.103 368.469C207.848 379.219 217.853 382.839 227.641 387.067C239.893 390.619 249.745 389.915 262.075 391.036C267.153 391.497 282.407 392.212 276.241 393.752C272.763 394.621 268.469 395.053 266.783 398.891C265.653 401.457 265.5 403.755 267.039 406.356C269.761 410.96 272.377 412.339 276.228 413.848C280.407 415.487 285.057 415.727 289.725 413.555C295.525 410.857 297.199 391.396 296.901 400.048C296.749 404.468 293.668 411.541 289.86 414.44C286.179 417.243 299.184 418.117 303.652 414.901C306.687 412.717 307.62 409.351 308.9 405.923C310.236 402.345 310.141 399.095 310.772 395.392C311.704 389.913 308.763 407.5 307.947 410.965C306.899 415.421 315.38 407.347 318.123 403.767C321.08 399.909 322.165 393.492 321.377 384.517C318.605 377.191 319.572 379.12 314.419 374.033C310.46 370.125 322.141 380.788 322.209 385.456C322.249 388.2 324.888 380.197 324.532 377.527C323.801 372.055 322.812 369.884 320.116 367.097C317.791 364.493 311.152 363.692 306.66 361.132C299.588 357.101 295.855 350.505 288.661 346.668C281.461 342.825 274.341 341.979 266.491 339.708C258.081 337.275 250.961 335.307 242.372 333.357C232.267 331.061 220.588 326.791 211.627 335.436C209.976 337.028 208.779 338.588 207.516 340.511Z" fill="#FAC1D2" stroke="#992953" stroke-width="5.33333" stroke-miterlimit="3" stroke-linecap="square"/>
<path d="M233.624 345.433C231.136 349.427 224.049 349.261 220.501 346.567C217.711 344.447 216.911 340.988 219.759 338.423C223.255 335.273 229.201 336.331 232.196 339.059C234.143 340.833 235.053 343.14 233.624 345.433Z" fill="#F680A4"/>
<path d="M246.157 346.543C245.325 348.364 242.785 348.179 241.475 346.872C240.444 345.843 240.105 344.221 241.088 343.071C242.293 341.657 244.439 342.24 245.551 343.555C246.275 344.409 246.635 345.497 246.157 346.543Z" fill="#F680A4"/>
<path d="M303.133 376.903C302.301 378.724 299.761 378.539 298.451 377.231C297.42 376.203 297.081 374.58 298.064 373.429C299.269 372.017 301.413 372.599 302.527 373.915C303.251 374.769 303.611 375.857 303.133 376.903Z" fill="#F680A4"/>
<path d="M238.299 348.653C238.028 349.488 237.115 349.364 236.627 348.736C236.241 348.241 236.097 347.481 236.431 346.961C236.841 346.321 237.619 346.625 238.036 347.255C238.308 347.663 238.453 348.175 238.299 348.653Z" fill="#F680A4"/>
<path d="M239.149 341.063C237.565 341.96 235.811 340.492 235.556 338.847C235.355 337.552 235.979 336.187 237.313 335.859C238.951 335.456 240.204 337.008 240.311 338.555C240.38 339.561 240.059 340.547 239.149 341.063Z" fill="#F680A4"/>
<path d="M405.153 184.111C407.868 181.063 411.781 180.415 415.733 181.019C422.105 181.991 422.451 189.711 426.815 193.74C429.504 196.221 431.043 199.976 434.919 200.272C437.329 200.456 440.215 198.933 443.575 195.703C442.55 199.058 441.428 201.452 440.209 202.884C434.275 209.861 423.997 204.821 417.283 202.867C409.336 200.164 404.247 200.317 402.895 193.78C402.165 190.255 402.735 186.828 405.153 184.111Z" fill="#535353"/>
<path d="M405.065 183.608C402.263 180.639 398.333 180.105 394.4 180.823C388.06 181.98 387.937 189.707 383.692 193.86C381.075 196.419 379.647 200.216 375.78 200.624C373.376 200.877 370.448 199.438 366.996 196.307C368.118 199.632 369.309 201.992 370.568 203.388C376.703 210.191 386.829 204.856 393.484 202.707C401.349 199.776 406.441 199.78 407.603 193.208C408.231 189.663 407.561 186.253 405.065 183.608Z" fill="#535353"/>
<mask id="mask1_1_552" style="mask-type:luminance" maskUnits="userSpaceOnUse" x="279" y="97" width="104" height="96">
<path d="M331.042 192.36C359.623 192.36 382.792 171.094 382.792 144.86C382.792 118.627 359.623 97.3603 331.042 97.3603C302.461 97.3603 279.292 118.627 279.292 144.86C279.292 171.094 302.461 192.36 331.042 192.36Z" fill="white"/>
</mask>
<g mask="url(#mask1_1_552)">
<path d="M331.042 192.36C359.623 192.36 382.792 171.094 382.792 144.86C382.792 118.627 359.623 97.3603 331.042 97.3603C302.461 97.3603 279.292 118.627 279.292 144.86C279.292 171.094 302.461 192.36 331.042 192.36Z" stroke="#535353" stroke-width="18.6667" stroke-miterlimit="3" stroke-linecap="square"/>
</g>
</g>
</g>
<defs>
<clipPath id="clip0_1_552">
<rect width="625.515" height="663.923" fill="white"/>
</clipPath>
</defs>
</svg>
