<?xml version="1.0" encoding="UTF-8" standalone="no"?><!-- Generator: Gravit.io --><svg xmlns="http://www.w3.org/2000/svg" xmlns:xlink="http://www.w3.org/1999/xlink" style="isolation:isolate" viewBox="0 0 469.136 497.942" width="469.136pt" height="497.942pt"><defs><clipPath id="_clipPath_Ay24ZtwE9VpjAOykartOfrYI2fjzEflN"><rect width="469.136" height="497.942"/></clipPath></defs><g clip-path="url(#_clipPath_Ay24ZtwE9VpjAOykartOfrYI2fjzEflN)"><rect width="469.136" height="497.942" style="fill:rgb(55,86,89)" fill-opacity="0"/><g><path d=" M 237.667 375.954 C 242.821 371.293 248.596 368.637 255.641 367.875 C 264.121 366.957 271.744 368.966 278.19 374.171 C 285.301 379.912 286.465 386.989 288.244 396.601 C 290.295 407.679 289.131 417.725 288.229 429.156 C 287.64 436.622 285.954 442.838 285.469 450.311 C 284.81 460.476 299.113 483.535 286.163 479.218 C 281.453 477.648 277.819 475.241 276.397 470.084 C 274.76 464.149 277.026 483.16 269.842 484.154 C 263.364 485.05 259.961 475.189 259.823 471.485 C 259.651 466.823 255.254 484.272 248.16 484.477 C 236.373 484.817 245.73 470.217 243.894 462.598 C 242.542 456.991 241.153 452.307 239.533 446.768 C 236.179 435.303 232.723 426.871 228.929 414.452 C 226.169 405.42 225.771 396.622 229.656 387.674 C 231.634 383.119 233.881 379.376 237.667 375.954 Z " fill="rgb(250,193,210)" vector-effect="non-scaling-stroke" stroke-width="4" stroke="rgb(153,41,83)" stroke-linejoin="miter" stroke-linecap="square" stroke-miterlimit="3"/><path d=" M 240.564 432.91 C 239.886 430.14 241.438 427.377 244.029 426.742 C 246.62 426.107 249.275 427.84 249.953 430.61 C 250.632 433.38 249.079 436.144 246.488 436.778 C 243.897 437.413 241.243 435.68 240.564 432.91 Z " fill="rgb(246,128,164)"/><path d=" M 249.472 442.654 C 249.067 441.001 250.153 439.312 251.895 438.886 C 253.637 438.459 255.38 439.454 255.785 441.107 C 256.19 442.76 255.104 444.448 253.362 444.875 C 251.62 445.302 249.877 444.307 249.472 442.654 Z " fill="rgb(246,128,164)"/><path d=" M 253.21 435.814 C 252.969 434.827 253.724 433.794 254.895 433.507 C 256.067 433.22 257.214 433.787 257.456 434.774 C 257.697 435.76 256.942 436.794 255.771 437.081 C 254.599 437.368 253.452 436.8 253.21 435.814 Z " fill="rgb(246,128,164)"/><path d=" M 250.429 427.812 C 250.285 427.223 250.807 426.589 251.595 426.396 C 252.383 426.203 253.139 426.524 253.284 427.113 C 253.428 427.701 252.905 428.336 252.118 428.529 C 251.33 428.722 250.573 428.4 250.429 427.812 Z " fill="rgb(246,128,164)"/><path d=" M 223.654 423.937 C 212.35 416.181 211.472 397.787 221.695 382.886 C 231.918 367.986 249.396 362.185 260.7 369.941 C 272.005 377.696 272.883 396.091 262.66 410.992 C 252.437 425.892 234.959 431.693 223.654 423.937 Z " fill="rgb(250,193,210)"/></g><g><path d=" M 321.604 116.863 C 333.084 122.081 339.824 131.371 347.571 141.459 C 368.188 168.306 369.255 199.987 370.815 233.802 C 373.343 288.586 360.994 337.043 328.946 380.778 C 309.294 407.596 287.465 426.116 258.894 441.628 C 198.612 474.358 129.667 489.25 72.886 446.353 C 24.174 409.553 1.89 351.092 10.997 288.615 C 13.507 271.396 14.937 255.663 24.946 241.404 C 61.533 189.284 38.72 341.978 99.614 357.868 C 129.13 365.571 147.557 359.66 165.728 344.029 C 208.038 307.637 177.631 229.053 210.173 166.489 C 217.878 151.677 237.501 145.898 253.904 137.701 C 276.403 126.458 297.03 105.692 321.604 116.863 Z " fill="rgb(243,145,168)" vector-effect="non-scaling-stroke" stroke-width="6" stroke="rgb(153,41,83)" stroke-linejoin="miter" stroke-linecap="square" stroke-miterlimit="3"/><path d=" M 285.906 144.743 C 320.841 151.363 332.666 185.504 340.293 216.834 C 345.874 239.755 344.723 263.157 340.051 285.957 C 333.42 318.317 325.576 347.815 304.463 374.881 C 284.499 400.475 261.246 417.472 230.924 430.333 C 180.825 451.584 124.802 463.929 77.414 432.111 C 38.758 406.156 21.437 365.898 20.382 320.929 C 20.174 312.08 19.533 304.389 22.035 295.829 C 33.368 257.054 50.436 362.301 85.988 372.034 C 125.374 382.816 161.656 366.826 187.471 338.396 C 220.159 302.394 195.082 242.194 211.07 191.596 C 219.141 166.056 233.166 151.376 256.843 145.403 C 266.807 142.89 275.794 142.827 285.906 144.743 Z " fill="rgb(250,193,210)"/><path d=" M 236.066 161.737 C 233.234 165.723 236.419 170.585 240.558 171.549 C 243.815 172.308 247.528 170.921 248.814 167.487 C 250.393 163.27 246.826 159.707 242.889 159.149 C 240.329 158.786 237.692 159.447 236.066 161.737 Z " fill="rgb(246,128,164)"/><path d=" M 55.825 397.593 C 53.473 401.918 56.977 407.927 61.04 409.509 C 64.238 410.753 67.676 409.551 68.595 405.697 C 69.723 400.966 65.971 396.424 62.139 395.338 C 59.647 394.632 57.176 395.109 55.825 397.593 Z " fill="rgb(246,128,164)"/><path d=" M 76.229 411.202 C 72.218 418.186 77.862 427.673 84.55 430.068 C 89.814 431.953 95.54 429.923 97.165 423.737 C 99.16 416.143 93.065 409.009 86.747 407.397 C 82.639 406.349 78.534 407.19 76.229 411.202 Z " fill="rgb(246,128,164)"/><path d=" M 73.433 396.923 C 71.834 399.757 74.126 403.634 76.822 404.627 C 78.944 405.408 81.244 404.596 81.885 402.082 C 82.671 398.995 80.203 396.074 77.657 395.402 C 76.002 394.964 74.352 395.296 73.433 396.923 Z " fill="rgb(246,128,164)"/><path d=" M 27.906 263.041 C 22.842 265.087 20.931 274.029 22.807 279.21 C 24.283 283.287 27.797 285.225 31.419 282.342 C 35.866 278.802 36.474 271.05 34.398 266.554 C 33.048 263.631 30.816 261.865 27.906 263.041 Z " fill="rgb(253,230,239)"/><path d=" M 33.127 253.451 C 30.654 254.076 30.034 257.704 31.178 259.937 C 32.078 261.695 33.923 262.655 35.638 261.619 C 37.743 260.346 37.752 257.155 36.533 255.197 C 35.741 253.924 34.548 253.092 33.127 253.451 Z " fill="rgb(253,230,239)"/><path d=" M 29.143 254.252 C 28.757 252.988 27.394 253.138 26.651 254.062 C 26.066 254.789 25.833 255.923 26.32 256.718 C 26.918 257.693 28.084 257.269 28.722 256.342 C 29.136 255.739 29.364 254.978 29.143 254.252 Z " fill="rgb(253,230,239)"/><path d=" M 302.05 336.54 C 301.644 337.151 302.134 337.924 302.752 338.092 C 303.238 338.225 303.785 338.024 303.964 337.492 C 304.184 336.84 303.641 336.268 303.054 336.164 C 302.673 336.096 302.284 336.189 302.05 336.54 Z " fill="rgb(246,128,164)"/><path d=" M 292.716 352.748 C 292.67 355.475 294.74 355.422 296.274 353.625 C 297.481 352.211 298.37 349.873 298.04 348.111 C 297.635 345.948 295.723 346.615 294.342 348.44 C 293.444 349.626 292.742 351.182 292.716 352.748 Z " fill="rgb(246,128,164)"/><path d=" M 278.245 372.282 C 277.284 373.682 278.404 375.423 279.838 375.786 C 280.967 376.071 282.244 375.598 282.674 374.386 C 283.202 372.898 281.955 371.616 280.592 371.398 C 279.706 371.257 278.798 371.478 278.245 372.282 Z " fill="rgb(246,128,164)"/><path d=" M 301.231 342.178 C 300.27 343.578 301.39 345.319 302.824 345.681 C 303.953 345.967 305.23 345.494 305.66 344.282 C 306.188 342.794 304.941 341.512 303.578 341.294 C 302.692 341.153 301.784 341.374 301.231 342.178 Z " fill="rgb(246,128,164)"/><path d=" M 286.899 377.009 C 289.958 382.693 296.804 380.645 299.809 375.494 C 302.173 371.439 302.39 365.772 299.213 362.436 C 295.313 358.339 289.716 361.509 287.254 366.576 C 285.652 369.87 285.142 373.744 286.899 377.009 Z " fill="rgb(246,128,164)"/><path d=" M 299.182 355.004 C 296.909 358.212 299.471 362.129 302.799 362.909 C 305.418 363.522 308.402 362.409 309.433 359.644 C 310.7 356.25 307.83 353.378 304.665 352.925 C 302.607 352.631 300.488 353.161 299.182 355.004 Z " fill="rgb(246,128,164)"/><path d=" M 237.471 174.826 C 236.779 175.792 237.55 176.963 238.556 177.192 C 239.348 177.373 240.252 177.034 240.567 176.204 C 240.954 175.184 240.089 174.326 239.132 174.195 C 238.51 174.11 237.868 174.272 237.471 174.826 Z " fill="rgb(246,128,164)"/><path d=" M 226.514 171.855 C 225.115 173.817 226.682 176.204 228.722 176.674 C 230.328 177.044 232.16 176.359 232.797 174.67 C 233.578 172.596 231.822 170.848 229.881 170.577 C 228.619 170.401 227.318 170.728 226.514 171.855 Z " fill="rgb(246,128,164)"/></g><g><path d=" M 169.594 379.041 C 175.682 375.692 181.914 374.436 188.945 375.315 C 197.408 376.373 204.364 380.083 209.44 386.631 C 215.039 393.855 214.543 401.01 214.063 410.773 C 213.509 422.026 210.065 431.535 206.557 442.451 C 204.265 449.581 201.193 455.242 199.002 462.403 C 196.022 472.144 204.634 497.875 193.025 490.694 C 188.803 488.082 185.82 484.904 185.623 479.557 C 185.396 473.405 183.226 492.427 176.006 491.741 C 169.496 491.123 168.453 480.743 169.172 477.107 C 170.077 472.531 161.782 488.5 154.832 487.066 C 143.283 484.685 155.749 472.63 155.715 464.793 C 155.69 459.025 155.416 454.147 155.114 448.384 C 154.489 436.455 153.066 427.454 152.231 414.495 C 151.624 405.071 153.261 396.417 159.101 388.604 C 162.074 384.625 165.123 381.5 169.594 379.041 Z " fill="rgb(250,193,210)" vector-effect="non-scaling-stroke" stroke-width="4" stroke="rgb(153,41,83)" stroke-linejoin="miter" stroke-linecap="square" stroke-miterlimit="3"/><path d=" M 189.459 397.379 C 188.533 393.439 191.199 389.438 195.408 388.449 C 199.617 387.461 203.785 389.857 204.71 393.797 C 205.636 397.737 202.97 401.739 198.761 402.727 C 194.552 403.716 190.384 401.319 189.459 397.379 Z " fill="rgb(246,128,164)"/><path d=" M 189.459 397.379 C 188.533 393.439 191.199 389.438 195.408 388.449 C 199.617 387.461 203.785 389.857 204.71 393.797 C 205.636 397.737 202.97 401.739 198.761 402.727 C 194.552 403.716 190.384 401.319 189.459 397.379 Z " fill="rgb(246,128,164)"/><path d=" M 188.976 411.36 C 188.366 408.763 190.052 406.142 192.738 405.511 C 195.425 404.88 198.101 406.477 198.711 409.073 C 199.321 411.67 197.635 414.291 194.949 414.922 C 192.262 415.553 189.586 413.957 188.976 411.36 Z " fill="rgb(246,128,164)"/><path d=" M 181.715 402.346 C 181.313 400.634 182.379 398.917 184.094 398.515 C 185.809 398.112 187.527 399.174 187.929 400.886 C 188.331 402.598 187.266 404.314 185.551 404.717 C 183.836 405.12 182.117 404.057 181.715 402.346 Z " fill="rgb(246,128,164)"/><path d=" M 182.044 368.358 C 196.921 361.631 215.523 370.596 223.558 388.366 C 231.594 406.136 226.039 426.025 211.162 432.753 C 196.285 439.48 177.683 430.515 169.647 412.744 C 161.612 394.974 167.166 375.086 182.044 368.358 Z " fill="rgb(250,193,210)"/></g><g><g><g><path d=" M 402.134 14.375 C 401.398 13.147 400.39 12.427 399.886 12.768 C 399.381 13.108 399.57 14.381 400.306 15.609 C 401.043 16.836 402.05 17.556 402.555 17.215 C 403.059 16.875 402.871 15.602 402.134 14.375 Z " fill="rgb(153,41,83)"/><path d=" M 406.534 11.66 C 406.003 10.32 405.123 9.428 404.57 9.67 C 404.018 9.913 404 11.198 404.53 12.539 C 405.061 13.88 405.941 14.771 406.494 14.529 C 407.047 14.287 407.065 13.001 406.534 11.66 Z " fill="rgb(153,41,83)"/><path d=" M 440.454 36.116 C 441.776 35.813 442.74 35.058 442.605 34.43 C 442.471 33.803 441.289 33.539 439.967 33.843 C 438.646 34.146 437.682 34.901 437.816 35.529 C 437.951 36.156 439.133 36.419 440.454 36.116 Z " fill="rgb(153,41,83)"/><path d=" M 441.811 40.648 C 443.536 40.424 444.869 39.725 444.788 39.088 C 444.707 38.451 443.241 38.116 441.517 38.34 C 439.793 38.564 438.459 39.263 438.54 39.9 C 438.621 40.537 440.087 40.872 441.811 40.648 Z " fill="rgb(153,41,83)"/><path d=" M 380.695 77.95 C 375.887 61.897 393.684 57.692 393.352 52.155 C 392.29 34.398 395.394 6.756 420.241 12.449 C 432.465 15.25 437.355 25.647 439.024 37.153 C 442.436 60.674 412.832 85.409 390.228 87.07 C 386.196 87.367 381.953 82.15 380.695 77.95 Z " fill="rgb(202,73,134)" vector-effect="non-scaling-stroke" stroke-width="4" stroke="rgb(153,41,83)" stroke-linejoin="miter" stroke-linecap="square" stroke-miterlimit="3"/><path d=" M 416.742 50.409 C 409.614 50.695 399.375 48.537 397.475 44.927 C 395.642 41.444 395.353 36.044 396.221 31.239 C 397.38 24.824 399.981 19.224 405.523 15.791 C 412.759 11.309 421.234 12.6 428.113 17.454 C 436.061 23.062 439.202 33.665 436.961 42.142 C 435.832 46.414 424.551 50.096 416.742 50.409 Z " fill="rgb(244,106,166)"/><path d=" M 417.58 21.746 C 417.527 24.182 415.705 26.047 413.43 26.487 C 409.669 27.215 406.229 22.851 408.164 19.265 C 409.549 16.698 412.712 16.043 415.076 17.447 C 416.612 18.361 417.622 19.863 417.58 21.746 Z " fill="rgb(247,143,204)"/><path d=" M 409.03 27.824 C 409.021 29.222 408.014 30.275 406.74 30.505 C 404.635 30.887 402.666 28.35 403.722 26.311 C 404.478 24.852 406.248 24.506 407.587 25.334 C 408.458 25.873 409.037 26.745 409.03 27.824 Z " fill="rgb(247,143,204)"/><path d=" M 413.44 29.496 C 413.447 30.298 412.89 30.892 412.177 31.012 C 410.998 31.211 409.871 29.737 410.446 28.577 C 410.858 27.747 411.849 27.565 412.608 28.054 C 413.102 28.371 413.435 28.877 413.44 29.496 Z " fill="rgb(247,143,204)"/><path d=" M 434.549 38.481 C 434.547 40.493 433.114 42.002 431.295 42.324 C 428.287 42.856 425.453 39.185 426.948 36.257 C 428.018 34.161 430.547 33.677 432.468 34.881 C 433.716 35.665 434.551 36.925 434.549 38.481 Z " fill="rgb(247,143,204)"/></g><g><path d=" M 445.892 75.599 C 446.155 74.31 445.916 73.191 445.359 73.103 C 444.802 73.014 444.137 73.989 443.875 75.279 C 443.612 76.568 443.851 77.686 444.408 77.775 C 444.965 77.863 445.63 76.888 445.892 75.599 Z " fill="rgb(153,41,83)"/><path d=" M 450.588 76.542 C 451.062 75.306 451.017 74.152 450.489 73.967 C 449.96 73.782 449.147 74.636 448.673 75.872 C 448.199 77.108 448.244 78.262 448.772 78.446 C 449.301 78.631 450.115 77.778 450.588 76.542 Z " fill="rgb(153,41,83)"/><path d=" M 458.497 114.341 C 459.588 114.969 460.717 115.068 461.017 114.561 C 461.316 114.054 460.673 113.133 459.582 112.505 C 458.491 111.877 457.362 111.779 457.062 112.286 C 456.763 112.793 457.406 113.714 458.497 114.341 Z " fill="rgb(153,41,83)"/><path d=" M 456.597 118.244 C 457.914 119.178 459.261 119.548 459.602 119.068 C 459.944 118.588 459.152 117.44 457.835 116.506 C 456.519 115.572 455.172 115.202 454.83 115.682 C 454.489 116.162 455.28 117.31 456.597 118.244 Z " fill="rgb(153,41,83)"/><path d=" M 391.612 104.876 C 398.339 91.051 413.112 99.422 416.338 95.488 C 426.685 82.874 446.041 66.232 459.455 85.699 C 466.054 95.276 462.909 105.348 456.874 114.139 C 444.536 132.11 411.334 131.168 392.433 117.011 C 389.429 114.76 389.852 108.493 391.612 104.876 Z " fill="rgb(202,73,134)" vector-effect="non-scaling-stroke" stroke-width="4" stroke="rgb(153,41,83)" stroke-linejoin="miter" stroke-linecap="square" stroke-miterlimit="3"/><path d=" M 431.724 110.443 C 426.568 106.028 420.864 97.835 421.931 94 C 422.96 90.3 426.336 86.219 430.124 83.316 C 435.18 79.442 440.701 77.089 446.836 78.206 C 454.847 79.665 459.896 86.09 461.475 94.049 C 463.298 103.246 458.463 112.928 451.287 117.589 C 447.671 119.938 437.372 115.28 431.724 110.443 Z " fill="rgb(244,106,166)"/><path d=" M 451.841 90.278 C 450.286 91.884 447.878 91.992 446.051 90.856 C 443.03 88.979 443.402 83.878 446.96 82.683 C 449.505 81.828 452.074 83.378 452.812 85.81 C 453.291 87.392 453.043 89.038 451.841 90.278 Z " fill="rgb(247,143,204)"/><path d=" M 442.213 88.987 C 441.336 89.921 439.992 89.996 438.978 89.349 C 437.303 88.281 437.54 85.335 439.533 84.628 C 440.959 84.122 442.384 85.004 442.781 86.404 C 443.039 87.314 442.892 88.265 442.213 88.987 Z " fill="rgb(247,143,204)"/><path d=" M 444.182 92.886 C 443.686 93.43 442.936 93.48 442.374 93.112 C 441.445 92.504 441.595 90.803 442.711 90.385 C 443.51 90.085 444.3 90.587 444.513 91.393 C 444.652 91.917 444.564 92.466 444.182 92.886 Z " fill="rgb(247,143,204)"/><path d=" M 452.991 112.216 C 451.734 113.568 449.815 113.681 448.372 112.753 C 445.987 111.218 446.341 106.965 449.188 105.936 C 451.225 105.199 453.254 106.465 453.814 108.484 C 454.178 109.797 453.962 111.171 452.991 112.216 Z " fill="rgb(247,143,204)"/></g><g><path d=" M 447.63 149.49 C 448.434 148.714 448.826 147.819 448.504 147.492 C 448.182 147.166 447.267 147.531 446.462 148.307 C 445.657 149.082 445.266 149.977 445.588 150.304 C 445.91 150.63 446.825 150.266 447.63 149.49 Z " fill="rgb(153,41,83)"/><path d=" M 450.251 152.382 C 451.168 151.743 451.705 150.916 451.449 150.536 C 451.192 150.155 450.239 150.365 449.322 151.003 C 448.405 151.641 447.868 152.468 448.124 152.849 C 448.381 153.229 449.334 153.02 450.251 152.382 Z " fill="rgb(153,41,83)"/><path d=" M 436.906 182.551 C 437.314 183.508 438.007 184.114 438.453 183.902 C 438.898 183.691 438.927 182.741 438.519 181.784 C 438.11 180.826 437.417 180.221 436.972 180.432 C 436.526 180.644 436.497 181.593 436.906 182.551 Z " fill="rgb(153,41,83)"/><path d=" M 433.744 184.374 C 434.15 185.653 434.854 186.551 435.313 186.379 C 435.773 186.206 435.816 185.027 435.41 183.748 C 435.003 182.469 434.3 181.571 433.84 181.744 C 433.381 181.916 433.337 183.095 433.744 184.374 Z " fill="rgb(153,41,83)"/><path d=" M 397.625 144.131 C 408.823 137.671 414.418 150.544 418.466 149.331 C 431.448 145.438 452.322 143.016 451.583 162.995 C 451.219 172.825 444.214 178.366 435.939 181.637 C 419.023 188.325 401.607 176.342 392.212 152.999 C 391.051 150.115 394.695 145.821 397.625 144.131 Z " fill="rgb(202,73,134)" vector-effect="non-scaling-stroke" stroke-width="4" stroke="rgb(153,41,83)" stroke-linejoin="miter" stroke-linecap="square" stroke-miterlimit="3"/><path d=" M 421.161 166.839 C 419.924 161.219 420.215 152.651 422.852 150.441 C 425.396 148.308 429.701 147.036 433.691 146.798 C 439.017 146.482 443.891 147.47 447.437 151.219 C 452.066 156.114 452.224 163.111 449.289 169.526 C 445.898 176.937 437.808 181.486 430.67 181.34 C 427.072 181.266 422.515 172.996 421.161 166.839 Z " fill="rgb(244,106,166)"/><path d=" M 444.337 162.574 C 442.528 162.956 440.894 161.887 440.251 160.224 C 439.188 157.476 441.934 154.09 444.856 154.947 C 446.947 155.56 447.874 157.864 447.165 159.914 C 446.705 161.247 445.734 162.279 444.337 162.574 Z " fill="rgb(247,143,204)"/><path d=" M 438.648 157.094 C 437.613 157.329 436.694 156.742 436.345 155.808 C 435.769 154.265 437.37 152.32 439.025 152.774 C 440.21 153.098 440.713 154.392 440.287 155.559 C 440.011 156.318 439.447 156.912 438.648 157.094 Z " fill="rgb(247,143,204)"/><path d=" M 438.027 160.754 C 437.436 160.898 436.918 160.576 436.73 160.052 C 436.418 159.185 437.351 158.068 438.289 158.307 C 438.96 158.477 439.233 159.204 438.978 159.868 C 438.812 160.3 438.485 160.642 438.027 160.754 Z " fill="rgb(247,143,204)"/><path d=" M 434.332 178.447 C 432.844 178.794 431.528 177.961 431.036 176.626 C 430.222 174.42 432.54 171.617 434.915 172.251 C 436.614 172.705 437.325 174.555 436.703 176.232 C 436.298 177.322 435.483 178.179 434.332 178.447 Z " fill="rgb(247,143,204)"/></g></g><g><path d=" M 312.753 212.951 C 258.147 210.64 179.421 214.875 169.858 156.249 C 159.709 94.032 212.571 33.758 272.304 29.828 C 341.832 25.254 414.478 74.131 405.962 143.217 C 400.319 188.997 357.57 214.849 312.753 212.951 Z " fill="rgb(250,193,210)" vector-effect="non-scaling-stroke" stroke-width="6" stroke="rgb(153,41,83)" stroke-linejoin="miter" stroke-linecap="square" stroke-miterlimit="3"/><path d=" M 223.478 59.359 C 225.053 65.478 232.722 64.368 237.615 62.068 C 241.412 60.283 244.99 57.303 244.498 52.889 C 243.675 45.503 234.072 46.452 228.845 49.767 C 225.446 51.923 222.415 55.231 223.478 59.359 Z " fill="rgb(253,230,239)"/><path d=" M 221.227 131.169 C 217.826 138.468 225.947 144.587 232.4 146.977 C 237.408 148.831 243.164 149.343 246.225 144.681 C 251.347 136.878 241.53 128.796 233.95 127.06 C 229.022 125.932 223.521 126.245 221.227 131.169 Z " fill="rgb(246,128,164)"/><path d=" M 359.589 145.307 C 362.62 151.156 371.085 149.782 376.162 147.368 C 380.102 145.494 383.551 142.475 382.094 138.23 C 379.655 131.126 368.966 132.421 363.717 135.829 C 360.304 138.045 357.543 141.361 359.589 145.307 Z " fill="rgb(246,128,164)"/><path d=" M 246.037 127.875 C 253.246 131.413 260.177 126.249 262.729 119.285 C 265.912 110.598 260.724 96.865 251.501 97.565 C 239.999 98.438 236.518 106.369 238.391 117.519 C 238.929 120.723 241.915 125.853 246.037 127.875 Z " fill="rgb(153,41,83)"/><path d=" M 351.167 133.801 C 358.616 137.011 364.035 133.321 366.78 126.529 C 370.286 117.852 365.688 104.781 356.429 105.206 C 344.816 105.741 343.85 115.186 344.171 123.055 C 344.726 128.407 347.316 132.141 351.167 133.801 Z " fill="rgb(153,41,83)"/><path d=" M 224.975 68.94 C 225.273 70.927 227.223 72.509 229.465 72.944 C 233.171 73.663 236.053 70.222 233.821 67.234 C 232.223 65.096 229.1 64.456 226.959 65.521 C 225.568 66.214 224.745 67.405 224.975 68.94 Z " fill="rgb(253,230,239)"/><path d=" M 216.192 61.632 C 216.285 62.677 217.195 63.465 218.277 63.636 C 220.066 63.92 221.562 62.021 220.551 60.496 C 219.828 59.405 218.322 59.147 217.25 59.768 C 216.553 60.171 216.12 60.824 216.192 61.632 Z " fill="rgb(253,230,239)"/><path d=" M 223.611 121.355 C 223.704 122.401 224.613 123.188 225.695 123.36 C 227.484 123.644 228.98 121.744 227.969 120.219 C 227.246 119.128 225.74 118.87 224.668 119.491 C 223.971 119.895 223.538 120.547 223.611 121.355 Z " fill="rgb(246,128,164)"/><path d=" M 382.797 137.855 C 382.891 138.9 383.8 139.688 384.882 139.859 C 386.671 140.143 388.167 138.244 387.156 136.719 C 386.433 135.628 384.927 135.37 383.855 135.991 C 383.158 136.394 382.725 137.047 382.797 137.855 Z " fill="rgb(246,128,164)"/><path d=" M 381.826 128.651 C 381.89 129.18 382.38 129.59 382.953 129.692 C 383.9 129.86 384.662 128.922 384.108 128.138 C 383.712 127.577 382.914 127.426 382.358 127.725 C 381.996 127.919 381.777 128.242 381.826 128.651 Z " fill="rgb(246,128,164)"/><path d=" M 210.233 127.525 C 210.33 129.812 212.124 131.459 214.329 131.739 C 217.972 132.202 221.211 127.897 219.275 124.639 C 217.89 122.308 214.824 121.877 212.569 123.336 C 211.103 124.285 210.157 125.758 210.233 127.525 Z " fill="rgb(246,128,164)"/><path d=" M 369.833 152.7 C 369.88 154.104 370.957 155.105 372.29 155.265 C 374.493 155.53 376.476 152.871 375.321 150.881 C 374.495 149.458 372.641 149.209 371.269 150.117 C 370.377 150.707 369.796 151.616 369.833 152.7 Z " fill="rgb(246,128,164)"/><path d=" M 241.026 151.8 C 241.116 152.493 241.77 153.035 242.531 153.174 C 243.787 153.404 244.788 152.184 244.045 151.152 C 243.514 150.414 242.456 150.208 241.721 150.593 C 241.244 150.844 240.957 151.265 241.026 151.8 Z " fill="rgb(246,128,164)"/><path d=" M 347.363 114.632 C 347.498 117.072 349.469 118.85 351.869 119.177 C 355.835 119.718 359.299 115.17 357.153 111.672 C 355.617 109.169 352.279 108.67 349.848 110.197 C 348.267 111.19 347.258 112.747 347.363 114.632 Z " fill="rgb(253,230,239)"/><path d=" M 242.335 108.473 C 242.471 111.06 244.547 112.941 247.079 113.28 C 251.264 113.842 254.935 109.009 252.68 105.305 C 251.066 102.655 247.543 102.136 244.972 103.762 C 243.3 104.82 242.23 106.474 242.335 108.473 Z " fill="rgb(253,230,239)"/><path d=" M 240.304 66.081 C 240.584 67.915 242.589 68.966 244.471 69.785 C 250.799 72.54 253.533 63.913 252.054 60.92 C 250.966 58.716 244.501 60.572 242.135 62.93 C 241.203 63.858 240.087 64.663 240.304 66.081 Z " fill="rgb(253,230,239)"/><path d=" M 348.182 64.243 C 350.796 68.038 361.382 67.845 358.858 63.937 C 357.596 61.983 353.868 62.714 353.098 60.924 C 352.531 59.606 350.414 57.374 348.296 57.852 C 345.287 58.531 346.729 62.134 348.182 64.243 Z " fill="rgb(253,230,239)"/><path d=" M 205.052 67.884 Q 204.677 80.24 203.864 86.883 C 201.905 102.893 191.112 114.718 191.891 131.039 C 192.619 146.268 198.159 158.499 206.129 171.38 Q 215.707 186.858 243.313 206.622 Q 204.166 202.112 189.636 187.324 C 179.911 177.426 174.811 166.239 171.809 152.749 C 167.407 132.967 171.384 114.993 180.674 97.13 Q 186.894 85.17 205.052 67.884 Z " fill="rgb(243,145,168)"/><path d=" M 315.09 164.283 C 315.657 163.517 313.374 164.55 311.789 165.181 C 307.416 166.922 306.148 167.828 303.121 167.988 C 299.282 168.19 294.349 165.104 293.561 164.759 C 292.772 164.415 291.426 163.465 290.058 164.267 C 288.19 165.364 291.386 165.033 292.12 165.423 C 295.787 167.373 298.576 170.14 303.164 169.821 C 306.409 169.595 309.342 168.687 312.396 166.533 C 313.39 165.832 314.261 165.403 315.09 164.283 Z " fill="rgb(153,41,83)"/></g><g><g><path d=" M 177.135 8.588 C 177.949 7.148 179.11 6.279 179.727 6.648 C 180.344 7.017 180.184 8.486 179.371 9.926 C 178.557 11.366 177.395 12.235 176.778 11.866 C 176.162 11.497 176.321 10.028 177.135 8.588 Z " fill="rgb(153,41,83)"/><path d=" M 171.767 5.663 C 172.33 4.101 173.331 3.04 174.001 3.295 C 174.67 3.549 174.756 5.023 174.193 6.585 C 173.63 8.146 172.629 9.207 171.959 8.953 C 171.29 8.698 171.203 7.224 171.767 5.663 Z " fill="rgb(153,41,83)"/><path d=" M 132.673 35.18 C 131.086 34.889 129.902 34.064 130.03 33.338 C 130.158 32.612 131.551 32.26 133.137 32.551 C 134.724 32.842 135.908 33.667 135.78 34.393 C 135.652 35.119 134.259 35.472 132.673 35.18 Z " fill="rgb(153,41,83)"/><path d=" M 131.289 40.439 C 129.227 40.256 127.606 39.511 127.671 38.777 C 127.735 38.042 129.461 37.595 131.522 37.778 C 133.584 37.961 135.205 38.706 135.14 39.44 C 135.076 40.174 133.35 40.622 131.289 40.439 Z " fill="rgb(153,41,83)"/><path d=" M 205.839 80.618 C 210.744 61.992 189.372 57.931 189.486 51.563 C 189.852 31.143 184.764 -0.443 155.51 7.156 C 141.117 10.895 133.761 22.982 134.426 36.309 C 135.437 56.574 167.093 92.991 196.759 89.35 C 201.539 88.764 204.555 85.492 205.839 80.618 Z " fill="rgb(202,73,134)" vector-effect="non-scaling-stroke" stroke-width="4" stroke="rgb(153,41,83)" stroke-linejoin="miter" stroke-linecap="square" stroke-miterlimit="3"/><path d=" M 162.438 50.868 C 170.967 50.886 183.089 47.933 185.177 43.662 C 187.192 39.541 187.343 32.925 185.931 27.233 C 184.144 20.029 180.74 13.869 174.1 10.217 C 165.229 5.338 155.171 7.205 147.198 13.138 C 137.986 19.992 134.767 32.43 137.869 42.166 C 139.433 47.072 153.094 50.848 162.438 50.868 Z " fill="rgb(244,106,166)"/><path d=" M 159.143 17.709 C 159.329 20.502 161.59 22.565 164.317 22.972 C 168.825 23.645 172.695 18.49 170.213 14.458 C 168.437 11.573 164.642 10.956 161.903 12.67 C 160.123 13.783 158.999 15.551 159.143 17.709 Z " fill="rgb(247,143,204)"/><path d=" M 169.616 24.317 C 169.697 25.92 170.948 27.085 172.474 27.296 C 174.996 27.643 177.209 24.648 175.85 22.353 C 174.878 20.711 172.755 20.39 171.205 21.398 C 170.198 22.054 169.553 23.079 169.616 24.317 Z " fill="rgb(247,143,204)"/><path d=" M 164.457 26.425 C 164.49 27.345 165.182 28.003 166.036 28.111 C 167.447 28.288 168.713 26.548 167.97 25.242 C 167.438 24.307 166.251 24.141 165.373 24.734 C 164.803 25.119 164.432 25.714 164.457 26.425 Z " fill="rgb(247,143,204)"/><path d=" M 139.821 37.78 C 139.926 40.09 141.706 41.76 143.885 42.051 C 147.488 42.532 150.672 38.199 148.747 34.902 C 147.369 32.543 144.337 32.097 142.114 33.561 C 140.669 34.513 139.74 35.996 139.821 37.78 Z " fill="rgb(247,143,204)"/></g><g><path d=" M 128.289 81.847 C 127.899 80.563 128.115 79.438 128.769 79.334 C 129.423 79.231 130.271 80.189 130.66 81.472 C 131.05 82.755 130.834 83.881 130.18 83.984 C 129.525 84.087 128.678 83.13 128.289 81.847 Z " fill="rgb(153,41,83)"/><path d=" M 122.779 82.916 C 122.143 81.691 122.126 80.536 122.741 80.337 C 123.356 80.138 124.373 80.97 125.009 82.194 C 125.646 83.418 125.663 84.574 125.048 84.773 C 124.432 84.972 123.416 84.14 122.779 82.916 Z " fill="rgb(153,41,83)"/><path d=" M 115.7 120.952 C 114.445 121.61 113.112 121.738 112.727 121.239 C 112.341 120.74 113.047 119.801 114.302 119.144 C 115.558 118.487 116.89 118.358 117.276 118.857 C 117.661 119.356 116.955 120.295 115.7 120.952 Z " fill="rgb(153,41,83)"/><path d=" M 108.093 110.872 C 106.305 110.959 104.74 110.523 104.599 109.898 C 104.459 109.273 105.797 108.695 107.585 108.608 C 109.373 108.521 110.938 108.957 111.078 109.582 C 111.218 110.207 109.88 110.785 108.093 110.872 Z " fill="rgb(153,41,83)"/><path d=" M 107.219 98.312 C 105.49 97.848 104.133 96.953 104.191 96.315 C 104.249 95.678 105.699 95.537 107.428 96.001 C 109.157 96.465 110.513 97.359 110.455 97.997 C 110.398 98.635 108.947 98.776 107.219 98.312 Z " fill="rgb(153,41,83)"/><path d=" M 145.821 132.355 C 145.89 134.143 145.438 135.704 144.812 135.838 C 144.186 135.972 143.621 134.629 143.551 132.84 C 143.482 131.052 143.934 129.491 144.56 129.357 C 145.186 129.223 145.751 130.566 145.821 132.355 Z " fill="rgb(153,41,83)"/><path d=" M 194.403 109.691 C 185.59 96.037 168.589 104.809 164.526 100.959 C 151.496 88.613 127.544 72.477 112.826 92.316 C 105.586 102.076 107.933 113.662 117.611 120.706 C 134.372 132.904 179.489 140.228 194.167 121.857 C 196.639 118.762 196.709 113.264 194.403 109.691 Z " fill="rgb(202,73,134)" vector-effect="non-scaling-stroke" stroke-width="4" stroke="rgb(153,41,83)" stroke-linejoin="miter" stroke-linecap="square" stroke-miterlimit="3"/><path d=" M 147.384 116.209 C 153.353 111.559 159.767 103.047 158.257 99.178 C 156.8 95.444 152.488 91.394 147.746 88.556 C 141.417 84.767 134.614 82.542 127.272 83.866 C 117.683 85.594 111.958 92.287 110.513 100.435 C 108.843 109.848 115.241 119.554 124.175 124.077 C 128.677 126.357 140.843 121.303 147.384 116.209 Z " fill="rgb(244,106,166)"/><path d=" M 120.141 117.607 C 122.082 119.172 124.942 119.216 127.039 118.03 C 130.506 116.071 129.755 110.976 125.466 109.876 C 122.397 109.089 119.446 110.708 118.719 113.162 C 118.247 114.757 118.641 116.398 120.141 117.607 Z " fill="rgb(247,143,204)"/><path d=" M 128.514 108.328 C 129.611 109.239 131.209 109.278 132.371 108.604 C 134.292 107.49 133.832 104.549 131.427 103.894 C 130.567 103.66 129.728 103.773 129.056 104.121 C 128.383 104.469 127.878 105.052 127.685 105.758 C 127.434 106.676 127.667 107.624 128.514 108.328 Z " fill="rgb(247,143,204)"/><path d=" M 145.262 108.108 C 145.882 108.639 146.775 108.668 147.418 108.285 C 148.482 107.652 148.202 105.954 146.853 105.565 C 145.888 105.287 144.982 105.81 144.778 106.622 C 144.645 107.15 144.783 107.698 145.262 108.108 Z " fill="rgb(247,143,204)"/><path d=" M 134.492 113.544 C 136.064 114.864 138.345 114.926 139.999 113.958 C 142.733 112.358 142.055 108.112 138.619 107.158 C 136.159 106.475 133.832 107.796 133.29 109.832 C 132.938 111.155 133.278 112.524 134.492 113.544 Z " fill="rgb(247,143,204)"/></g><g><path d=" M 130.714 155.834 C 129.713 155.079 129.195 154.194 129.557 153.858 C 129.919 153.523 131.026 153.864 132.026 154.619 C 133.027 155.373 133.546 156.259 133.184 156.594 C 132.822 156.929 131.715 156.589 130.714 155.834 Z " fill="rgb(153,41,83)"/><path d=" M 127.782 158.798 C 126.656 158.184 125.97 157.37 126.251 156.983 C 126.532 156.595 127.674 156.779 128.8 157.393 C 129.926 158.007 130.612 158.821 130.332 159.208 C 130.051 159.596 128.908 159.412 127.782 158.798 Z " fill="rgb(153,41,83)"/><path d=" M 145.432 188.63 C 145.006 189.599 144.221 190.224 143.68 190.024 C 143.14 189.824 143.047 188.875 143.473 187.906 C 143.9 186.937 144.685 186.312 145.225 186.512 C 145.766 186.712 145.858 187.661 145.432 188.63 Z " fill="rgb(153,41,83)"/><path d=" M 149.29 190.37 C 148.886 191.661 148.107 192.578 147.552 192.418 C 146.996 192.258 146.874 191.079 147.278 189.789 C 147.682 188.498 148.461 187.58 149.016 187.741 C 149.572 187.901 149.694 189.079 149.29 190.37 Z " fill="rgb(153,41,83)"/><path d=" M 189.659 149.134 C 175.994 142.969 170.143 156.001 165.272 154.895 C 149.648 151.347 124.76 149.481 126.849 169.454 C 127.876 179.28 136.242 185.737 146.522 187.69 C 165.872 191.368 199.281 178.524 196.613 157.863 C 196.201 154.674 193.235 150.747 189.659 149.134 Z " fill="rgb(202,73,134)" vector-effect="non-scaling-stroke" stroke-width="4" stroke="rgb(153,41,83)" stroke-linejoin="miter" stroke-linecap="square" stroke-miterlimit="3"/><path d=" M 163.177 172.37 C 164.329 166.677 163.523 158.069 160.327 155.936 C 157.242 153.878 152.147 152.745 147.475 152.642 C 141.239 152.505 135.6 153.665 131.66 157.556 C 126.516 162.637 126.538 169.711 130.475 176.029 C 135.162 183.551 145.783 186.716 154.111 186.327 C 158.308 186.13 162.018 178.094 163.177 172.37 Z " fill="rgb(244,106,166)"/><path d=" M 154.789 164.201 C 156.956 164.535 158.828 163.421 159.49 161.74 C 160.583 158.962 157.122 155.647 153.711 156.582 C 151.269 157.252 150.311 159.583 151.275 161.615 C 151.902 162.937 153.114 163.943 154.789 164.201 Z " fill="rgb(247,143,204)"/><path d=" M 153.83 170.572 C 155.07 170.78 156.124 170.168 156.481 169.225 C 157.07 167.665 155.055 165.762 153.12 166.26 C 151.736 166.616 151.218 167.924 151.793 169.08 C 152.167 169.832 152.871 170.412 153.83 170.572 Z " fill="rgb(247,143,204)"/><path d=" M 147.802 166.704 C 148.512 166.833 149.106 166.497 149.298 165.967 C 149.615 165.092 148.441 163.998 147.344 164.262 C 146.559 164.451 146.279 165.185 146.622 165.844 C 146.844 166.272 147.253 166.605 147.802 166.704 Z " fill="rgb(247,143,204)"/></g></g><path d=" M 205.856 70.753 C 199.69 66.075 189.331 67.491 187.503 75.537 C 186.808 78.595 187.453 81.435 189.098 84.103 C 194.455 92.79 211.14 90.912 210.74 79.757 C 210.606 76.032 208.803 72.988 205.856 70.753 Z " fill="rgb(202,73,134)"/><path d=" M 189.931 104.566 C 182.614 103.238 174.176 109.015 175.926 116.764 C 176.592 119.709 178.334 121.877 180.877 123.458 C 189.155 128.602 202.914 119.647 197.929 110.193 C 196.264 107.036 193.428 105.201 189.931 104.566 Z " fill="rgb(202,73,134)"/><path d=" M 182.233 150.788 C 177.104 155.335 176.843 163.421 183.82 165.224 C 186.472 165.909 189.126 165.547 191.775 164.402 C 200.395 160.675 201.179 147.67 191.07 147.442 C 187.694 147.366 184.684 148.615 182.233 150.788 Z " fill="rgb(202,73,134)"/></g><rect x="162.711" y="222.781" width="217.408" height="149.93" transform="matrix(0.901,0.434,-0.434,0.901,156.045,-88.27)" fill="rgb(235,235,235)"/><rect x="249.849" y="279.421" width="168.827" height="116.427" transform="matrix(0.791,0.612,-0.612,0.791,276.808,-133.988)" fill="rgb(236,210,210)"/><rect x="160.516" y="216.087" width="168.827" height="116.427" transform="matrix(0.981,0.192,-0.192,0.981,57.249,-41.938)" fill="rgb(220,236,210)"/><rect x="162.804" y="225.119" width="210.458" height="146.17" transform="matrix(0.901,0.434,-0.434,0.901,155.908,-86.757)" fill="rgb(154,169,200)"/><g><path d=" M 357.168 221.804 C 364.634 224.312 369.726 229.708 372.128 236.718 C 374.896 244.794 370.67 251.563 366.853 258.59 C 361.269 266.359 355.131 270.505 348.376 276.877 C 345.593 279.501 336.926 286.986 341.276 285.039 C 343.731 283.941 346.464 282.208 349.237 283.691 C 351.09 284.682 352.245 285.967 352.542 288.214 C 353.068 292.191 352.162 294.216 350.59 296.889 C 348.883 299.79 346.251 302.086 342.491 302.967 C 337.82 304.061 327.821 293.354 332.003 298.321 C 334.139 300.858 339.233 303.604 342.822 303.551 C 346.291 303.5 339.023 310.038 334.899 310.21 C 332.097 310.326 329.987 308.772 327.644 307.343 C 325.199 305.851 323.75 303.89 321.664 301.997 C 318.577 299.197 328.455 308.21 330.542 309.877 C 333.224 312.02 324.48 311.184 321.205 310.342 Q 315.908 308.981 310.371 300.492 C 308.614 294.886 308.937 296.472 309.621 291.085 C 310.147 286.946 308.193 298.646 310.315 301.432 C 311.561 303.069 306.3 299.57 305.273 297.829 C 303.17 294.263 302.748 292.524 303.048 289.631 C 303.214 287.017 306.76 283.471 308.225 279.88 C 310.53 274.228 309.679 268.608 312.146 263.012 C 314.614 257.411 318.422 253.615 322.003 248.64 C 325.837 243.31 329.127 238.852 333.29 233.724 C 338.19 227.691 343.102 219.763 352.393 220.713 C 354.104 220.888 355.532 221.254 357.168 221.804 Z " fill="rgb(250,193,210)" vector-effect="non-scaling-stroke" stroke-width="4" stroke="rgb(153,41,83)" stroke-linejoin="miter" stroke-linecap="square" stroke-miterlimit="3"/><path d=" M 347.433 214.492 Q 362.773 233.229 362.685 245.986 Q 362.576 261.793 339.553 282.22 C 367.533 261.603 378.434 243.579 372.219 228.126 Q 368.945 219.985 347.433 214.492 Z " fill="rgb(243,145,168)"/><path d=" M 344.044 236.798 C 347.362 238.002 351.466 234.622 352.311 231.39 C 352.976 228.846 351.846 226.435 348.978 226.241 C 345.457 226.002 342.438 229.38 341.935 232.376 C 341.608 234.324 342.139 236.107 344.044 236.798 Z " fill="rgb(246,128,164)"/><path d=" M 337.164 243.256 C 338.498 243.945 339.911 242.66 340.078 241.282 C 340.21 240.197 339.658 239.084 338.546 238.86 C 337.181 238.585 336.185 239.921 336.138 241.213 C 336.107 242.052 336.398 242.86 337.164 243.256 Z " fill="rgb(246,128,164)"/><path d=" M 317.609 287.551 C 318.942 288.241 320.355 286.955 320.523 285.577 C 320.655 284.493 320.103 283.379 318.991 283.155 C 317.626 282.88 316.63 284.217 316.582 285.508 C 316.552 286.347 316.842 287.156 317.609 287.551 Z " fill="rgb(246,128,164)"/><path d=" M 342.778 240.862 C 343.324 241.229 343.805 240.734 343.802 240.137 C 343.8 239.667 343.534 239.151 343.095 238.999 C 342.557 238.812 342.239 239.351 342.284 239.915 C 342.313 240.283 342.464 240.652 342.778 240.862 Z " fill="rgb(246,128,164)"/><path d=" M 338.76 236.778 C 340.111 236.574 340.466 234.895 339.854 233.806 C 339.373 232.95 338.373 232.433 337.434 232.857 C 336.281 233.378 336.26 234.874 336.914 235.836 C 337.339 236.462 337.985 236.895 338.76 236.778 Z " fill="rgb(246,128,164)"/></g><g><path d=" M 155.637 255.383 C 151.313 261.966 150.638 269.354 153.077 276.352 C 155.886 284.414 163.39 287.129 170.731 290.3 C 179.92 292.964 187.309 292.436 196.556 293.277 C 200.365 293.623 211.805 294.159 207.181 295.314 C 204.572 295.966 201.352 296.29 200.087 299.168 C 199.24 301.093 199.125 302.816 200.279 304.767 C 202.321 308.22 204.283 309.254 207.171 310.386 C 210.305 311.615 213.793 311.795 217.294 310.166 C 221.644 308.143 222.899 293.547 222.676 300.036 C 222.562 303.351 220.251 308.656 217.395 310.83 C 214.634 312.932 224.388 313.588 227.739 311.176 C 230.015 309.538 230.715 307.013 231.675 304.442 C 232.677 301.759 232.606 299.321 233.079 296.544 C 233.778 292.435 231.572 305.625 230.96 308.224 C 230.174 311.566 236.535 305.51 238.592 302.825 Q 241.919 298.485 241.033 288.388 C 238.954 282.893 239.679 284.34 235.814 280.525 C 232.845 277.594 241.606 285.591 241.657 289.092 C 241.687 291.15 243.666 285.148 243.399 283.145 C 242.851 279.041 242.109 277.413 240.087 275.323 C 238.343 273.37 233.364 272.769 229.995 270.849 C 224.691 267.826 221.891 262.879 216.496 260.001 C 211.096 257.119 205.756 256.484 199.868 254.781 C 193.561 252.956 188.221 251.48 181.779 250.018 C 174.2 248.296 165.441 245.093 158.72 251.577 C 157.482 252.771 156.584 253.941 155.637 255.383 Z " fill="rgb(250,193,210)" vector-effect="non-scaling-stroke" stroke-width="4" stroke="rgb(153,41,83)" stroke-linejoin="miter" stroke-linecap="square" stroke-miterlimit="3"/><path d=" M 175.218 259.075 C 173.352 262.07 168.037 261.946 165.376 259.925 C 163.283 258.335 162.683 255.741 164.819 253.817 C 167.441 251.455 171.901 252.248 174.147 254.294 C 175.607 255.625 176.29 257.355 175.218 259.075 Z " fill="rgb(246,128,164)"/><path d=" M 184.618 259.907 C 183.994 261.273 182.089 261.134 181.106 260.154 C 180.333 259.382 180.079 258.166 180.816 257.303 C 181.72 256.243 183.329 256.68 184.163 257.666 C 184.706 258.307 184.976 259.123 184.618 259.907 Z " fill="rgb(246,128,164)"/><path d=" M 227.35 282.677 C 226.726 284.043 224.821 283.904 223.838 282.923 C 223.065 282.152 222.811 280.935 223.548 280.072 C 224.452 279.013 226.06 279.449 226.895 280.436 C 227.438 281.077 227.708 281.893 227.35 282.677 Z " fill="rgb(246,128,164)"/><path d=" M 178.724 261.49 C 178.521 262.116 177.836 262.023 177.47 261.552 C 177.181 261.181 177.073 260.611 177.323 260.221 C 177.631 259.741 178.214 259.969 178.527 260.441 C 178.731 260.747 178.84 261.131 178.724 261.49 Z " fill="rgb(246,128,164)"/><path d=" M 179.362 255.797 C 178.174 256.47 176.858 255.369 176.667 254.135 C 176.516 253.164 176.984 252.14 177.985 251.894 C 179.213 251.592 180.153 252.756 180.233 253.916 C 180.285 254.671 180.044 255.41 179.362 255.797 Z " fill="rgb(246,128,164)"/></g><path d=" M 303.865 138.083 C 305.901 135.797 308.836 135.311 311.8 135.764 C 316.579 136.493 316.838 142.283 320.111 145.305 C 322.128 147.166 323.282 149.982 326.189 150.204 Q 328.901 150.411 332.681 146.777 Q 331.528 150.552 330.157 152.163 C 325.706 157.396 317.998 153.616 312.962 152.15 C 307.002 150.123 303.185 150.238 302.171 145.335 C 301.624 142.691 302.051 140.121 303.865 138.083 Z " fill="rgb(83,83,83)"/><path d=" M 303.799 137.706 C 301.697 135.479 298.75 135.079 295.8 135.617 C 291.045 136.485 290.953 142.28 287.769 145.395 C 285.806 147.314 284.735 150.162 281.835 150.468 Q 279.13 150.753 275.247 147.23 Q 276.509 150.971 277.926 152.541 C 282.527 157.643 290.122 153.642 295.113 152.03 C 301.012 149.832 304.831 149.835 305.702 144.906 C 306.173 142.247 305.671 139.69 303.799 137.706 Z " fill="rgb(83,83,83)"/><mask id="_mask_JBrF0mikV3D4u2Vov7rbYZeKQtoEV23z"><ellipse vector-effect="non-scaling-stroke" cx="248.28142136515953" cy="108.64524330031477" rx="38.812499999999986" ry="35.625" fill="white" stroke="none"/></mask><ellipse vector-effect="non-scaling-stroke" cx="248.28142136515953" cy="108.64524330031477" rx="38.812499999999986" ry="35.625" fill="none"/><ellipse vector-effect="non-scaling-stroke" cx="248.28142136515953" cy="108.64524330031477" rx="38.812499999999986" ry="35.625" fill="none" mask="url(#_mask_JBrF0mikV3D4u2Vov7rbYZeKQtoEV23z)" stroke-width="14" stroke="rgb(83,83,83)" stroke-linejoin="miter" stroke-linecap="square" stroke-miterlimit="3"/></g></svg>