<?xml version="1.0" encoding="UTF-8" standalone="no"?><!-- Generator: Gravit.io --><svg xmlns="http://www.w3.org/2000/svg" xmlns:xlink="http://www.w3.org/1999/xlink" style="isolation:isolate" viewBox="0 0 666.667 666.667" width="666.667pt" height="666.667pt"><defs><clipPath id="_clipPath_dOSNeso28rw8avSXXPNM51eJGqau05p1"><rect width="666.667" height="666.667"/></clipPath></defs><g clip-path="url(#_clipPath_dOSNeso28rw8avSXXPNM51eJGqau05p1)"><g><path d=" M 477.966 403.682 C 479.254 419.082 478.521 432.682 472.5 447 C 463.149 469.238 443.22 479.255 423.728 492.39 C 378.076 523.155 328.956 534.516 274.446 526.782 C 241.021 522.039 213.685 511.189 185.491 492.666 C 126.003 453.583 77.555 397.72 85.587 324.391 C 92.478 261.483 131.802 212.088 190.784 189.498 C 207.04 183.271 221.447 176.79 238.993 178.909 C 303.127 186.653 158.69 241.356 176.243 305.081 C 184.752 335.97 199.378 349.944 222.319 358.87 C 275.733 379.653 328.361 312.841 399.487 311.703 C 416.327 311.433 433.167 324.204 447.025 337.557 C 465.917 355.76 475.783 377.577 477.966 403.682 Z " fill="rgb(243,145,168)" vector-effect="non-scaling-stroke" stroke-width="6" stroke="rgb(153,41,83)" stroke-linejoin="miter" stroke-linecap="square" stroke-miterlimit="3"/><path d=" M 461.5 378.881 C 474.285 415.329 450.923 443.531 427.775 466.351 C 410.839 483.046 389.916 493.592 367.648 500.497 C 336.042 510.297 306.277 517.521 271.584 510.944 C 238.779 504.724 211.692 491.108 184.443 468.726 C 139.423 431.746 98.989 384.714 101.47 323.915 C 103.494 274.32 129.25 237.861 167.723 214.495 C 175.294 209.897 181.63 205.463 190.387 203.581 C 230.055 195.054 147.755 263.593 158.166 302.175 C 169.699 344.919 202.824 371.402 241.195 381.763 C 289.783 394.883 328.735 341.144 381.135 331.156 C 407.584 326.114 427.766 332.125 445.51 351.626 C 452.977 359.833 457.799 368.331 461.5 378.881 Z " fill="rgb(250,193,210)"/><path d=" M 420.311 340.029 C 415.349 339.325 412.818 344.764 414.177 349.172 C 415.247 352.641 418.419 355.476 422.083 354.988 C 426.58 354.389 427.781 349.232 426.177 345.218 C 425.134 342.608 423.162 340.434 420.311 340.029 Z " fill="rgb(246,128,164)"/><path d=" M 119.98 286.26 C 114.979 286.178 111.621 292.492 112.404 297.135 C 113.02 300.789 115.887 303.454 119.72 302.409 C 124.425 301.127 126.376 295.307 125.286 291.13 C 124.578 288.415 122.854 286.307 119.98 286.26 Z " fill="rgb(246,128,164)"/><path d=" M 118.992 312.393 C 110.801 312.059 105.56 322.134 107.029 329.673 C 108.186 335.605 112.985 340.03 119.216 338.496 C 126.866 336.613 129.825 327.281 127.873 320.483 C 126.604 316.063 123.696 312.585 118.992 312.393 Z " fill="rgb(246,128,164)"/><path d=" M 129.902 302.639 C 126.594 302.53 124.444 306.633 125.013 309.686 C 125.461 312.088 127.385 313.867 129.907 313.225 C 133.004 312.436 134.23 308.641 133.463 305.891 C 132.965 304.102 131.802 302.701 129.902 302.639 Z " fill="rgb(246,128,164)"/><path d=" M 221.961 192.848 C 217.499 189.059 208.723 191.693 205.221 196.049 C 202.465 199.478 202.647 203.777 207.071 205.781 C 212.503 208.241 219.554 204.962 222.355 200.756 C 224.176 198.021 224.525 195.025 221.961 192.848 Z " fill="rgb(253,230,239)"/><path d=" M 233.055 193.034 C 231.2 190.997 227.723 192.213 226.391 194.409 C 225.342 196.138 225.488 198.367 227.297 199.478 C 229.518 200.843 232.292 199.265 233.346 197.134 C 234.03 195.749 234.12 194.204 233.055 193.034 Z " fill="rgb(253,230,239)"/><path d=" M 230.246 189.65 C 231.138 188.656 230.285 187.437 229.089 187.191 C 228.148 186.997 227.04 187.34 226.608 188.198 C 226.079 189.251 227.065 190.146 228.208 190.29 C 228.951 190.384 229.733 190.221 230.246 189.65 Z " fill="rgb(253,230,239)"/><path d=" M 303.585 489.586 C 302.839 489.504 302.427 490.354 302.609 491.024 C 302.752 491.552 303.217 491.97 303.773 491.876 C 304.456 491.76 304.665 490.961 304.444 490.352 C 304.3 489.957 304.013 489.633 303.585 489.586 Z " fill="rgb(246,128,164)"/><path d=" M 284.564 488.787 C 282.173 490.1 283.318 492.038 285.691 492.6 C 287.558 493.042 290.059 492.724 291.414 491.534 C 293.077 490.074 291.483 488.591 289.167 488.188 C 287.661 487.925 285.938 488.033 284.564 488.787 Z " fill="rgb(246,128,164)"/><path d=" M 259.933 484.768 C 258.208 484.552 257.292 486.481 257.737 488.023 C 258.088 489.236 259.176 490.212 260.456 490.018 C 262.028 489.779 262.479 487.957 261.945 486.556 C 261.598 485.645 260.924 484.893 259.933 484.768 Z " fill="rgb(246,128,164)"/><path d=" M 298.256 491.613 C 296.531 491.396 295.615 493.325 296.061 494.867 C 296.411 496.08 297.499 497.057 298.779 496.862 C 300.351 496.623 300.802 494.802 300.268 493.4 C 299.921 492.489 299.248 491.737 298.256 491.613 Z " fill="rgb(246,128,164)"/><path d=" M 260.421 495.332 C 257.109 501.062 262.518 506.541 268.584 506.831 C 273.357 507.059 278.391 504.446 279.602 499.772 C 281.089 494.033 275.369 490.297 269.665 490.48 C 265.956 490.599 262.322 492.041 260.421 495.332 Z " fill="rgb(246,128,164)"/><path d=" M 286.036 496.046 C 282.046 495.484 280.005 499.864 281.094 503.411 C 281.951 506.201 284.5 508.479 287.447 508.083 C 291.065 507.597 292.035 503.445 290.749 500.216 C 289.913 498.117 288.329 496.369 286.036 496.046 Z " fill="rgb(246,128,164)"/><path d=" M 409.695 347.873 C 408.49 347.696 407.882 349.011 408.217 350.079 C 408.48 350.92 409.253 351.61 410.142 351.496 C 411.232 351.356 411.518 350.109 411.124 349.135 C 410.868 348.502 410.387 347.974 409.695 347.873 Z " fill="rgb(246,128,164)"/><path d=" M 406.462 335.996 C 404.016 335.644 402.776 338.317 403.451 340.488 C 403.981 342.196 405.547 343.594 407.351 343.358 C 409.566 343.069 410.152 340.533 409.357 338.556 C 408.84 337.27 407.866 336.199 406.462 335.996 Z " fill="rgb(246,128,164)"/></g><g><path d=" M 477.966 403.682 C 479.254 419.082 478.521 432.682 472.5 447 C 463.149 469.238 443.22 479.255 423.728 492.39 C 378.076 523.155 328.956 534.516 274.446 526.782 C 241.021 522.039 213.685 511.189 185.491 492.666 C 126.003 453.583 77.555 397.72 85.587 324.391 C 92.478 261.483 131.802 212.088 190.784 189.498 C 207.04 183.271 221.447 176.79 238.993 178.909 C 303.127 186.653 158.69 241.356 176.243 305.081 C 184.752 335.97 199.378 349.944 222.319 358.87 C 275.733 379.653 328.361 312.841 399.487 311.703 C 416.327 311.433 433.167 324.204 447.025 337.557 C 465.917 355.76 475.783 377.577 477.966 403.682 Z " fill="rgb(243,145,168)" vector-effect="non-scaling-stroke" stroke-width="6" stroke="rgb(153,41,83)" stroke-linejoin="miter" stroke-linecap="square" stroke-miterlimit="3"/><path d=" M 461.5 378.881 C 474.285 415.329 450.923 443.531 427.775 466.351 C 410.839 483.046 389.916 493.592 367.648 500.497 C 336.042 510.297 306.277 517.521 271.584 510.944 C 238.779 504.724 211.692 491.108 184.443 468.726 C 139.423 431.746 98.989 384.714 101.47 323.915 C 103.494 274.32 129.25 237.861 167.723 214.495 C 175.294 209.897 181.63 205.463 190.387 203.581 C 230.055 195.054 147.755 263.593 158.166 302.175 C 169.699 344.919 202.824 371.402 241.195 381.763 C 289.783 394.883 328.735 341.144 381.135 331.156 C 407.584 326.114 427.766 332.125 445.51 351.626 C 452.977 359.833 457.799 368.331 461.5 378.881 Z " fill="rgb(250,193,210)"/><path d=" M 420.311 340.029 C 415.349 339.325 412.818 344.764 414.177 349.172 C 415.247 352.641 418.419 355.476 422.083 354.988 C 426.58 354.389 427.781 349.232 426.177 345.218 C 425.134 342.608 423.162 340.434 420.311 340.029 Z " fill="rgb(246,128,164)"/><path d=" M 119.98 286.26 C 114.979 286.178 111.621 292.492 112.404 297.135 C 113.02 300.789 115.887 303.454 119.72 302.409 C 124.425 301.127 126.376 295.307 125.286 291.13 C 124.578 288.415 122.854 286.307 119.98 286.26 Z " fill="rgb(246,128,164)"/><path d=" M 118.992 312.393 C 110.801 312.059 105.56 322.134 107.029 329.673 C 108.186 335.605 112.985 340.03 119.216 338.496 C 126.866 336.613 129.825 327.281 127.873 320.483 C 126.604 316.063 123.696 312.585 118.992 312.393 Z " fill="rgb(246,128,164)"/><path d=" M 129.902 302.639 C 126.594 302.53 124.444 306.633 125.013 309.686 C 125.461 312.088 127.385 313.867 129.907 313.225 C 133.004 312.436 134.23 308.641 133.463 305.891 C 132.965 304.102 131.802 302.701 129.902 302.639 Z " fill="rgb(246,128,164)"/><path d=" M 221.961 192.848 C 217.499 189.059 208.723 191.693 205.221 196.049 C 202.465 199.478 202.647 203.777 207.071 205.781 C 212.503 208.241 219.554 204.962 222.355 200.756 C 224.176 198.021 224.525 195.025 221.961 192.848 Z " fill="rgb(253,230,239)"/><path d=" M 233.055 193.034 C 231.2 190.997 227.723 192.213 226.391 194.409 C 225.342 196.138 225.488 198.367 227.297 199.478 C 229.518 200.843 232.292 199.265 233.346 197.134 C 234.03 195.749 234.12 194.204 233.055 193.034 Z " fill="rgb(253,230,239)"/><path d=" M 230.246 189.65 C 231.138 188.656 230.285 187.437 229.089 187.191 C 228.148 186.997 227.04 187.34 226.608 188.198 C 226.079 189.251 227.065 190.146 228.208 190.29 C 228.951 190.384 229.733 190.221 230.246 189.65 Z " fill="rgb(253,230,239)"/><path d=" M 303.585 489.586 C 302.839 489.504 302.427 490.354 302.609 491.024 C 302.752 491.552 303.217 491.97 303.773 491.876 C 304.456 491.76 304.665 490.961 304.444 490.352 C 304.3 489.957 304.013 489.633 303.585 489.586 Z " fill="rgb(246,128,164)"/><path d=" M 284.564 488.787 C 282.173 490.1 283.318 492.038 285.691 492.6 C 287.558 493.042 290.059 492.724 291.414 491.534 C 293.077 490.074 291.483 488.591 289.167 488.188 C 287.661 487.925 285.938 488.033 284.564 488.787 Z " fill="rgb(246,128,164)"/><path d=" M 259.933 484.768 C 258.208 484.552 257.292 486.481 257.737 488.023 C 258.088 489.236 259.176 490.212 260.456 490.018 C 262.028 489.779 262.479 487.957 261.945 486.556 C 261.598 485.645 260.924 484.893 259.933 484.768 Z " fill="rgb(246,128,164)"/><path d=" M 298.256 491.613 C 296.531 491.396 295.615 493.325 296.061 494.867 C 296.411 496.08 297.499 497.057 298.779 496.862 C 300.351 496.623 300.802 494.802 300.268 493.4 C 299.921 492.489 299.248 491.737 298.256 491.613 Z " fill="rgb(246,128,164)"/><path d=" M 260.421 495.332 C 257.109 501.062 262.518 506.541 268.584 506.831 C 273.357 507.059 278.391 504.446 279.602 499.772 C 281.089 494.033 275.369 490.297 269.665 490.48 C 265.956 490.599 262.322 492.041 260.421 495.332 Z " fill="rgb(246,128,164)"/><path d=" M 286.036 496.046 C 282.046 495.484 280.005 499.864 281.094 503.411 C 281.951 506.201 284.5 508.479 287.447 508.083 C 291.065 507.597 292.035 503.445 290.749 500.216 C 289.913 498.117 288.329 496.369 286.036 496.046 Z " fill="rgb(246,128,164)"/><path d=" M 409.695 347.873 C 408.49 347.696 407.882 349.011 408.217 350.079 C 408.48 350.92 409.253 351.61 410.142 351.496 C 411.232 351.356 411.518 350.109 411.124 349.135 C 410.868 348.502 410.387 347.974 409.695 347.873 Z " fill="rgb(246,128,164)"/><path d=" M 406.462 335.996 C 404.016 335.644 402.776 338.317 403.451 340.488 C 403.981 342.196 405.547 343.594 407.351 343.358 C 409.566 343.069 410.152 340.533 409.357 338.556 C 408.84 337.27 407.866 336.199 406.462 335.996 Z " fill="rgb(246,128,164)"/></g><g><path d=" M 454.653 438.569 C 453.565 446.37 449.202 452.37 442.755 456.024 C 435.327 460.234 427.896 457.329 420.285 454.873 C 411.619 450.819 406.412 445.551 398.904 440.087 C 395.811 437.836 386.856 430.698 389.572 434.615 C 391.104 436.825 393.311 439.191 392.365 442.19 C 391.733 444.194 390.684 445.566 388.529 446.273 C 384.718 447.523 382.561 447.006 379.644 445.954 C 376.477 444.812 373.735 442.648 372.176 439.115 C 370.239 434.726 378.918 422.923 374.808 427.95 C 372.708 430.518 370.949 436.031 371.663 439.548 C 372.353 442.948 364.586 437.011 363.657 432.989 C 363.026 430.257 364.164 427.897 365.136 425.331 C 366.152 422.652 367.812 420.866 369.287 418.466 C 371.47 414.916 364.434 426.287 363.18 428.645 C 361.569 431.677 360.778 422.929 361.001 419.554 Q 361.361 414.098 368.684 407.09 C 373.869 404.329 372.37 404.939 377.791 404.618 C 381.956 404.372 370.096 404.608 367.75 407.208 C 366.371 408.735 368.839 402.918 370.361 401.588 C 373.478 398.863 375.109 398.128 378.007 397.89 C 380.607 397.571 384.747 400.401 388.546 401.178 C 394.526 402.402 399.893 400.528 405.848 401.921 C 411.808 403.314 416.241 406.356 421.792 408.957 C 427.737 411.743 432.726 414.154 438.533 417.3 C 445.367 421.003 454.065 424.369 454.845 433.675 C 454.988 435.389 454.892 436.86 454.653 438.569 Z " fill="rgb(250,193,210)" vector-effect="non-scaling-stroke" stroke-width="4" stroke="rgb(153,41,83)" stroke-linejoin="miter" stroke-linecap="square" stroke-miterlimit="3"/><path d=" M 460.044 427.653 Q 444.458 446.186 431.904 448.452 Q 416.348 451.261 392.025 432.4 C 417.449 456.097 437.175 463.487 451.216 454.529 Q 458.614 449.809 460.044 427.653 Z " fill="rgb(243,145,168)"/><path d=" M 437.496 428.437 C 436.925 431.919 441.003 435.329 444.336 435.564 C 446.959 435.748 449.12 434.193 448.782 431.338 C 448.367 427.833 444.491 425.489 441.453 425.548 C 439.478 425.586 437.824 426.436 437.496 428.437 Z " fill="rgb(246,128,164)"/><path d=" M 429.879 422.866 C 429.448 424.304 430.972 425.455 432.357 425.366 C 433.448 425.295 434.44 424.548 434.455 423.414 C 434.474 422.021 432.977 421.289 431.699 421.48 C 430.868 421.605 430.127 422.04 429.879 422.866 Z " fill="rgb(246,128,164)"/><path d=" M 382.737 411.816 C 382.306 413.254 383.83 414.406 385.215 414.316 C 386.305 414.246 387.298 413.498 387.313 412.364 C 387.332 410.972 385.834 410.239 384.556 410.431 C 383.726 410.555 382.985 410.99 382.737 411.816 Z " fill="rgb(246,128,164)"/><path d=" M 433.268 427.942 C 433.008 428.546 433.584 428.927 434.17 428.814 C 434.631 428.726 435.089 428.369 435.158 427.91 C 435.242 427.347 434.654 427.134 434.107 427.282 C 433.752 427.378 433.417 427.594 433.268 427.942 Z " fill="rgb(246,128,164)"/><path d=" M 436.541 423.24 C 436.991 424.529 438.706 424.569 439.663 423.767 C 440.417 423.136 440.74 422.057 440.15 421.213 C 439.425 420.176 437.951 420.431 437.126 421.252 C 436.59 421.785 436.283 422.499 436.541 423.24 Z " fill="rgb(246,128,164)"/></g><g><path d=" M 328.53 350.133 C 321.861 345.998 314.558 345.559 307.777 348.238 C 299.963 351.325 297.617 358.958 294.816 366.443 C 292.595 375.769 293.437 383.182 293.013 392.508 C 292.838 396.35 292.81 407.87 291.471 403.257 C 290.716 400.655 290.256 397.428 287.367 396.249 C 285.436 395.46 283.735 395.4 281.864 396.624 C 278.554 398.789 277.622 400.796 276.634 403.736 C 275.561 406.927 275.536 410.44 277.292 413.908 C 279.474 418.217 293.897 419.006 287.5 418.992 C 284.231 418.984 278.908 416.832 276.643 414.031 C 274.453 411.323 274.233 421.153 276.754 424.443 C 278.466 426.679 280.982 427.301 283.555 428.183 C 286.24 429.104 288.636 428.954 291.391 429.339 C 295.466 429.909 282.386 428.119 279.8 427.588 C 276.476 426.905 282.716 433.105 285.448 435.087 Q 289.867 438.291 299.767 437.073 C 305.086 434.804 303.693 435.58 307.28 431.571 C 310.036 428.489 302.546 437.559 299.101 437.724 C 297.077 437.82 303.071 439.616 305.032 439.282 C 309.048 438.599 310.618 437.8 312.587 435.699 C 314.434 433.881 314.808 428.855 316.551 425.405 C 319.295 419.974 324.043 416.998 326.641 411.48 C 329.242 405.956 329.634 400.567 331.054 394.59 C 332.575 388.189 333.795 382.771 334.953 376.247 C 336.317 368.57 339.088 359.658 332.412 353.11 C 331.182 351.904 329.992 351.039 328.53 350.133 Z " fill="rgb(250,193,210)" vector-effect="non-scaling-stroke" stroke-width="4" stroke="rgb(153,41,83)" stroke-linejoin="miter" stroke-linecap="square" stroke-miterlimit="3"/><path d=" M 334.449 348.448 Q 314.465 352.849 306.688 360.676 Q 295.708 371.726 294.686 402.764 C 289.414 367.955 294.11 348.741 308.786 345.08 C 316.437 343.171 324.524 342.947 334.449 348.448 Z " fill="rgb(243,145,168)"/><path d=" M 323.51 366.71 C 321.806 367.199 320.212 365.269 320.152 363.551 C 320.104 362.199 320.896 360.99 322.28 361.008 C 323.979 361.03 325.057 362.914 324.98 364.495 C 324.929 365.523 324.489 366.429 323.51 366.71 Z " fill="rgb(246,128,164)"/><path d=" M 284.304 405.361 C 282.933 404.778 282.986 402.858 283.908 401.838 C 284.634 401.035 285.82 400.741 286.702 401.453 C 287.785 402.328 287.425 403.96 286.49 404.831 C 285.883 405.397 285.092 405.696 284.304 405.361 Z " fill="rgb(246,128,164)"/><path d=" M 329.465 364.738 C 328.093 364.155 328.146 362.235 329.069 361.215 C 329.795 360.412 330.981 360.118 331.863 360.83 C 332.945 361.705 332.586 363.337 331.651 364.208 C 331.043 364.774 330.253 365.073 329.465 364.738 Z " fill="rgb(246,128,164)"/><path d=" M 326.421 356.397 C 325.796 356.213 325.858 355.522 326.306 355.138 C 326.658 354.836 327.215 354.708 327.61 354.948 C 328.095 355.242 327.897 355.835 327.446 356.165 C 327.153 356.38 326.78 356.502 326.421 356.397 Z " fill="rgb(246,128,164)"/><path d=" M 320.124 357.39 C 319.409 356.217 320.435 354.858 321.642 354.626 C 322.591 354.444 323.62 354.881 323.906 355.879 C 324.257 357.104 323.152 358.087 322.013 358.205 C 321.272 358.281 320.534 358.064 320.124 357.39 Z " fill="rgb(246,128,164)"/></g><g><path d=" M 233.093 377.852 C 230.787 384.407 226.98 389.497 221.153 393.53 C 214.14 398.383 206.482 400.255 198.333 398.758 C 189.344 397.107 184.944 391.443 178.793 383.846 C 171.704 375.089 167.932 365.706 163.269 355.231 C 160.224 348.388 158.739 342.121 155.598 335.323 C 151.326 326.075 127.752 312.638 141.193 310.251 C 146.081 309.383 150.423 309.764 154.134 313.617 C 158.405 318.052 147.341 302.426 153.18 298.125 C 158.444 294.245 166.142 301.287 168.03 304.476 C 170.406 308.49 165.943 291.058 172.079 287.493 C 182.275 281.569 181.02 298.864 186.269 304.683 C 190.133 308.965 193.59 312.418 197.657 316.513 C 206.075 324.988 213.137 330.748 222.398 339.851 C 229.133 346.47 233.683 354.011 234.539 363.729 C 234.975 368.676 234.786 373.038 233.093 377.852 Z " fill="rgb(250,193,210)" vector-effect="non-scaling-stroke" stroke-width="4" stroke="rgb(153,41,83)" stroke-linejoin="miter" stroke-linecap="square" stroke-miterlimit="3"/><path d=" M 206.061 377.426 C 209.377 379.746 210.058 384.506 207.58 388.049 C 205.102 391.591 200.397 392.584 197.081 390.264 C 193.764 387.944 193.084 383.185 195.562 379.642 C 198.04 376.099 202.744 375.107 206.061 377.426 Z " fill="rgb(246,128,164)"/><path d=" M 206.061 377.426 C 209.377 379.746 210.058 384.506 207.58 388.049 C 205.102 391.591 200.397 392.584 197.081 390.264 C 193.764 387.944 193.084 383.185 195.562 379.642 C 198.04 376.099 202.744 375.107 206.061 377.426 Z " fill="rgb(246,128,164)"/><path d=" M 197.1 366.684 C 199.286 368.213 199.777 371.29 198.195 373.551 C 196.613 375.813 193.554 376.407 191.368 374.878 C 189.182 373.349 188.692 370.272 190.274 368.011 C 191.855 365.749 194.914 365.155 197.1 366.684 Z " fill="rgb(246,128,164)"/><path d=" M 208.521 368.563 C 209.962 369.57 210.312 371.56 209.302 373.004 C 208.293 374.447 206.303 374.801 204.863 373.793 C 203.422 372.785 203.072 370.795 204.082 369.352 C 205.091 367.908 207.081 367.555 208.521 368.563 Z " fill="rgb(246,128,164)"/><path d=" M 230.935 394.114 C 224.331 409.046 204.489 414.765 186.653 406.877 C 168.817 398.989 159.698 380.462 166.302 365.529 C 172.906 350.597 192.748 344.878 210.584 352.766 C 228.42 360.654 237.539 379.182 230.935 394.114 Z " fill="rgb(250,193,210)"/></g><g><path d=" M 191.127 443.815 C 192.927 450.527 192.659 456.878 190.128 463.497 C 187.081 471.463 181.819 477.333 174.249 480.699 C 165.897 484.413 159.067 482.224 149.701 479.428 C 138.905 476.205 130.493 470.592 120.729 464.58 C 114.352 460.654 109.587 456.32 103.156 452.483 C 94.407 447.265 67.364 449.489 77.108 439.928 C 80.652 436.451 84.45 434.313 89.689 435.398 C 95.718 436.645 77.763 429.999 80.152 423.151 C 82.306 416.977 92.635 418.441 95.994 420.006 C 100.222 421.977 86.694 410.112 89.744 403.704 C 94.813 393.056 103.545 408.039 111.163 409.876 C 116.77 411.228 121.573 412.126 127.242 413.208 C 138.975 415.447 148.056 416.213 160.84 418.495 C 170.137 420.154 178.15 423.808 184.344 431.344 C 187.498 435.18 189.806 438.887 191.127 443.815 Z " fill="rgb(250,193,210)" vector-effect="non-scaling-stroke" stroke-width="4" stroke="rgb(153,41,83)" stroke-linejoin="miter" stroke-linecap="square" stroke-miterlimit="3"/><path d=" M 139.107 420.441 C 141.882 421.099 143.635 423.74 143.019 426.336 C 142.403 428.932 139.651 430.505 136.876 429.846 C 134.102 429.188 132.349 426.547 132.965 423.951 C 133.58 421.356 136.333 419.783 139.107 420.441 Z " fill="rgb(246,128,164)"/><path d=" M 126.375 423.93 C 128.031 424.323 129.039 426.058 128.625 427.804 C 128.211 429.549 126.531 430.647 124.875 430.254 C 123.219 429.862 122.211 428.126 122.625 426.38 C 123.039 424.635 124.719 423.537 126.375 423.93 Z " fill="rgb(246,128,164)"/><path d=" M 130.76 430.374 C 131.748 430.609 132.325 431.752 132.046 432.925 C 131.768 434.099 130.74 434.861 129.751 434.627 C 128.763 434.393 128.187 433.25 128.465 432.076 C 128.744 430.903 129.772 430.14 130.76 430.374 Z " fill="rgb(246,128,164)"/><path d=" M 139.15 431.545 C 139.74 431.685 140.067 432.439 139.88 433.228 C 139.692 434.017 139.062 434.544 138.472 434.405 C 137.882 434.265 137.556 433.51 137.743 432.721 C 137.93 431.932 138.561 431.405 139.15 431.545 Z " fill="rgb(246,128,164)"/><path d=" M 154.8 409.477 C 166.855 402.949 183.629 410.549 192.234 426.439 C 200.839 442.329 198.039 460.53 185.984 467.059 C 173.928 473.587 157.155 465.987 148.549 450.097 C 139.944 434.207 142.745 416.006 154.8 409.477 Z " fill="rgb(250,193,210)"/></g><g><g><g><path d=" M 565.907 196.434 C 565.297 195.139 564.367 194.321 563.831 194.609 C 563.295 194.898 563.355 196.183 563.964 197.478 C 564.574 198.773 565.504 199.591 566.04 199.303 C 566.576 199.014 566.516 197.729 565.907 196.434 Z " fill="rgb(153,41,83)"/><path d=" M 570.557 194.175 C 570.163 192.788 569.378 191.812 568.803 191.998 C 568.229 192.184 568.082 193.461 568.475 194.848 C 568.869 196.235 569.655 197.211 570.229 197.025 C 570.803 196.84 570.95 195.563 570.557 194.175 Z " fill="rgb(153,41,83)"/><path d=" M 601.85 221.914 C 603.196 221.745 604.23 221.09 604.16 220.452 C 604.089 219.814 602.939 219.434 601.594 219.602 C 600.249 219.771 599.214 220.426 599.285 221.064 C 599.355 221.702 600.505 222.082 601.85 221.914 Z " fill="rgb(153,41,83)"/><path d=" M 602.745 226.559 C 604.483 226.509 605.881 225.947 605.864 225.306 C 605.847 224.664 604.422 224.183 602.684 224.233 C 600.946 224.283 599.549 224.844 599.566 225.486 C 599.582 226.128 601.007 226.609 602.745 226.559 Z " fill="rgb(153,41,83)"/><path d=" M 538.192 257.535 C 535.02 241.081 553.149 238.684 553.376 233.142 C 554.101 215.368 559.966 188.177 584.115 196.336 C 595.997 200.351 599.818 211.186 600.323 222.802 C 601.356 246.547 569.418 268.184 546.761 267.567 C 542.72 267.457 539.022 261.84 538.192 257.535 Z " fill="rgb(202,73,134)" vector-effect="non-scaling-stroke" stroke-width="4" stroke="rgb(153,41,83)" stroke-linejoin="miter" stroke-linecap="square" stroke-miterlimit="3"/><path d=" M 576.822 233.753 C 569.701 233.321 559.732 230.146 558.204 226.364 C 556.729 222.714 556.984 217.313 558.331 212.619 C 560.128 206.353 563.278 201.042 569.136 198.184 C 576.786 194.451 585.088 196.586 591.445 202.106 C 598.79 208.484 600.85 219.349 597.77 227.558 C 596.217 231.695 584.624 234.226 576.822 233.753 Z " fill="rgb(244,106,166)"/><path d=" M 580.535 205.319 C 580.237 207.737 578.237 209.41 575.929 209.62 C 572.115 209.966 569.13 205.278 571.415 201.905 C 573.051 199.491 576.264 199.156 578.475 200.791 C 579.912 201.853 580.765 203.45 580.535 205.319 Z " fill="rgb(247,143,204)"/><path d=" M 571.418 210.508 C 571.268 211.898 570.16 212.844 568.87 212.946 C 566.737 213.114 565.033 210.392 566.288 208.47 C 567.186 207.094 568.983 206.927 570.232 207.886 C 571.044 208.509 571.533 209.435 571.418 210.508 Z " fill="rgb(247,143,204)"/><path d=" M 575.637 212.614 C 575.563 213.412 574.95 213.948 574.228 213.996 C 573.035 214.076 572.062 212.496 572.751 211.399 C 573.244 210.615 574.249 210.534 574.955 211.095 C 575.414 211.461 575.694 211.997 575.637 212.614 Z " fill="rgb(247,143,204)"/><path d=" M 595.738 223.673 C 595.533 225.675 593.956 227.033 592.113 227.17 C 589.068 227.398 586.616 223.461 588.398 220.697 C 589.673 218.719 592.238 218.492 594.028 219.883 C 595.192 220.788 595.896 222.126 595.738 223.673 Z " fill="rgb(247,143,204)"/></g><g><path d=" M 603.296 261.743 C 603.686 260.486 603.561 259.349 603.016 259.206 C 602.471 259.062 601.711 259.965 601.321 261.221 C 600.93 262.478 601.056 263.615 601.601 263.758 C 602.146 263.902 602.905 262.999 603.296 261.743 Z " fill="rgb(153,41,83)"/><path d=" M 607.874 263.152 C 608.469 261.97 608.541 260.818 608.033 260.581 C 607.526 260.344 606.631 261.111 606.035 262.293 C 605.44 263.476 605.368 264.628 605.876 264.865 C 606.383 265.102 607.278 264.335 607.874 263.152 Z " fill="rgb(153,41,83)"/><path d=" M 611.947 301.555 C 612.969 302.289 614.083 302.5 614.432 302.026 C 614.78 301.552 614.233 300.571 613.211 299.837 C 612.188 299.103 611.074 298.892 610.726 299.366 C 610.377 299.84 610.924 300.821 611.947 301.555 Z " fill="rgb(153,41,83)"/><path d=" M 609.665 305.247 C 610.881 306.309 612.184 306.812 612.572 306.369 C 612.96 305.926 612.287 304.704 611.071 303.642 C 609.855 302.58 608.552 302.078 608.164 302.521 C 607.776 302.964 608.448 304.185 609.665 305.247 Z " fill="rgb(153,41,83)"/><path d=" M 546.35 285.421 C 554.432 272.341 568.289 282.153 571.894 278.564 C 583.455 267.052 604.385 252.438 615.776 273.153 C 621.38 283.345 617.24 293.05 610.352 301.191 C 596.272 317.832 563.333 313.561 545.949 297.577 C 543.185 295.037 544.236 288.843 546.35 285.421 Z " fill="rgb(202,73,134)" vector-effect="non-scaling-stroke" stroke-width="4" stroke="rgb(153,41,83)" stroke-linejoin="miter" stroke-linecap="square" stroke-miterlimit="3"/><path d=" M 585.7 294.988 C 581.014 290.078 576.161 281.353 577.608 277.645 C 579.004 274.066 582.772 270.345 586.832 267.838 C 592.252 264.49 597.982 262.704 603.973 264.432 C 611.797 266.687 616.176 273.587 616.947 281.665 C 617.838 290.997 612.055 300.145 604.448 304.062 C 600.614 306.036 590.834 300.368 585.7 294.988 Z " fill="rgb(244,106,166)"/><path d=" M 607.741 276.945 C 606.032 278.387 603.626 278.252 601.922 276.939 C 599.105 274.768 599.987 269.73 603.647 268.898 C 606.265 268.304 608.665 270.103 609.155 272.597 C 609.473 274.219 609.061 275.832 607.741 276.945 Z " fill="rgb(247,143,204)"/><path d=" M 598.291 274.694 C 597.325 275.535 595.98 275.474 595.036 274.729 C 593.477 273.498 594.009 270.591 596.062 270.088 C 597.532 269.727 598.861 270.748 599.116 272.18 C 599.281 273.112 599.039 274.043 598.291 274.694 Z " fill="rgb(247,143,204)"/><path d=" M 599.858 278.771 C 599.311 279.262 598.559 279.236 598.037 278.814 C 597.174 278.115 597.493 276.438 598.646 276.134 C 599.471 275.917 600.206 276.495 600.338 277.318 C 600.424 277.854 600.281 278.392 599.858 278.771 Z " fill="rgb(247,143,204)"/><path d=" M 606.682 298.887 C 605.295 300.107 603.375 300.027 602.033 298.958 C 599.814 297.192 600.593 292.996 603.529 292.257 C 605.63 291.729 607.521 293.192 607.875 295.257 C 608.106 296.6 607.753 297.945 606.682 298.887 Z " fill="rgb(247,143,204)"/></g><g><path d=" M 597.605 335.434 C 598.483 334.743 598.963 333.892 598.675 333.535 C 598.387 333.178 597.44 333.449 596.562 334.14 C 595.683 334.831 595.204 335.682 595.492 336.04 C 595.779 336.397 596.726 336.126 597.605 335.434 Z " fill="rgb(153,41,83)"/><path d=" M 599.923 338.575 C 600.9 338.032 601.516 337.263 601.3 336.859 C 601.083 336.454 600.113 336.567 599.137 337.11 C 598.16 337.653 597.543 338.422 597.76 338.826 C 597.977 339.231 598.946 339.118 599.923 338.575 Z " fill="rgb(153,41,83)"/><path d=" M 583.615 367.252 C 583.926 368.245 584.555 368.917 585.019 368.752 C 585.483 368.586 585.608 367.644 585.297 366.651 C 584.987 365.657 584.358 364.985 583.894 365.15 C 583.429 365.316 583.305 366.258 583.615 367.252 Z " fill="rgb(153,41,83)"/><path d=" M 580.286 368.748 C 580.562 370.061 581.172 371.026 581.647 370.9 C 582.121 370.775 582.282 369.606 582.006 368.293 C 581.73 366.98 581.121 366.015 580.646 366.141 C 580.172 366.266 580.01 367.435 580.286 368.748 Z " fill="rgb(153,41,83)"/><path d=" M 548.391 325.081 C 560.181 319.779 564.455 333.149 568.605 332.348 C 581.912 329.779 602.923 329.465 600.182 349.269 C 598.833 359.012 591.307 363.821 582.745 366.246 C 565.243 371.201 549.119 357.53 542.115 333.361 C 541.25 330.375 545.306 326.469 548.391 325.081 Z " fill="rgb(202,73,134)" vector-effect="non-scaling-stroke" stroke-width="4" stroke="rgb(153,41,83)" stroke-linejoin="miter" stroke-linecap="square" stroke-miterlimit="3"/><path d=" M 569.527 350.039 C 568.861 344.323 570.011 335.827 572.857 333.893 C 575.602 332.027 580.013 331.193 584.007 331.357 C 589.338 331.577 594.088 333.05 597.239 337.136 C 601.354 342.471 600.808 349.448 597.244 355.536 C 593.126 362.569 584.62 366.283 577.532 365.421 C 573.96 364.986 570.257 356.301 569.527 350.039 Z " fill="rgb(244,106,166)"/><path d=" M 593.015 348.122 C 591.177 348.321 589.658 347.093 589.185 345.374 C 588.404 342.533 591.476 339.439 594.297 340.585 C 596.316 341.406 597.007 343.791 596.096 345.76 C 595.504 347.04 594.435 347.969 593.015 348.122 Z " fill="rgb(247,143,204)"/><path d=" M 587.905 342.098 C 586.852 342.228 585.996 341.552 585.743 340.588 C 585.325 338.995 587.112 337.221 588.714 337.838 C 589.86 338.28 590.231 339.617 589.69 340.736 C 589.339 341.463 588.718 341.997 587.905 342.098 Z " fill="rgb(247,143,204)"/><path d=" M 586.92 345.678 C 586.317 345.762 585.834 345.389 585.699 344.848 C 585.476 343.955 586.516 342.937 587.426 343.269 C 588.077 343.506 588.275 344.256 587.955 344.892 C 587.746 345.305 587.386 345.613 586.92 345.678 Z " fill="rgb(247,143,204)"/><path d=" M 581.467 362.91 C 579.951 363.106 578.726 362.145 578.37 360.768 C 577.782 358.491 580.37 355.935 582.669 356.804 C 584.314 357.427 584.836 359.338 584.048 360.944 C 583.536 361.988 582.638 362.759 581.467 362.91 Z " fill="rgb(247,143,204)"/></g></g><g><path d=" M 457.037 385.032 C 402.94 377.249 324.186 373.557 320.558 314.268 C 316.708 251.345 375.355 196.684 435.181 198.772 C 504.817 201.203 572.188 257.127 556.778 325.01 C 546.566 369.992 501.438 391.42 457.037 385.032 Z " fill="rgb(250,193,210)" vector-effect="non-scaling-stroke" stroke-width="6" stroke="rgb(153,41,83)" stroke-linejoin="miter" stroke-linecap="square" stroke-miterlimit="3"/><path d=" M 383.636 223.252 C 384.589 229.497 392.331 229.163 397.43 227.366 C 401.387 225.971 405.247 223.365 405.2 218.925 C 405.123 211.493 395.473 211.473 389.939 214.247 C 386.341 216.05 382.993 219.038 383.636 223.252 Z " fill="rgb(253,230,239)"/><path d=" M 374.186 294.472 C 370.07 301.393 377.535 308.297 383.716 311.322 C 388.512 313.669 394.188 314.757 397.701 310.426 C 403.581 303.177 394.625 294.15 387.258 291.662 C 382.468 290.044 376.963 289.803 374.186 294.472 Z " fill="rgb(246,128,164)"/><path d=" M 510.429 322.432 C 512.858 328.556 521.418 328.039 526.712 326.147 C 530.82 324.678 534.554 322.02 533.531 317.651 C 531.818 310.338 521.053 310.553 515.488 313.417 C 511.87 315.279 508.79 318.3 510.429 322.432 Z " fill="rgb(246,128,164)"/><path d=" M 399.201 293.686 C 406.019 297.93 413.433 293.488 416.671 286.815 C 420.711 278.492 416.928 264.308 407.682 264.078 C 396.15 263.791 391.89 271.333 392.634 282.614 C 392.848 285.857 395.303 291.26 399.201 293.686 Z " fill="rgb(153,41,83)"/><path d=" M 503.205 310.139 C 510.295 314.081 516.057 310.953 519.469 304.471 C 523.829 296.19 520.567 282.723 511.312 282.217 C 499.704 281.582 497.794 290.883 497.324 298.745 C 497.338 304.125 499.541 308.101 503.205 310.139 Z " fill="rgb(153,41,83)"/><path d=" M 384.164 232.934 C 384.261 234.942 386.042 236.711 388.229 237.369 C 391.845 238.457 395.058 235.322 393.136 232.125 C 391.761 229.838 388.719 228.887 386.482 229.732 C 385.027 230.281 384.089 231.383 384.164 232.934 Z " fill="rgb(253,230,239)"/><path d=" M 376.159 224.781 C 376.147 225.831 376.973 226.705 378.032 226.985 C 379.784 227.447 381.463 225.707 380.61 224.088 C 380 222.93 378.528 222.522 377.399 223.032 C 376.665 223.364 376.169 223.97 376.159 224.781 Z " fill="rgb(253,230,239)"/><path d=" M 377.543 284.947 C 377.531 285.997 378.357 286.871 379.416 287.151 C 381.168 287.613 382.846 285.874 381.994 284.255 C 381.384 283.096 379.912 282.689 378.783 283.199 C 378.048 283.53 377.553 284.136 377.543 284.947 Z " fill="rgb(246,128,164)"/><path d=" M 534.269 317.348 C 534.257 318.398 535.082 319.273 536.142 319.552 C 537.893 320.014 539.572 318.275 538.72 316.656 C 538.11 315.497 536.637 315.09 535.508 315.6 C 534.774 315.931 534.278 316.537 534.269 317.348 Z " fill="rgb(246,128,164)"/><path d=" M 534.227 308.094 C 534.237 308.626 534.684 309.083 535.243 309.242 C 536.169 309.504 537.021 308.648 536.549 307.813 C 536.21 307.215 535.432 306.984 534.849 307.225 C 534.469 307.382 534.219 307.682 534.227 308.094 Z " fill="rgb(246,128,164)"/><path d=" M 363.613 289.743 C 363.481 292.028 365.101 293.847 367.266 294.347 C 370.844 295.173 374.499 291.215 372.9 287.779 C 371.756 285.32 368.748 284.584 366.358 285.81 C 364.805 286.607 363.716 287.977 363.613 289.743 Z " fill="rgb(246,128,164)"/><path d=" M 519.879 330.817 C 519.785 332.218 520.756 333.322 522.066 333.616 C 524.231 334.1 526.471 331.654 525.522 329.558 C 524.843 328.059 523.024 327.626 521.567 328.391 C 520.62 328.889 519.951 329.734 519.879 330.817 Z " fill="rgb(246,128,164)"/><path d=" M 391.814 316.987 C 391.834 317.686 392.43 318.29 393.172 318.505 C 394.4 318.86 395.518 317.747 394.883 316.646 C 394.429 315.858 393.396 315.547 392.627 315.856 C 392.126 316.057 391.799 316.448 391.814 316.987 Z " fill="rgb(246,128,164)"/><path d=" M 501.345 290.684 C 501.235 293.126 503.017 295.093 505.372 295.659 C 509.263 296.595 513.167 292.419 511.383 288.723 C 510.106 286.078 506.835 285.247 504.263 286.522 C 502.59 287.35 501.43 288.798 501.345 290.684 Z " fill="rgb(253,230,239)"/><path d=" M 397.466 274.01 C 397.342 276.598 399.219 278.678 401.704 279.27 C 405.812 280.249 409.949 275.809 408.077 271.897 C 406.737 269.099 403.285 268.228 400.563 269.588 C 398.793 270.473 397.563 272.011 397.466 274.01 Z " fill="rgb(253,230,239)"/><path d=" M 399.703 231.629 C 399.797 233.482 401.686 234.728 403.476 235.733 C 409.496 239.109 413.082 230.8 411.912 227.674 C 411.05 225.371 404.431 226.569 401.84 228.677 C 400.82 229.508 399.63 230.197 399.703 231.629 Z " fill="rgb(253,230,239)"/><path d=" M 507.22 240.633 C 509.44 244.671 519.991 245.542 517.873 241.401 C 516.814 239.329 513.031 239.683 512.445 237.824 C 512.013 236.456 510.131 234.022 507.975 234.285 C 504.913 234.659 505.986 238.388 507.22 240.633 Z " fill="rgb(253,230,239)"/><path d=" M 451.729 335.53 C 463.523 336.733 471.113 328.301 471.753 324.023 C 472.393 319.744 458.152 312.645 455.153 311.81 C 452.324 311.022 438.503 315.103 435.911 319.634 C 433.745 323.421 444.193 334.762 451.729 335.53 Z " fill="rgb(246,128,164)"/><path d=" M 364.447 229.883 Q 362.834 242.139 361.358 248.667 C 357.801 264.399 345.876 275.08 345.012 291.397 C 344.206 306.622 348.491 319.348 355.127 332.964 Q 363.102 349.326 388.584 371.761 Q 350.088 363.343 337.116 347.171 C 328.434 336.347 324.483 324.704 322.851 310.981 C 320.458 290.857 326.219 273.373 337.256 256.533 Q 344.646 245.258 364.447 229.883 Z " fill="rgb(243,145,168)"/><path d=" M 414.512 312.898 C 417.457 315.971 420.197 317.841 423.898 319.503 C 434.894 324.44 444.59 312.991 456.042 314.774 C 466.485 316.4 472.173 328.246 483.062 327.12 C 487.012 326.712 490.124 325.672 493.807 323.844 C 498.839 321.346 485.4 323.792 480.944 322.905 C 470.793 320.886 465.578 310.412 455.131 309.538 C 445.706 308.749 439.158 317.097 429.747 316.624 C 424.21 316.346 410.429 308.638 414.512 312.898 Z " fill="rgb(153,41,83)"/></g><g><g><path d=" M 342.626 168.084 C 343.58 166.733 344.823 165.984 345.4 166.414 C 345.977 166.843 345.67 168.288 344.716 169.639 C 343.762 170.99 342.519 171.738 341.942 171.309 C 341.365 170.88 341.672 169.435 342.626 168.084 Z " fill="rgb(153,41,83)"/><path d=" M 337.579 164.634 C 338.296 163.137 339.398 162.182 340.039 162.502 C 340.68 162.823 340.617 164.298 339.9 165.795 C 339.183 167.292 338.08 168.247 337.44 167.926 C 336.799 167.606 336.861 166.131 337.579 164.634 Z " fill="rgb(153,41,83)"/><path d=" M 295.718 190.077 C 294.169 189.628 293.074 188.688 293.274 187.978 C 293.474 187.269 294.895 187.058 296.444 187.507 C 297.994 187.956 299.089 188.896 298.889 189.605 C 298.688 190.314 297.268 190.526 295.718 190.077 Z " fill="rgb(153,41,83)"/><path d=" M 293.813 195.17 C 291.781 194.781 290.242 193.877 290.38 193.152 C 290.518 192.428 292.28 192.156 294.313 192.545 C 296.345 192.935 297.883 193.838 297.746 194.563 C 297.608 195.287 295.846 195.559 293.813 195.17 Z " fill="rgb(153,41,83)"/><path d=" M 363.952 242.632 C 370.702 224.593 349.846 218.406 350.599 212.082 C 353.014 191.801 351.123 159.864 321.254 164.487 C 306.558 166.762 298.026 178.05 297.349 191.376 C 296.32 211.64 324.159 251.052 354.041 250.408 C 358.856 250.304 362.185 247.352 363.952 242.632 Z " fill="rgb(202,73,134)" vector-effect="non-scaling-stroke" stroke-width="4" stroke="rgb(153,41,83)" stroke-linejoin="miter" stroke-linecap="square" stroke-miterlimit="3"/><path d=" M 323.758 208.674 C 332.242 209.549 344.599 207.828 347.106 203.788 C 349.524 199.89 350.338 193.322 349.505 187.518 C 348.451 180.17 345.682 173.7 339.442 169.399 C 331.107 163.654 320.912 164.502 312.383 169.604 C 302.53 175.499 298.078 187.551 300.187 197.548 C 301.25 202.587 314.463 207.716 323.758 208.674 Z " fill="rgb(244,106,166)"/><path d=" M 323.809 175.352 C 323.714 178.15 325.756 180.429 328.429 181.108 C 332.846 182.23 337.214 177.49 335.149 173.229 C 333.672 170.18 329.959 169.185 327.061 170.615 C 325.178 171.544 323.882 173.19 323.809 175.352 Z " fill="rgb(247,143,204)"/><path d=" M 333.565 182.978 C 333.485 184.581 334.613 185.866 336.11 186.228 C 338.585 186.827 341.087 184.069 339.966 181.65 C 339.163 179.919 337.084 179.386 335.44 180.233 C 334.372 180.784 333.627 181.74 333.565 182.978 Z " fill="rgb(247,143,204)"/><path d=" M 328.221 184.557 C 328.161 185.476 328.784 186.2 329.623 186.393 C 331.009 186.711 332.443 185.107 331.835 183.733 C 331.4 182.749 330.235 182.465 329.302 182.967 C 328.696 183.293 328.268 183.847 328.221 184.557 Z " fill="rgb(247,143,204)"/><path d=" M 302.57 193.381 C 302.442 195.69 304.045 197.53 306.184 198.038 C 309.72 198.879 313.323 194.887 311.739 191.414 C 310.605 188.929 307.633 188.18 305.275 189.414 C 303.741 190.216 302.668 191.598 302.57 193.381 Z " fill="rgb(247,143,204)"/></g><g><path d=" M 286.67 236.067 C 286.412 234.751 286.739 233.653 287.4 233.616 C 288.062 233.579 288.809 234.617 289.068 235.932 C 289.326 237.248 288.999 238.346 288.337 238.383 C 287.676 238.421 286.929 237.382 286.67 236.067 Z " fill="rgb(153,41,83)"/><path d=" M 281.082 236.577 C 280.571 235.295 280.67 234.144 281.302 234.008 C 281.935 233.871 282.862 234.801 283.372 236.083 C 283.883 237.365 283.784 238.517 283.152 238.653 C 282.52 238.789 281.592 237.859 281.082 236.577 Z " fill="rgb(153,41,83)"/><path d=" M 270.218 273.711 C 268.903 274.239 267.565 274.233 267.231 273.698 C 266.898 273.163 267.695 272.299 269.01 271.771 C 270.325 271.243 271.663 271.249 271.997 271.784 C 272.33 272.32 271.534 273.183 270.218 273.711 Z " fill="rgb(153,41,83)"/><path d=" M 263.662 262.918 C 261.874 262.825 260.361 262.233 260.284 261.597 C 260.207 260.962 261.596 260.521 263.384 260.614 C 265.171 260.707 266.685 261.298 266.761 261.934 C 266.838 262.57 265.449 263.011 263.662 262.918 Z " fill="rgb(153,41,83)"/><path d=" M 264.053 250.333 C 262.38 249.698 261.12 248.672 261.242 248.043 C 261.363 247.414 262.82 247.419 264.494 248.055 C 266.167 248.69 267.427 249.716 267.306 250.345 C 267.184 250.974 265.727 250.968 264.053 250.333 Z " fill="rgb(153,41,83)"/><path d=" M 299.042 288.08 C 298.931 289.866 298.325 291.374 297.688 291.444 C 297.052 291.515 296.625 290.122 296.735 288.335 C 296.846 286.549 297.452 285.041 298.089 284.971 C 298.725 284.9 299.152 286.293 299.042 288.08 Z " fill="rgb(153,41,83)"/><path d=" M 349.655 270.41 C 342.257 255.939 324.461 262.96 320.805 258.721 C 309.081 245.129 286.87 226.67 270.235 244.931 C 262.051 253.915 263.223 265.678 272.145 273.658 C 287.596 287.477 331.75 299.295 348.198 282.49 C 350.968 279.659 351.59 274.196 349.655 270.41 Z " fill="rgb(202,73,134)" vector-effect="non-scaling-stroke" stroke-width="4" stroke="rgb(153,41,83)" stroke-linejoin="miter" stroke-linecap="square" stroke-miterlimit="3"/><path d=" M 302.218 272.173 C 308.625 268.146 315.861 260.321 314.747 256.32 C 313.672 252.458 309.788 247.996 305.356 244.696 C 299.439 240.291 292.894 237.394 285.456 237.973 C 275.742 238.731 269.374 244.814 267.118 252.776 C 264.511 261.974 269.902 272.273 278.337 277.671 C 282.587 280.392 295.2 276.585 302.218 272.173 Z " fill="rgb(244,106,166)"/><path d=" M 274.973 270.828 C 276.747 272.58 279.588 272.911 281.794 271.942 C 285.439 270.341 285.204 265.197 281.047 263.671 C 278.073 262.58 274.974 263.895 274.005 266.263 C 273.375 267.803 273.602 269.475 274.973 270.828 Z " fill="rgb(247,143,204)"/><path d=" M 284.236 262.437 C 285.236 263.454 286.822 263.652 288.046 263.099 C 290.068 262.184 289.906 259.211 287.579 258.318 C 286.747 257.999 285.9 258.027 285.197 258.306 C 284.493 258.585 283.932 259.114 283.669 259.797 C 283.327 260.684 283.463 261.651 284.236 262.437 Z " fill="rgb(247,143,204)"/><path d=" M 300.921 263.9 C 301.484 264.49 302.37 264.609 303.049 264.293 C 304.171 263.769 304.062 262.051 302.759 261.529 C 301.827 261.156 300.873 261.585 300.588 262.373 C 300.403 262.885 300.485 263.444 300.921 263.9 Z " fill="rgb(247,143,204)"/><path d=" M 289.66 268.227 C 291.091 269.698 293.355 269.988 295.097 269.192 C 297.978 267.875 297.73 263.582 294.406 262.287 C 292.028 261.361 289.58 262.442 288.836 264.413 C 288.353 265.694 288.554 267.09 289.66 268.227 Z " fill="rgb(247,143,204)"/></g><g><path d=" M 281.654 309.923 C 280.734 309.072 280.307 308.139 280.701 307.842 C 281.095 307.545 282.162 307.995 283.082 308.846 C 284.002 309.698 284.429 310.631 284.035 310.928 C 283.641 311.225 282.574 310.775 281.654 309.923 Z " fill="rgb(153,41,83)"/><path d=" M 278.44 312.578 C 277.381 311.854 276.78 310.976 277.098 310.618 C 277.417 310.261 278.535 310.559 279.593 311.283 C 280.652 312.007 281.253 312.885 280.935 313.243 C 280.616 313.6 279.498 313.302 278.44 312.578 Z " fill="rgb(153,41,83)"/><path d=" M 293.004 344.032 C 292.483 344.954 291.639 345.496 291.122 345.243 C 290.604 344.99 290.607 344.036 291.128 343.115 C 291.65 342.194 292.494 341.651 293.011 341.904 C 293.529 342.157 293.526 343.111 293.004 344.032 Z " fill="rgb(153,41,83)"/><path d=" M 296.668 346.151 C 296.137 347.394 295.269 348.229 294.733 348.014 C 294.197 347.798 294.193 346.614 294.725 345.37 C 295.256 344.126 296.124 343.292 296.66 343.507 C 297.196 343.722 297.2 344.907 296.668 346.151 Z " fill="rgb(153,41,83)"/><path d=" M 340.974 309.176 C 327.997 301.671 320.867 314.049 316.131 312.459 C 300.943 307.361 276.368 303.005 276.44 323.087 C 276.476 332.967 284.152 340.231 294.184 343.207 C 313.066 348.808 347.596 339.385 347.016 318.56 C 346.927 315.346 344.37 311.14 340.974 309.176 Z " fill="rgb(202,73,134)" vector-effect="non-scaling-stroke" stroke-width="4" stroke="rgb(153,41,83)" stroke-linejoin="miter" stroke-linecap="square" stroke-miterlimit="3"/><path d=" M 312.292 329.636 C 314.01 324.087 314.073 315.442 311.107 312.999 C 308.244 310.642 303.289 309.003 298.651 308.431 C 292.46 307.669 286.733 308.257 282.423 311.732 C 276.794 316.27 276.105 323.311 279.388 329.993 C 283.296 337.948 293.546 342.163 301.871 342.612 C 306.066 342.838 310.565 335.215 312.292 329.636 Z " fill="rgb(244,106,166)"/><path d=" M 304.767 320.666 C 306.89 321.216 308.864 320.296 309.691 318.69 C 311.058 316.035 307.947 312.389 304.459 312.978 C 301.963 313.399 300.775 315.621 301.53 317.74 C 302.022 319.118 303.127 320.242 304.767 320.666 Z " fill="rgb(247,143,204)"/><path d=" M 303.173 326.909 C 304.386 327.24 305.497 326.737 305.946 325.834 C 306.689 324.342 304.875 322.245 302.9 322.547 C 301.487 322.762 300.84 324.011 301.296 325.22 C 301.593 326.005 302.236 326.653 303.173 326.909 Z " fill="rgb(247,143,204)"/><path d=" M 297.564 322.455 C 298.258 322.654 298.882 322.379 299.126 321.872 C 299.53 321.032 298.472 319.827 297.354 319.98 C 296.553 320.089 296.202 320.791 296.476 321.48 C 296.655 321.928 297.028 322.301 297.564 322.455 Z " fill="rgb(247,143,204)"/></g></g><path d=" M 364.96 232.818 C 359.295 227.544 348.846 227.914 346.219 235.735 C 345.22 238.708 345.577 241.598 346.946 244.418 C 351.403 253.599 368.192 253.406 368.914 242.267 C 369.156 238.547 367.667 235.338 364.96 232.818 Z " fill="rgb(202,73,134)"/><path d=" M 345.72 264.862 C 338.573 262.805 329.597 267.705 330.561 275.591 C 330.927 278.588 332.443 280.92 334.815 282.748 C 342.534 288.698 357.123 281.17 353.112 271.263 C 351.773 267.955 349.135 265.844 345.72 264.862 Z " fill="rgb(202,73,134)"/><path d=" M 333.42 310.077 C 327.859 314.085 326.788 322.104 333.549 324.599 C 336.118 325.547 338.796 325.453 341.546 324.579 C 350.497 321.737 352.583 308.877 342.547 307.635 C 339.196 307.22 336.077 308.161 333.42 310.077 Z " fill="rgb(202,73,134)"/></g><g clip-path="url(#_clipPath_kpIlS5vzTABtwAUvkxYFBu6pMpTWnsbJ)"><text transform="matrix(1,0,0,1,27,182.707)" style="font-family:'Open Sans';font-weight:700;font-size:72px;font-style:normal;font-variant-ligatures:none;letter-spacing:17;fill:#992953;stroke:none;">404</text></g><defs><clipPath id="_clipPath_kpIlS5vzTABtwAUvkxYFBu6pMpTWnsbJ"><rect x="0" y="0" width="160" height="98.051" transform="matrix(1,0,0,1,27,105.75)"/></clipPath></defs><ellipse vector-effect="non-scaling-stroke" cx="282" cy="151.66666666666666" rx="21.333333333333314" ry="20.333333333333343" fill="rgb(221,247,219)"/><ellipse vector-effect="non-scaling-stroke" cx="437" cy="530.1666666666666" rx="21.333333333333314" ry="20.333333333333343" fill="rgb(221,247,219)"/><ellipse vector-effect="non-scaling-stroke" cx="532.8333333333335" cy="437.67968750000006" rx="28.166666666666714" ry="26.846354166666742" fill="rgb(221,247,219)"/><ellipse vector-effect="non-scaling-stroke" cx="74.27868852459027" cy="216.16666666666663" rx="16.61202185792349" ry="15.833333333333343" fill="rgb(221,247,219)"/><ellipse vector-effect="non-scaling-stroke" cx="173.83333333333337" cy="516.9531249999999" rx="11.6666666666666" ry="11.119791666666629" fill="rgb(221,247,219)"/><ellipse vector-effect="non-scaling-stroke" cx="432.4999999999999" cy="184.99999999999991" rx="9.833333333333314" ry="9.000000000000057" fill="rgb(221,247,219)"/><ellipse vector-effect="non-scaling-stroke" cx="240.20898437499994" cy="264.65569501366133" rx="9.430338541666742" ry="9.273224043715956" fill="rgb(221,247,219)"/><ellipse vector-effect="non-scaling-stroke" cx="289.640625" cy="144.28125000000003" rx="6.140625" ry="6.298076923076906" fill="rgb(255,255,255)"/><ellipse vector-effect="non-scaling-stroke" cx="444.640625" cy="522.78125" rx="6.140625" ry="6.298076923076906" fill="rgb(255,255,255)"/><ellipse vector-effect="non-scaling-stroke" cx="542.9213460286459" cy="427.9286295572917" rx="8.1075439453125" ry="8.3154296875" fill="rgb(255,255,255)"/><ellipse vector-effect="non-scaling-stroke" cx="80.2283555327869" cy="210.41572745901635" rx="4.781634221311464" ry="4.904240226986133" fill="rgb(255,255,255)"/><ellipse vector-effect="non-scaling-stroke" cx="178.01180013020831" cy="512.9142252604165" rx="3.3581542968749716" ry="3.4442608173076508" fill="rgb(255,255,255)"/><ellipse vector-effect="non-scaling-stroke" cx="435.52185058593733" cy="181.73104508196715" rx="2.8304443359375" ry="2.7876733921816026" fill="rgb(255,255,255)"/><ellipse vector-effect="non-scaling-stroke" cx="260.8130631446839" cy="262.34218791991395" rx="2.7144455909729004" ry="2.872302214045078" fill="rgb(255,255,255)"/><ellipse vector-effect="non-scaling-stroke" cx="244.2896256446839" cy="261.56875041991395" rx="2.714445590972929" ry="2.872302214045078" fill="rgb(255,255,255)"/><ellipse vector-effect="non-scaling-stroke" cx="450.49999999999994" cy="536.3741987179487" rx="3.125" ry="3.205128205128176" fill="rgb(255,255,255)"/><ellipse vector-effect="non-scaling-stroke" cx="550.6575520833333" cy="445.8755696614583" rx="4.1259765625" ry="4.231770833333371" fill="rgb(255,255,255)"/><ellipse vector-effect="non-scaling-stroke" cx="73.29098360655732" cy="206.50040064102546" rx="2.433401639344254" ry="2.495796553173591" fill="rgb(255,255,255)"/><ellipse vector-effect="non-scaling-stroke" cx="181.21614583333326" cy="520.3478690905447" rx="1.708984375" ry="1.7528044871794464" fill="rgb(255,255,255)"/><ellipse vector-effect="non-scaling-stroke" cx="263.40318298339884" cy="268.5413908154688" rx="1.3813972473144531" ry="1.4617314066387053" fill="rgb(255,255,255)"/><ellipse vector-effect="non-scaling-stroke" cx="234.78599548339884" cy="268.61170331546873" rx="1.3813972473144531" ry="1.4617314066387053" fill="rgb(255,255,255)"/></g></svg>