<svg width="1015" height="767" viewBox="0 0 1015 767" fill="none" xmlns="http://www.w3.org/2000/svg">
<g clip-path="url(#clip0_2_463)">
<mask id="mask0_2_463" style="mask-type:luminance" maskUnits="userSpaceOnUse" x="0" y="0" width="1015" height="767">
<path d="M1014.67 0H0V766.4H1014.67V0Z" fill="white"/>
</mask>
<g mask="url(#mask0_2_463)">
<path d="M728.64 452.816C730.12 469.564 723.763 483.484 717.14 499.097C699.516 540.647 663.449 562.681 625.229 586.689C563.309 625.584 498.965 643.06 427.172 634.576C383.148 629.373 347.325 616.196 310.568 593.221C233.012 544.745 170.473 474.505 182.984 380.449C193.717 299.76 246.936 235.523 325.423 205.081C347.055 196.691 366.251 188.023 389.371 190.28C473.875 198.527 281.689 272.284 303.22 353.385C313.656 392.696 332.612 410.201 362.68 421.031C432.688 446.244 503.931 359.371 597.9 356.069C620.148 355.288 639.735 374.268 660.016 387.924C687.833 406.656 725.473 416.963 728.64 452.816Z" fill="#977065" stroke="#4C363E" stroke-width="8" stroke-miterlimit="3" stroke-linecap="square"/>
<path d="M672.851 429.688C688.1 474.576 656.24 510.711 624.887 540.128C601.948 561.651 574.033 575.677 544.505 585.221C502.599 598.768 463.215 609.027 417.944 602.292C375.136 595.923 340.147 580.093 305.316 553.345C247.768 509.152 196.664 452.239 202.485 376.356C207.232 314.456 242.584 267.928 294.081 237.184C304.215 231.135 312.719 225.341 324.296 222.627C376.735 210.327 265.795 299.221 277.836 346.869C291.177 399.657 333.551 431.269 383.491 442.565C446.729 456.871 500.135 388.249 569.351 373.591C604.289 366.192 630.533 372.833 653.007 396.392C662.464 406.305 668.436 416.695 672.851 429.688Z" fill="#CEA69A"/>
<path d="M620.412 383C613.927 382.331 610.375 389.217 611.973 394.653C613.231 398.932 617.277 402.331 622.107 401.569C628.037 400.633 629.831 394.155 627.893 389.219C626.635 386.011 624.137 383.384 620.412 383Z" fill="#977065"/>
<path d="M228.373 328.643C221.811 328.751 217.136 336.763 217.968 342.516C218.624 347.044 222.275 350.245 227.351 348.781C233.583 346.985 236.389 339.649 235.135 334.489C234.319 331.135 232.144 328.58 228.373 328.643Z" fill="#977065"/>
<path d="M225.973 361.256C215.235 361.184 207.929 373.963 209.54 383.297C210.808 390.643 216.923 395.955 225.168 393.781C235.291 391.111 239.571 379.355 237.293 370.964C235.813 365.509 232.143 361.297 225.973 361.256Z" fill="#977065"/>
<path d="M240.709 348.639C236.372 348.641 233.376 353.847 233.993 357.628C234.48 360.603 236.932 362.74 240.271 361.832C244.369 360.719 246.139 355.937 245.248 352.541C244.669 350.333 243.201 348.636 240.709 348.639Z" fill="#977065"/>
<path d="M366.203 207.919C360.503 203.384 348.871 207.036 344.089 212.613C340.327 217.003 340.384 222.353 346.108 224.664C353.135 227.501 362.531 223.119 366.385 217.757C368.892 214.272 369.476 210.523 366.203 207.919Z" fill="#CEA69A"/>
<path d="M380.759 207.683C378.409 205.221 373.793 206.884 371.952 209.677C370.503 211.876 370.6 214.648 372.928 215.957C375.787 217.564 379.496 215.48 380.968 212.78C381.925 211.025 382.108 209.095 380.759 207.683Z" fill="#CEA69A"/>
<path d="M377.213 203.583C378.428 202.307 377.357 200.823 375.799 200.567C374.572 200.365 373.101 200.839 372.499 201.927C371.76 203.261 373.017 204.336 374.512 204.467C375.483 204.552 376.517 204.316 377.213 203.583Z" fill="#CEA69A"/>
<path d="M460.857 574.323C459.881 574.252 459.305 575.328 459.516 576.156C459.681 576.808 460.273 577.311 461.008 577.169C461.909 576.996 462.217 575.991 461.953 575.241C461.781 574.755 461.419 574.364 460.857 574.323Z" fill="#977065"/>
<path d="M435.919 574.129C432.724 575.867 434.145 578.233 437.237 578.833C439.671 579.307 442.967 578.804 444.796 577.264C447.041 575.375 445.011 573.593 441.987 573.188C440.02 572.924 437.755 573.132 435.919 574.129Z" fill="#977065"/>
<path d="M403.751 570.159C401.495 569.961 400.209 572.404 400.731 574.307C401.14 575.804 402.527 576.976 404.216 576.679C406.289 576.315 406.959 574.025 406.316 572.301C405.899 571.18 405.047 570.272 403.751 570.159Z" fill="#977065"/>
<path d="M453.776 577.073C451.52 576.876 450.236 579.32 450.756 581.223C451.165 582.72 452.553 583.891 454.241 583.595C456.315 583.231 456.984 580.941 456.343 579.217C455.925 578.096 455.072 577.187 453.776 577.073Z" fill="#977065"/>
<path d="M403.945 583.304C399.356 590.585 406.227 597.187 414.177 597.292C420.435 597.375 427.155 593.905 428.941 588.029C431.135 580.813 423.784 576.399 416.287 576.867C411.412 577.171 406.58 579.123 403.945 583.304Z" fill="#977065"/>
<path d="M437.545 583.115C432.331 582.583 429.467 588.128 430.747 592.501C431.753 595.944 435.004 598.676 438.891 598.057C443.66 597.299 445.109 592.084 443.557 588.113C442.548 585.532 440.541 583.421 437.545 583.115Z" fill="#977065"/>
<path d="M606.144 393.223C604.569 393.053 603.716 394.717 604.109 396.035C604.42 397.072 605.405 397.9 606.577 397.72C608.015 397.5 608.443 395.933 607.967 394.736C607.657 393.957 607.048 393.32 606.144 393.223Z" fill="#977065"/>
<path d="M602.399 378.556C599.204 378.22 597.463 381.605 598.256 384.281C598.881 386.388 600.879 388.065 603.256 387.695C606.176 387.241 607.052 384.055 606.092 381.624C605.468 380.044 604.235 378.749 602.399 378.556Z" fill="#977065"/>
<path d="M693.015 509.009C693.877 519.476 689.953 528.556 682.635 535.192C674.2 542.839 663.684 541.231 653.065 540.259C640.608 537.515 632.295 532.183 620.931 527.267C616.251 525.243 602.515 518.572 607.192 522.873C609.831 525.301 613.393 527.735 613.039 531.912C612.801 534.705 611.837 536.796 609.241 538.345C604.648 541.085 601.691 541.043 597.588 540.525C593.135 539.965 588.936 537.951 585.876 533.811C582.073 528.665 589.917 510.776 586.039 518.516C584.057 522.469 583.377 530.156 585.335 534.524C587.225 538.744 575.387 533.289 573.004 528.328C571.384 524.957 572.175 521.556 572.691 517.933C573.229 514.152 574.868 511.344 576.087 507.791C577.889 502.535 572.057 519.383 571.115 522.817C569.904 527.231 566.32 516.083 565.624 511.627C564.874 506.824 566.992 500.671 571.979 493.167C577.919 488.06 576.147 489.291 583.104 487.291C588.451 485.753 573.092 489.525 570.797 493.593C569.449 495.983 570.963 487.695 572.553 485.519C575.812 481.064 577.72 479.631 581.42 478.475C584.709 477.3 590.923 479.773 596.091 479.675C604.229 479.52 610.664 475.515 618.817 475.587C626.977 475.659 633.633 478.321 641.615 480.084C650.163 481.972 657.357 483.652 665.831 486.048C675.803 488.869 688.103 490.707 691.835 502.587C692.521 504.775 692.825 506.716 693.015 509.009Z" fill="#CEA69A" stroke="#4C363E" stroke-width="5.33333" stroke-miterlimit="3" stroke-linecap="square"/>
<path d="M696.84 493.233C686.931 512.342 676.752 524.101 666.305 528.512C653.36 533.977 634.504 530.899 609.737 519.277C649.733 542.68 677.553 546.531 693.204 530.776C698.702 525.243 699.914 512.729 696.84 493.233Z" fill="#977065"/>
<path d="M667.735 500.839C668.008 505.536 674.311 508.781 678.715 508.113C682.18 507.587 684.537 504.933 683.264 501.317C681.701 496.879 675.973 494.961 672.039 495.925C669.48 496.552 667.577 498.141 667.735 500.839Z" fill="#977065"/>
<path d="M656.199 495.816C656.057 497.813 658.376 498.867 660.152 498.345C661.551 497.935 662.623 496.672 662.312 495.192C661.929 493.375 659.767 492.86 658.16 493.483C657.116 493.887 656.28 494.669 656.199 495.816Z" fill="#977065"/>
<path d="M591.641 495.211C591.501 497.208 593.82 498.261 595.596 497.74C596.993 497.329 598.067 496.067 597.755 494.587C597.372 492.769 595.211 492.255 593.604 492.877C592.559 493.281 591.723 494.064 591.641 495.211Z" fill="#977065"/>
<path d="M662.089 501.431C661.928 502.292 662.788 502.62 663.517 502.301C664.092 502.052 664.583 501.455 664.539 500.837C664.484 500.079 663.656 499.973 662.988 500.327C662.555 500.555 662.183 500.935 662.089 501.431Z" fill="#977065"/>
<path d="M664.975 494.357C665.936 495.903 668.179 495.455 669.191 494.131C669.985 493.089 670.092 491.592 669.077 490.665C667.832 489.528 665.988 490.292 665.155 491.6C664.612 492.451 664.423 493.469 664.975 494.357Z" fill="#977065"/>
<path d="M509.484 389.9C499.052 389.115 490.144 393.089 483.772 400.433C476.429 408.893 478.353 419.365 479.647 429.941C482.76 442.34 488.319 450.588 493.557 461.88C495.715 466.532 502.772 480.175 498.349 475.544C495.855 472.931 493.324 469.396 489.181 469.78C486.412 470.036 484.363 471.012 482.903 473.611C480.321 478.208 480.453 481.156 481.095 485.241C481.789 489.676 483.923 493.847 488.133 496.868C493.367 500.621 510.912 492.677 503.336 496.597C499.465 498.601 491.844 499.332 487.441 497.413C483.185 495.557 488.975 507.319 493.981 509.66C497.383 511.251 500.741 510.437 504.327 509.897C508.071 509.335 510.812 507.681 514.307 506.441C519.479 504.608 502.905 510.54 499.52 511.504C495.168 512.743 506.364 516.236 510.816 516.897C515.615 517.611 521.668 515.456 528.975 510.433C533.869 504.476 532.699 506.252 534.473 499.301C535.837 493.961 532.56 509.297 528.588 511.613C526.253 512.973 534.448 511.407 536.561 509.807C540.891 506.525 542.256 504.615 543.292 500.917C544.357 497.631 541.707 491.456 541.645 486.303C541.548 478.191 545.331 471.748 545.008 463.621C544.684 455.488 541.831 448.872 539.832 440.929C537.692 432.423 535.8 425.264 533.155 416.833C530.043 406.913 527.835 394.668 515.908 391.032C513.711 390.363 511.771 390.073 509.484 389.9Z" fill="#CEA69A" stroke="#4C363E" stroke-width="5.33333" stroke-miterlimit="3" stroke-linecap="square"/>
<path d="M515.448 384.264C501.496 395.933 493.06 406.45 490.139 415.813C486.015 429.033 489.918 448.089 501.848 472.981C474.188 435.055 467.916 409.439 483.021 396.075C490.896 389.109 500.323 383.865 515.448 384.264Z" fill="#977065"/>
<path d="M513.749 412.596C512.035 414.224 508.961 412.921 507.833 410.927C506.945 409.357 507.137 407.44 508.785 406.609C510.808 405.589 513.243 407.155 514.124 409.072C514.697 410.319 514.735 411.661 513.749 412.596Z" fill="#977065"/>
<path d="M491.167 482.443C489.185 482.597 488.067 480.293 488.531 478.52C488.895 477.123 490.117 476.045 491.599 476.345C493.417 476.713 493.996 478.865 493.427 480.471C493.056 481.515 492.305 482.353 491.167 482.443Z" fill="#977065"/>
<path d="M519.579 406.599C517.597 406.753 516.479 404.449 516.943 402.676C517.307 401.28 518.529 400.201 520.011 400.501C521.829 400.869 522.408 403.021 521.839 404.627C521.468 405.671 520.716 406.511 519.579 406.599Z" fill="#977065"/>
<path d="M510.845 398.607C509.992 398.773 509.64 397.919 509.933 397.189C510.165 396.615 510.744 396.121 511.359 396.161C512.115 396.211 512.244 397.033 511.915 397.703C511.7 398.137 511.335 398.511 510.845 398.607Z" fill="#977065"/>
<path d="M504.008 403.657C502.441 402.711 502.819 400.47 504.103 399.453C505.113 398.653 506.599 398.537 507.552 399.543C508.721 400.776 508.019 402.618 506.744 403.458C505.915 404.005 504.908 404.201 504.008 403.657Z" fill="#977065"/>
<path d="M386.521 429.593C383.447 438.333 378.369 445.12 370.6 450.497C361.249 456.968 351.039 459.464 340.175 457.468C328.188 455.267 322.321 447.715 314.121 437.585C304.668 425.909 299.639 413.399 293.423 399.432C289.361 390.309 287.383 381.952 283.195 372.888C277.499 360.557 246.067 342.641 263.987 339.459C270.505 338.301 276.295 338.809 281.243 343.948C286.937 349.86 272.185 329.027 279.969 323.291C286.989 318.119 297.252 327.507 299.771 331.76C302.939 337.111 296.987 313.869 305.169 309.115C318.764 301.216 317.089 324.276 324.089 332.035C329.241 337.745 333.849 342.349 339.272 347.808C350.497 359.108 359.912 366.788 372.261 378.925C381.241 387.752 387.307 397.807 388.448 410.763C389.029 417.36 388.779 423.175 386.521 429.593Z" fill="#CEA69A" stroke="#4C363E" stroke-width="5.33333" stroke-miterlimit="3" stroke-linecap="square"/>
<path d="M350.477 429.027C354.9 432.12 355.808 438.465 352.503 443.189C349.199 447.913 342.927 449.236 338.504 446.143C334.083 443.051 333.175 436.704 336.479 431.98C339.783 427.257 346.056 425.933 350.477 429.027Z" fill="#977065"/>
<path d="M350.477 429.027C354.9 432.12 355.808 438.465 352.503 443.189C349.199 447.913 342.927 449.236 338.504 446.143C334.083 443.051 333.175 436.704 336.479 431.98C339.783 427.257 346.056 425.933 350.477 429.027Z" fill="#977065"/>
<path d="M338.531 414.703C341.445 416.741 342.099 420.844 339.989 423.86C337.881 426.875 333.803 427.667 330.888 425.628C327.973 423.589 327.32 419.487 329.428 416.472C331.537 413.457 335.616 412.664 338.531 414.703Z" fill="#977065"/>
<path d="M353.759 417.208C355.68 418.552 356.147 421.205 354.8 423.129C353.453 425.053 350.801 425.525 348.88 424.181C346.96 422.837 346.493 420.184 347.839 418.26C349.185 416.336 351.837 415.864 353.759 417.208Z" fill="#977065"/>
<path d="M383.644 451.276C374.839 471.187 348.383 478.812 324.6 468.295C300.819 457.776 288.66 433.073 297.465 413.164C306.271 393.253 332.727 385.628 356.508 396.147C380.289 406.664 392.449 431.367 383.644 451.276Z" fill="#CEA69A"/>
<path d="M330.567 517.545C332.965 526.493 332.609 534.963 329.233 543.787C325.172 554.408 318.155 562.235 308.061 566.724C296.927 571.675 287.82 568.757 275.332 565.029C260.937 560.732 249.72 553.247 236.703 545.232C228.199 539.996 221.847 534.217 213.271 529.103C201.607 522.144 165.549 525.109 178.541 512.363C183.265 507.727 188.331 504.876 195.316 506.321C203.355 507.985 179.415 499.123 182.599 489.993C185.471 481.76 199.243 483.712 203.723 485.8C209.36 488.427 191.323 472.607 195.389 464.063C202.148 449.867 213.789 469.843 223.948 472.292C231.424 474.095 237.828 475.292 245.385 476.735C261.031 479.72 273.139 480.741 290.184 483.784C302.579 485.996 313.263 490.868 321.523 500.916C325.728 506.032 328.805 510.973 330.567 517.545Z" fill="#CEA69A" stroke="#4C363E" stroke-width="5.33333" stroke-miterlimit="3" stroke-linecap="square"/>
<path d="M261.207 486.379C264.907 487.256 267.243 490.779 266.423 494.239C265.601 497.7 261.932 499.797 258.232 498.92C254.532 498.043 252.196 494.52 253.016 491.06C253.837 487.599 257.507 485.501 261.207 486.379Z" fill="#977065"/>
<path d="M244.231 491.031C246.439 491.555 247.783 493.869 247.231 496.196C246.679 498.523 244.437 499.987 242.231 499.464C240.023 498.94 238.679 496.625 239.231 494.299C239.783 491.971 242.023 490.507 244.231 491.031Z" fill="#977065"/>
<path d="M250.077 499.624C251.395 499.936 252.163 501.46 251.792 503.025C251.42 504.589 250.049 505.607 248.732 505.293C247.415 504.981 246.647 503.457 247.017 501.892C247.388 500.328 248.76 499.311 250.077 499.624Z" fill="#977065"/>
<path d="M261.264 501.184C262.051 501.371 262.485 502.376 262.236 503.429C261.987 504.481 261.145 505.184 260.36 504.997C259.573 504.811 259.137 503.805 259.387 502.753C259.637 501.701 260.477 500.997 261.264 501.184Z" fill="#977065"/>
<path d="M282.131 471.761C298.204 463.056 320.568 473.189 332.043 494.377C343.516 515.564 339.781 539.832 323.708 548.536C307.635 557.241 285.269 547.107 273.796 525.92C262.323 504.733 266.056 480.465 282.131 471.761Z" fill="#CEA69A"/>
<path d="M845.891 226.728C845.363 224.893 844.311 223.621 843.544 223.887C842.777 224.153 842.584 225.859 843.113 227.692C843.641 229.525 844.693 230.799 845.46 230.532C846.227 230.267 846.42 228.561 845.891 226.728Z" fill="#4C363E"/>
<path d="M852.489 224.737C852.265 222.828 851.437 221.377 850.641 221.5C849.845 221.623 849.383 223.273 849.608 225.183C849.832 227.092 850.661 228.543 851.456 228.42C852.252 228.297 852.715 226.647 852.489 224.737Z" fill="#4C363E"/>
<path d="M887.825 267.867C889.632 267.929 891.133 267.285 891.175 266.431C891.216 265.576 889.783 264.832 887.976 264.771C886.169 264.708 884.669 265.352 884.627 266.207C884.585 267.061 886.019 267.805 887.825 267.867Z" fill="#4C363E"/>
<path d="M888.021 274.172C890.32 274.473 892.279 274.029 892.392 273.18C892.505 272.332 890.732 271.397 888.433 271.096C886.135 270.795 884.176 271.239 884.063 272.087C883.949 272.936 885.724 273.869 888.021 274.172Z" fill="#4C363E"/>
<path d="M796.493 301.309C795.795 278.977 820.168 279.653 821.637 272.405C826.348 249.16 839.815 214.603 869.883 230.447C884.676 238.243 887.417 253.315 885.628 268.713C881.969 300.192 835.351 321.927 805.653 316.327C800.357 315.328 796.676 307.153 796.493 301.309Z" fill="#B96363" stroke="#4C363E" stroke-width="5.33333" stroke-miterlimit="3" stroke-linecap="square"/>
<path d="M852.375 278.164C843.092 276.092 830.637 269.804 829.425 264.503C828.255 259.387 829.732 252.329 832.497 246.435C836.187 238.565 841.456 232.239 849.772 229.713C860.632 226.416 871.111 230.981 878.313 239.592C886.635 249.54 887.051 264.279 881.261 274.435C878.343 279.553 862.545 280.436 852.375 278.164Z" fill="#925151"/>
<path d="M863.271 241.516C862.368 244.637 859.381 246.416 856.299 246.204C851.204 245.854 848.265 239.052 851.987 235.094C854.649 232.261 858.951 232.5 861.516 235.118C863.183 236.822 863.968 239.104 863.271 241.516Z" fill="#CD8E7D"/>
<path d="M850.172 246.421C849.681 248.218 848.023 249.23 846.303 249.092C843.459 248.862 841.791 244.918 843.849 242.653C845.323 241.032 847.723 241.192 849.165 242.717C850.103 243.71 850.551 245.032 850.172 246.421Z" fill="#CD8E7D"/>
<path d="M855.281 250.085C855.016 251.12 854.095 251.696 853.135 251.607C851.547 251.459 850.6 249.173 851.739 247.876C852.553 246.947 853.893 247.052 854.704 247.941C855.231 248.519 855.487 249.285 855.281 250.085Z" fill="#CD8E7D"/>
<path d="M879.407 268.891C878.713 271.484 876.351 272.937 873.896 272.729C869.839 272.385 867.444 266.685 870.372 263.423C872.469 261.088 875.893 261.331 877.956 263.54C879.297 264.977 879.941 266.888 879.407 268.891Z" fill="#CD8E7D"/>
<path d="M881.312 320.607C882.092 319.035 882.167 317.512 881.48 317.208C880.792 316.903 879.601 317.932 878.821 319.503C878.043 321.075 877.967 322.597 878.655 322.901C879.341 323.207 880.532 322.177 881.312 320.607Z" fill="#4C363E"/>
<path d="M887.04 323.429C888.075 321.999 888.412 320.497 887.795 320.079C887.176 319.659 885.836 320.48 884.801 321.911C883.768 323.341 883.431 324.843 884.048 325.263C884.667 325.681 886.007 324.86 887.04 323.429Z" fill="#4C363E"/>
<path d="M884.287 374.847C885.479 376.029 886.9 376.543 887.459 375.992C888.019 375.443 887.505 374.035 886.315 372.852C885.123 371.669 883.701 371.156 883.143 371.707C882.583 372.257 883.096 373.664 884.287 374.847Z" fill="#4C363E"/>
<path d="M880.503 379.225C881.88 380.88 883.488 381.817 884.093 381.316C884.697 380.815 884.071 379.065 882.693 377.409C881.316 375.755 879.708 374.817 879.103 375.319C878.499 375.82 879.125 377.571 880.503 379.225Z" fill="#4C363E"/>
<path d="M801.34 339.745C814.744 324.233 830.912 340.08 836.417 336.116C854.071 323.404 884.712 308.587 895.329 338.265C900.553 352.867 893.053 364.768 882.265 374.031C860.212 392.963 817.751 380.379 798.243 355.663C795.143 351.735 797.833 343.803 801.34 339.745Z" fill="#B96363" stroke="#4C363E" stroke-width="5.33333" stroke-miterlimit="3" stroke-linecap="square"/>
<path d="M851.121 360.655C845.991 353.2 841.445 340.689 844.133 336.113C846.728 331.697 852.475 327.595 858.349 325.152C866.192 321.891 874.112 320.749 881.635 324.289C891.459 328.912 895.765 338.921 895.073 349.719C894.273 362.193 884.728 373.013 873.885 376.563C868.42 378.351 856.744 368.823 851.121 360.655Z" fill="#925151"/>
<path d="M883.951 341.56C881.397 343.096 878.257 342.411 876.292 340.321C873.041 336.868 875.268 330.423 880.261 330.101C883.835 329.871 886.613 332.748 886.732 336.135C886.808 338.337 885.924 340.373 883.951 341.56Z" fill="#CD8E7D"/>
<path d="M871.987 336.599C870.536 337.503 868.779 337.137 867.693 335.957C865.901 334.008 867.216 330.293 870.025 330.064C872.036 329.9 873.571 331.524 873.603 333.464C873.624 334.725 873.108 335.901 871.987 336.599Z" fill="#CD8E7D"/>
<path d="M873.188 342.297C872.363 342.828 871.379 342.636 870.78 341.969C869.792 340.867 870.568 338.727 872.149 338.571C873.281 338.457 874.127 339.375 874.127 340.487C874.127 341.209 873.824 341.888 873.188 342.297Z" fill="#CD8E7D"/>
<path d="M877.92 370.223C875.837 371.535 873.325 371.024 871.784 369.333C869.237 366.539 871.149 361.179 875.171 360.828C878.048 360.576 880.228 362.903 880.259 365.696C880.279 367.512 879.529 369.208 877.92 370.223Z" fill="#CD8E7D"/>
<path d="M858.247 416.417C859.549 415.693 860.361 414.675 860.057 414.143C859.755 413.612 858.451 413.769 857.148 414.493C855.845 415.217 855.033 416.237 855.337 416.768C855.64 417.299 856.944 417.143 858.247 416.417Z" fill="#4C363E"/>
<path d="M860.635 421.043C862.036 420.533 863.011 419.652 862.811 419.073C862.609 418.496 861.311 418.439 859.909 418.947C858.509 419.456 857.535 420.337 857.735 420.916C857.935 421.493 859.235 421.551 860.635 421.043Z" fill="#4C363E"/>
<path d="M833.107 455.348C833.305 456.721 833.991 457.74 834.637 457.62C835.283 457.499 835.647 456.287 835.448 454.912C835.249 453.539 834.563 452.52 833.917 452.641C833.271 452.761 832.908 453.975 833.107 455.348Z" fill="#4C363E"/>
<path d="M828.408 456.615C828.493 458.403 829.092 459.8 829.744 459.736C830.395 459.671 830.855 458.167 830.768 456.379C830.683 454.592 830.084 453.193 829.433 453.259C828.781 453.324 828.323 454.828 828.408 456.615Z" fill="#4C363E"/>
<path d="M795.645 392.388C812.288 387.899 815.089 406.404 820.721 406.227C838.783 405.656 866.511 409.683 858.716 435.175C854.881 447.717 843.957 452.457 832.173 453.84C808.085 456.665 789.747 435.26 785.633 401.963C785.125 397.848 791.291 393.563 795.645 392.388Z" fill="#B96363" stroke="#4C363E" stroke-width="5.33333" stroke-miterlimit="3" stroke-linecap="square"/>
<path d="M818.197 429.711C818.529 422.045 821.837 411.104 825.992 409.159C830.001 407.281 835.984 407.116 841.207 408.176C848.179 409.592 854.121 412.536 857.407 418.58C861.696 426.473 859.503 435.544 853.524 442.804C846.617 451.193 834.635 454.285 825.485 451.652C820.875 450.325 817.835 438.108 818.197 429.711Z" fill="#925151"/>
<path d="M849.523 432.151C847.061 432.024 845.321 430.087 845.063 427.724C844.633 423.819 849.332 420.395 852.804 422.5C855.289 424.007 855.695 427.293 854.079 429.692C853.029 431.252 851.425 432.249 849.523 432.151Z" fill="#CD8E7D"/>
<path d="M844.069 423.14C842.655 423.089 841.672 422.017 841.543 420.696C841.328 418.511 844.057 416.552 846.035 417.703C847.449 418.527 847.656 420.365 846.708 421.724C846.091 422.607 845.161 423.18 844.069 423.14Z" fill="#CD8E7D"/>
<path d="M842.016 427.645C841.204 427.628 840.648 427.036 840.584 426.295C840.48 425.072 842.064 423.952 843.191 424.58C843.997 425.031 844.1 426.06 843.544 426.829C843.183 427.329 842.644 427.657 842.016 427.645Z" fill="#CD8E7D"/>
<path d="M831.196 449.179C829.159 449.116 827.748 447.592 827.572 445.704C827.279 442.581 831.225 439.764 834.068 441.395C836.103 442.561 836.385 445.188 835.009 447.136C834.115 448.403 832.769 449.228 831.196 449.179Z" fill="#CD8E7D"/>
<path d="M662.712 452.007C593.139 430.328 490.24 408.827 497.993 330.007C506.221 246.357 594.98 186.791 673.299 202.181C764.46 220.096 841.335 307.957 806.701 394.067C783.753 451.127 719.815 469.8 662.712 452.007Z" fill="#CEA69A" stroke="#4C363E" stroke-width="8" stroke-miterlimit="3" stroke-linecap="square"/>
<path d="M600.268 223.516C600.203 231.939 610.465 233.135 617.557 231.847C623.061 230.847 628.695 228.232 629.571 222.376C631.04 212.576 618.34 210.511 610.469 212.993C605.351 214.607 600.312 217.832 600.268 223.516Z" fill="#CEA69A"/>
<path d="M572.776 315.279C565.896 323.52 574.264 334.187 581.761 339.475C587.58 343.579 594.823 346.211 600.363 341.251C609.635 332.951 599.752 319.173 590.579 314.341C584.616 311.2 577.419 309.719 572.776 315.279Z" fill="#C47C76"/>
<path d="M746.229 380.879C748.133 389.453 759.512 390.583 766.88 389.209C772.599 388.144 778.077 385.435 777.653 379.467C776.944 369.477 762.725 367.484 754.795 370.079C749.639 371.767 744.945 375.093 746.229 380.879Z" fill="#C47C76"/>
<path d="M605.875 319.531C613.953 326.559 624.652 322.277 630.325 314.177C637.403 304.073 635.42 284.6 623.296 282.344C608.175 279.529 600.973 288.559 599.568 303.567C599.165 307.88 601.256 315.512 605.875 319.531Z" fill="#4C363E"/>
<path d="M739.317 363.168C747.817 369.856 756.064 366.956 761.927 359.144C769.416 349.164 767.967 330.745 755.891 328.123C740.743 324.835 736.263 336.675 733.983 346.925C732.864 354.012 734.924 359.711 739.317 363.168Z" fill="#4C363E"/>
<path d="M598.917 236.373C598.62 239.037 600.591 241.743 603.332 243.071C607.861 245.267 612.753 241.82 610.899 237.205C609.572 233.903 605.768 232.008 602.644 232.648C600.613 233.064 599.145 234.316 598.917 236.373Z" fill="#CEA69A"/>
<path d="M590.101 223.949C589.864 225.328 590.767 226.653 592.101 227.245C594.309 228.224 596.888 226.289 596.108 223.977C595.549 222.324 593.697 221.476 592.103 221.908C591.067 222.191 590.285 222.883 590.101 223.949Z" fill="#CEA69A"/>
<path d="M579.209 303.449C578.971 304.828 579.873 306.155 581.209 306.747C583.417 307.724 585.995 305.789 585.215 303.477C584.657 301.824 582.804 300.976 581.211 301.409C580.173 301.691 579.393 302.384 579.209 303.449Z" fill="#C47C76"/>
<path d="M778.688 379.224C778.451 380.603 779.352 381.928 780.688 382.52C782.896 383.499 785.475 381.564 784.695 379.252C784.136 377.599 782.284 376.751 780.689 377.184C779.653 377.465 778.872 378.157 778.688 379.224Z" fill="#C47C76"/>
<path d="M780.589 367.031C780.489 367.735 780.981 368.431 781.684 368.757C782.847 369.299 784.151 368.351 783.705 367.152C783.387 366.293 782.411 365.825 781.591 366.02C781.059 366.145 780.665 366.488 780.589 367.031Z" fill="#C47C76"/>
<path d="M559.857 306.819C559.2 309.8 560.948 312.536 563.692 313.652C568.229 315.496 573.876 311.057 572.497 306.196C571.511 302.717 567.708 301.112 564.303 302.221C562.088 302.941 560.365 304.515 559.857 306.819Z" fill="#C47C76"/>
<path d="M756.899 393.913C756.477 395.739 757.524 397.397 759.185 398.06C761.933 399.156 765.4 396.408 764.593 393.449C764.016 391.332 761.712 390.377 759.633 391.077C758.281 391.532 757.223 392.504 756.899 393.913Z" fill="#C47C76"/>
<path d="M591.225 348.645C591.104 349.569 591.761 350.491 592.693 350.929C594.233 351.656 595.941 350.427 595.337 348.844C594.907 347.711 593.613 347.083 592.535 347.328C591.833 347.487 591.32 347.931 591.225 348.645Z" fill="#C47C76"/>
<path d="M740.979 337.164C740.319 340.353 742.249 343.321 745.229 344.564C750.155 346.619 756.176 341.945 754.608 336.703C753.487 332.951 749.356 331.165 745.7 332.3C743.323 333.037 741.489 334.699 740.979 337.164Z" fill="white"/>
<path d="M607.749 293.261C607.039 296.641 609.069 299.776 612.216 301.08C617.417 303.237 623.803 298.267 622.164 292.721C620.992 288.753 616.631 286.879 612.76 288.093C610.243 288.884 608.299 290.649 607.749 293.261Z" fill="white"/>
<path d="M619.649 237.939C619.381 240.399 621.605 242.439 623.749 244.139C630.961 249.856 637.437 239.676 636.557 235.312C635.909 232.099 626.943 232.277 623.087 234.505C621.568 235.383 619.855 236.039 619.649 237.939Z" fill="#CEA69A"/>
<path d="M759.291 272.513C761.359 278.299 775.067 281.675 773.153 275.775C772.196 272.824 767.141 272.491 766.763 269.92C766.483 268.027 764.52 264.425 761.625 264.316C757.516 264.16 758.14 269.297 759.291 272.513Z" fill="#CEA69A"/>
<path d="M573.605 228.191C570.462 238.72 567.784 246.745 565.569 252.267C557.561 272.227 539.604 283.768 535.02 305.065C530.741 324.939 533.693 342.597 539.552 361.925C544.246 377.409 556.195 396.791 575.399 420.072C542.799 407.26 521.945 392.843 512.839 376.823C503.696 360.739 500.956 344.575 501.707 326.164C502.809 299.165 514.088 277.365 532.176 257.529C540.251 248.674 554.06 238.895 573.605 228.191Z" fill="#977065"/>
<path d="M632.375 362.019C634.739 365.132 637.793 365.969 642.187 367.139C653.356 370.113 661.392 365.553 671.549 368.508C681.615 371.436 686.831 382.981 697.521 383.111C698.907 383.128 697.981 383.963 701.439 382.896C706.161 381.439 697.467 379.5 695.261 377.727C687.917 371.817 682.605 364.607 673.343 362.308C665.427 360.344 659.015 364.38 651.101 364.181C644.509 364.015 629.096 357.705 632.375 362.019Z" fill="#977065"/>
<path d="M682.391 390.092C683.383 389.3 680.087 389.849 677.828 390.12C671.597 390.865 669.653 391.6 665.697 390.768C660.681 389.713 655.381 384.048 654.484 383.335C653.585 382.62 652.176 380.935 650.139 381.501C647.356 382.275 651.588 382.941 652.4 383.696C656.457 387.465 659.104 391.985 665.125 393.145C669.384 393.965 673.475 393.8 678.148 392.071C679.669 391.508 680.939 391.252 682.391 390.092Z" fill="#4C363E"/>
<path d="M621.257 352.5C624.487 357.168 627.697 360.211 632.219 363.18C645.652 372.003 660.836 358.98 675.535 363.747C688.94 368.095 693.925 384.892 708.497 385.711C713.784 386.007 718.1 385.296 723.336 383.668C730.488 381.443 712.279 381.823 706.6 379.713C693.664 374.909 689.011 360.02 675.443 356.661C663.201 353.631 652.816 363.237 640.528 360.627C633.297 359.091 616.783 346.031 621.257 352.5Z" fill="#4C363E"/>
<path d="M557.937 142.221C559.479 140.645 561.273 139.923 561.941 140.609C562.611 141.296 561.901 143.133 560.36 144.711C558.819 146.288 557.024 147.011 556.355 146.323C555.687 145.636 556.395 143.799 557.937 142.221Z" fill="#4C363E"/>
<path d="M552.021 136.613C553.281 134.795 554.935 133.769 555.711 134.327C556.487 134.884 556.092 136.813 554.832 138.632C553.572 140.451 551.919 141.476 551.143 140.919C550.367 140.361 550.76 138.432 552.021 136.613Z" fill="#4C363E"/>
<path d="M491.536 161.263C489.592 160.344 488.348 158.875 488.761 157.984C489.176 157.092 491.091 157.115 493.035 158.033C494.98 158.951 496.223 160.42 495.809 161.312C495.396 162.203 493.481 162.181 491.536 161.263Z" fill="#4C363E"/>
<path d="M487.952 167.564C485.359 166.623 483.524 165.108 483.859 164.184C484.193 163.259 486.571 163.273 489.164 164.216C491.757 165.157 493.592 166.672 493.257 167.596C492.923 168.521 490.545 168.507 487.952 167.564Z" fill="#4C363E"/>
<path d="M570.259 244.869C582.957 222.548 556.808 209.995 559.136 201.829C566.6 175.64 570.86 133.196 530.561 132.971C510.735 132.859 497.116 145.916 493.408 163.317C487.772 189.777 516.093 247.545 555.568 253.012C561.928 253.893 566.936 250.709 570.259 244.869Z" fill="#B96363" stroke="#4C363E" stroke-width="5.33333" stroke-miterlimit="3" stroke-linecap="square"/>
<path d="M524.52 191.671C535.504 194.615 552.136 194.96 556.289 190.172C560.297 185.552 562.756 177.077 562.887 169.26C563.051 159.364 560.773 150.261 553.468 143.281C543.708 133.956 530.108 132.919 517.801 137.832C503.584 143.511 495.177 158.436 495.84 172.043C496.175 178.901 512.485 188.445 524.52 191.671Z" fill="#925151"/>
<path d="M531.628 147.813C530.912 151.476 533.12 154.908 536.495 156.367C542.072 158.779 548.825 153.461 547.007 147.415C545.707 143.089 541.028 140.995 536.912 142.264C534.236 143.091 532.181 144.983 531.628 147.813Z" fill="#CD8E7D"/>
<path d="M542.861 159.915C542.417 162.009 543.631 163.939 545.524 164.732C548.656 166.043 552.533 162.941 551.568 159.52C550.877 157.071 548.252 155.929 545.909 156.697C544.387 157.197 543.204 158.297 542.861 159.915Z" fill="#CD8E7D"/>
<path d="M535.492 160.864C535.219 162.061 535.885 163.147 536.949 163.577C538.707 164.289 540.933 162.481 540.424 160.543C540.059 159.156 538.585 158.536 537.252 158.999C536.384 159.3 535.704 159.94 535.492 160.864Z" fill="#CD8E7D"/>
<path d="M499.857 167.061C499.201 170.073 500.923 172.833 503.632 173.956C508.109 175.809 513.696 171.316 512.344 166.409C511.377 162.897 507.623 161.283 504.257 162.409C502.069 163.141 500.364 164.733 499.857 167.061Z" fill="#CD8E7D"/>
<path d="M469.907 219.896C469.844 218.108 470.507 216.732 471.385 216.823C472.264 216.913 473.028 218.439 473.091 220.225C473.153 222.012 472.491 223.388 471.611 223.297C470.732 223.207 469.968 221.683 469.907 219.896Z" fill="#4C363E"/>
<path d="M462.441 219.387C462.04 217.591 462.413 216.096 463.275 216.051C464.136 216.004 465.16 217.425 465.561 219.22C465.963 221.016 465.588 222.511 464.728 222.556C463.867 222.603 462.841 221.183 462.441 219.387Z" fill="#4C363E"/>
<path d="M440.293 265.976C438.449 266.393 436.689 266.103 436.363 265.328C436.037 264.553 437.268 263.585 439.111 263.168C440.953 262.751 442.715 263.041 443.041 263.816C443.367 264.591 442.136 265.559 440.293 265.976Z" fill="#4C363E"/>
<path d="M433.941 250.383C431.608 249.883 429.74 248.784 429.775 247.931C429.808 247.077 431.729 246.791 434.063 247.291C436.396 247.791 438.264 248.889 438.231 249.743C438.197 250.596 436.275 250.883 433.941 250.383Z" fill="#4C363E"/>
<path d="M437.117 233.897C435.048 232.708 433.607 231.091 433.899 230.288C434.192 229.485 436.109 229.801 438.177 230.991C440.247 232.181 441.688 233.797 441.396 234.6C441.103 235.403 439.185 235.088 437.117 233.897Z" fill="#4C363E"/>
<path d="M475.201 290.984C474.679 293.313 473.561 295.169 472.709 295.128C471.856 295.085 471.588 293.161 472.111 290.833C472.635 288.504 473.751 286.648 474.604 286.689C475.457 286.731 475.725 288.656 475.201 290.984Z" fill="#4C363E"/>
<path d="M545.567 278.417C538.885 257.804 513.975 263.285 510.057 256.933C497.495 236.563 472.155 207.567 446.396 228.091C433.723 238.189 432.78 253.923 442.84 266.315C460.26 287.772 515.891 312.66 541.096 294.012C545.341 290.872 547.315 283.811 545.567 278.417Z" fill="#B96363" stroke="#4C363E" stroke-width="5.33333" stroke-miterlimit="3" stroke-linecap="square"/>
<path d="M482.745 270.715C492.029 266.767 503.209 257.995 502.588 252.491C501.989 247.18 497.82 240.485 492.681 235.204C485.824 228.155 477.819 222.957 467.904 222.149C454.957 221.093 445.287 227.756 440.635 237.761C435.26 249.32 440.18 264.017 450.144 272.905C455.164 277.385 472.572 275.039 482.745 270.715Z" fill="#925151"/>
<path d="M447.16 263.187C449.127 265.868 452.796 266.903 455.905 266.093C461.043 264.756 461.82 257.935 456.671 255.048C452.985 252.983 448.628 254.059 446.851 256.972C445.696 258.865 445.641 261.115 447.16 263.187Z" fill="#CD8E7D"/>
<path d="M461.129 254.096C462.231 255.647 464.276 256.244 466.004 255.773C468.86 254.996 469.275 251.048 466.4 249.381C465.372 248.785 464.252 248.643 463.267 248.861C462.281 249.08 461.431 249.657 460.94 250.501C460.303 251.597 460.277 252.899 461.129 254.096Z" fill="#CD8E7D"/>
<path d="M482.785 259.548C483.403 260.444 484.543 260.788 485.503 260.515C487.091 260.064 487.311 257.779 485.707 256.816C484.559 256.128 483.212 256.492 482.669 257.468C482.317 258.103 482.308 258.856 482.785 259.548Z" fill="#CD8E7D"/>
<path d="M467.045 262.865C468.619 265.104 471.537 265.965 474 265.284C478.071 264.16 478.652 258.456 474.549 256.049C471.615 254.327 468.163 255.233 466.768 257.671C465.861 259.255 465.829 261.135 467.045 262.865Z" fill="#CD8E7D"/>
<path d="M447.695 316.067C446.664 314.751 446.299 313.433 446.88 313.124C447.461 312.816 448.771 313.635 449.803 314.949C450.833 316.265 451.199 317.584 450.617 317.892C450.036 318.2 448.727 317.381 447.695 316.067Z" fill="#4C363E"/>
<path d="M442.903 318.881C441.661 317.705 441.056 316.421 441.551 316.019C442.045 315.615 443.455 316.244 444.695 317.42C445.936 318.597 446.541 319.88 446.047 320.284C445.552 320.687 444.143 320.059 442.903 318.881Z" fill="#4C363E"/>
<path d="M455.429 363.368C454.548 364.471 453.323 365.007 452.695 364.564C452.067 364.121 452.272 362.867 453.153 361.764C454.035 360.661 455.26 360.125 455.888 360.568C456.516 361.011 456.311 362.265 455.429 363.368Z" fill="#4C363E"/>
<path d="M459.805 366.932C458.843 368.456 457.524 369.372 456.864 368.975C456.204 368.579 456.449 367.019 457.412 365.493C458.375 363.968 459.692 363.052 460.353 363.449C461.013 363.847 460.768 365.407 459.805 366.932Z" fill="#4C363E"/>
<path d="M525.947 327.619C510.448 314.995 498.447 329.784 492.548 326.691C473.631 316.768 442.197 305.841 438.049 332.295C436.009 345.308 444.579 356.493 457.156 362.531C480.831 373.895 528.281 368.787 531.919 341.248C532.48 336.999 530.001 330.921 525.947 327.619Z" fill="#B96363" stroke="#4C363E" stroke-width="5.33333" stroke-miterlimit="3" stroke-linecap="square"/>
<path d="M483.864 348.492C487.297 341.551 489.208 330.183 485.819 326.34C482.548 322.631 476.371 319.425 470.387 317.693C462.397 315.381 454.733 314.945 448.324 318.609C439.956 323.395 437.561 332.519 440.471 342.008C443.935 353.307 456.537 361.023 467.403 363.372C472.877 364.556 480.411 355.471 483.864 348.492Z" fill="#925151"/>
<path d="M475.852 335.093C478.531 336.265 481.324 335.472 482.752 333.532C485.112 330.327 481.788 324.868 477.072 324.907C473.697 324.933 471.664 327.608 472.211 330.557C472.565 332.475 473.783 334.188 475.852 335.093Z" fill="#CD8E7D"/>
<path d="M472.435 342.975C473.963 343.668 475.531 343.24 476.313 342.145C477.605 340.339 475.661 337.195 472.997 337.175C471.092 337.16 469.976 338.667 470.321 340.355C470.545 341.452 471.255 342.44 472.435 342.975Z" fill="#CD8E7D"/>
<path d="M465.992 335.927C466.864 336.335 467.744 336.105 468.172 335.488C468.88 334.468 467.743 332.659 466.239 332.623C465.161 332.597 464.551 333.447 464.767 334.413C464.907 335.04 465.319 335.611 465.992 335.927Z" fill="#CD8E7D"/>
<path d="M266.667 302.667C295.201 302.667 318.333 279.535 318.333 251C318.333 222.465 295.201 199.333 266.667 199.333C238.132 199.333 215 222.465 215 251C215 279.535 238.132 302.667 266.667 302.667Z" fill="white" fill-opacity="0.8"/>
<path d="M794.833 579C813.151 579 828 564.151 828 545.833C828 527.516 813.151 512.667 794.833 512.667C776.516 512.667 761.667 527.516 761.667 545.833C761.667 564.151 776.516 579 794.833 579Z" fill="white" fill-opacity="0.8"/>
<path d="M338.899 121.384C346.041 111.684 359.967 109.791 369.975 117.16C379.983 124.531 382.308 138.389 375.165 148.089C368.021 157.791 354.097 159.684 344.089 152.313C334.081 144.944 331.755 131.085 338.899 121.384Z" fill="white" fill-opacity="0.8"/>
</g>
<path d="M532.667 738.557C746.217 738.557 919.333 579.269 919.333 382.778C919.333 186.287 746.217 27 532.667 27C319.117 27 146 186.287 146 382.778C146 579.269 319.117 738.557 532.667 738.557Z" fill="#D3C3C8" fill-opacity="0.15"/>
</g>
<defs>
<clipPath id="clip0_2_463">
<rect width="1014.67" height="766.4" fill="white"/>
</clipPath>
</defs>
</svg>
