<svg width="752" height="559" viewBox="0 0 752 559" fill="none" xmlns="http://www.w3.org/2000/svg">
<g clip-path="url(#clip0_201_2)">
<path d="M561.288 363.243C563.005 383.776 562.028 401.909 554 421C541.532 450.651 514.96 464.007 488.971 481.52C428.101 522.54 362.608 537.688 289.928 527.376C245.361 521.052 208.913 506.585 171.321 481.888C92.0041 429.777 27.4067 355.293 38.1161 257.521C47.3041 173.644 99.7361 107.784 178.379 77.664C200.053 69.3613 219.263 60.72 242.657 63.5453C328.169 73.8707 135.587 146.808 158.991 231.775C170.336 272.96 189.837 291.592 220.425 303.493C291.644 331.204 361.815 242.121 456.649 240.604C479.103 240.244 501.556 257.272 520.033 275.076C545.223 299.347 558.377 328.436 561.288 363.243Z" fill="#F391A8" stroke="#992953" stroke-width="8" stroke-miterlimit="3" stroke-linecap="square"/>
<path d="M539.333 330.175C556.38 378.772 525.231 416.375 494.367 446.801C471.785 469.061 443.888 483.123 414.197 492.329C372.056 505.396 332.369 515.028 286.112 506.259C242.372 497.965 206.256 479.811 169.924 449.968C109.897 400.661 55.9854 337.952 59.2934 256.887C61.992 190.76 96.3334 142.148 147.631 110.993C157.725 104.863 166.173 98.9506 177.849 96.4413C230.74 85.072 121.007 176.457 134.888 227.9C150.265 284.892 194.432 320.203 245.593 334.017C310.377 351.511 362.313 279.859 432.18 266.541C467.445 259.819 494.355 267.833 518.013 293.835C527.969 304.777 534.399 316.108 539.333 330.175Z" fill="#FAC1D2"/>
<path d="M484.415 278.372C477.799 277.433 474.424 284.685 476.236 290.563C477.663 295.188 481.892 298.968 486.777 298.317C492.773 297.519 494.375 290.643 492.236 285.291C490.845 281.811 488.216 278.912 484.415 278.372Z" fill="#F680A4"/>
<path d="M83.9734 206.68C77.3054 206.571 72.8281 214.989 73.8721 221.18C74.6934 226.052 78.5161 229.605 83.6267 228.212C89.9001 226.503 92.5014 218.743 91.0481 213.173C90.1041 209.553 87.8054 206.743 83.9734 206.68Z" fill="#F680A4"/>
<path d="M82.656 241.524C71.7347 241.079 64.7467 254.512 66.7053 264.564C68.248 272.473 74.6467 278.373 82.9547 276.328C93.1547 273.817 97.1 261.375 94.4973 252.311C92.8053 246.417 88.928 241.78 82.656 241.524Z" fill="#F680A4"/>
<path d="M97.2027 228.519C92.7921 228.373 89.9254 233.844 90.6841 237.915C91.2814 241.117 93.8467 243.489 97.2094 242.633C101.339 241.581 102.973 236.521 101.951 232.855C101.287 230.469 99.7361 228.601 97.2027 228.519Z" fill="#F680A4"/>
<path d="M219.948 82.1307C213.999 77.0787 202.297 80.5906 197.628 86.3986C193.953 90.9706 194.196 96.7027 200.095 99.3747C207.337 102.655 216.739 98.2826 220.473 92.6746C222.901 89.028 223.367 85.0333 219.948 82.1307Z" fill="#FDE6EF"/>
<path d="M234.74 82.3787C232.267 79.6627 227.631 81.284 225.855 84.212C224.456 86.5173 224.651 89.4893 227.063 90.9707C230.024 92.7907 233.723 90.6867 235.128 87.8453C236.04 85.9987 236.16 83.9387 234.74 82.3787Z" fill="#FDE6EF"/>
<path d="M230.995 77.8666C232.184 76.5413 231.047 74.916 229.452 74.588C228.197 74.3293 226.72 74.7866 226.144 75.9306C225.439 77.3346 226.753 78.528 228.277 78.72C229.268 78.8453 230.311 78.628 230.995 77.8666Z" fill="#FDE6EF"/>
<path d="M328.78 477.781C327.785 477.672 327.236 478.805 327.479 479.699C327.669 480.403 328.289 480.96 329.031 480.835C329.941 480.68 330.22 479.615 329.925 478.803C329.733 478.276 329.351 477.844 328.78 477.781Z" fill="#F680A4"/>
<path d="M303.419 476.716C300.231 478.467 301.757 481.051 304.921 481.8C307.411 482.389 310.745 481.965 312.552 480.379C314.769 478.432 312.644 476.455 309.556 475.917C307.548 475.567 305.251 475.711 303.419 476.716Z" fill="#F680A4"/>
<path d="M270.577 471.357C268.277 471.069 267.056 473.641 267.649 475.697C268.117 477.315 269.568 478.616 271.275 478.357C273.371 478.039 273.972 475.609 273.26 473.741C272.797 472.527 271.899 471.524 270.577 471.357Z" fill="#F680A4"/>
<path d="M321.675 480.484C319.375 480.195 318.153 482.767 318.748 484.823C319.215 486.44 320.665 487.743 322.372 487.483C324.468 487.164 325.069 484.736 324.357 482.867C323.895 481.652 322.997 480.649 321.675 480.484Z" fill="#F680A4"/>
<path d="M271.228 485.443C266.812 493.083 274.024 500.388 282.112 500.775C288.476 501.079 295.188 497.595 296.803 491.363C298.785 483.711 291.159 478.729 283.553 478.973C278.608 479.132 273.763 481.055 271.228 485.443Z" fill="#F680A4"/>
<path d="M305.381 486.395C300.061 485.645 297.34 491.485 298.792 496.215C299.935 499.935 303.333 502.972 307.263 502.444C312.087 501.796 313.38 496.26 311.665 491.955C310.551 489.156 308.439 486.825 305.381 486.395Z" fill="#F680A4"/>
<path d="M470.26 288.831C468.653 288.595 467.843 290.348 468.289 291.772C468.64 292.893 469.671 293.813 470.856 293.661C472.309 293.475 472.691 291.812 472.165 290.513C471.824 289.669 471.183 288.965 470.26 288.831Z" fill="#F680A4"/>
<path d="M465.949 272.995C462.688 272.525 461.035 276.089 461.935 278.984C462.641 281.261 464.729 283.125 467.135 282.811C470.088 282.425 470.869 279.044 469.809 276.408C469.12 274.693 467.821 273.265 465.949 272.995Z" fill="#F680A4"/>
<path d="M561.288 363.243C563.005 383.776 562.028 401.909 554 421C541.532 450.651 514.96 464.007 488.971 481.52C428.101 522.54 362.608 537.688 289.928 527.376C245.361 521.052 208.913 506.585 171.321 481.888C92.0041 429.777 27.4067 355.293 38.1161 257.521C47.3041 173.644 99.7361 107.784 178.379 77.664C200.053 69.3613 219.263 60.72 242.657 63.5453C328.169 73.8707 135.587 146.808 158.991 231.775C170.336 272.96 189.837 291.592 220.425 303.493C291.644 331.204 361.815 242.121 456.649 240.604C479.103 240.244 501.556 257.272 520.033 275.076C545.223 299.347 558.377 328.436 561.288 363.243Z" fill="#F391A8" stroke="#992953" stroke-width="8" stroke-miterlimit="3" stroke-linecap="square"/>
<path d="M539.333 330.175C556.38 378.772 525.231 416.375 494.367 446.801C471.785 469.061 443.888 483.123 414.197 492.329C372.056 505.396 332.369 515.028 286.112 506.259C242.372 497.965 206.256 479.811 169.924 449.968C109.897 400.661 55.9854 337.952 59.2934 256.887C61.992 190.76 96.3334 142.148 147.631 110.993C157.725 104.863 166.173 98.9506 177.849 96.4413C230.74 85.072 121.007 176.457 134.888 227.9C150.265 284.892 194.432 320.203 245.593 334.017C310.377 351.511 362.313 279.859 432.18 266.541C467.445 259.819 494.355 267.833 518.013 293.835C527.969 304.777 534.399 316.108 539.333 330.175Z" fill="#FAC1D2"/>
<path d="M484.415 278.372C477.799 277.433 474.424 284.685 476.236 290.563C477.663 295.188 481.892 298.968 486.777 298.317C492.773 297.519 494.375 290.643 492.236 285.291C490.845 281.811 488.216 278.912 484.415 278.372Z" fill="#F680A4"/>
<path d="M83.9734 206.68C77.3054 206.571 72.8281 214.989 73.8721 221.18C74.6934 226.052 78.5161 229.605 83.6267 228.212C89.9001 226.503 92.5014 218.743 91.0481 213.173C90.1041 209.553 87.8054 206.743 83.9734 206.68Z" fill="#F680A4"/>
<path d="M82.656 241.524C71.7347 241.079 64.7467 254.512 66.7053 264.564C68.248 272.473 74.6467 278.373 82.9547 276.328C93.1547 273.817 97.1 261.375 94.4973 252.311C92.8053 246.417 88.928 241.78 82.656 241.524Z" fill="#F680A4"/>
<path d="M97.2027 228.519C92.7921 228.373 89.9254 233.844 90.6841 237.915C91.2814 241.117 93.8467 243.489 97.2094 242.633C101.339 241.581 102.973 236.521 101.951 232.855C101.287 230.469 99.7361 228.601 97.2027 228.519Z" fill="#F680A4"/>
<path d="M219.948 82.1307C213.999 77.0787 202.297 80.5906 197.628 86.3986C193.953 90.9706 194.196 96.7027 200.095 99.3747C207.337 102.655 216.739 98.2826 220.473 92.6746C222.901 89.028 223.367 85.0333 219.948 82.1307Z" fill="#FDE6EF"/>
<path d="M234.74 82.3787C232.267 79.6627 227.631 81.284 225.855 84.212C224.456 86.5173 224.651 89.4893 227.063 90.9707C230.024 92.7907 233.723 90.6867 235.128 87.8453C236.04 85.9987 236.16 83.9387 234.74 82.3787Z" fill="#FDE6EF"/>
<path d="M230.995 77.8666C232.184 76.5413 231.047 74.916 229.452 74.588C228.197 74.3293 226.72 74.7866 226.144 75.9306C225.439 77.3346 226.753 78.528 228.277 78.72C229.268 78.8453 230.311 78.628 230.995 77.8666Z" fill="#FDE6EF"/>
<path d="M328.78 477.781C327.785 477.672 327.236 478.805 327.479 479.699C327.669 480.403 328.289 480.96 329.031 480.835C329.941 480.68 330.22 479.615 329.925 478.803C329.733 478.276 329.351 477.844 328.78 477.781Z" fill="#F680A4"/>
<path d="M303.419 476.716C300.231 478.467 301.757 481.051 304.921 481.8C307.411 482.389 310.745 481.965 312.552 480.379C314.769 478.432 312.644 476.455 309.556 475.917C307.548 475.567 305.251 475.711 303.419 476.716Z" fill="#F680A4"/>
<path d="M270.577 471.357C268.277 471.069 267.056 473.641 267.649 475.697C268.117 477.315 269.568 478.616 271.275 478.357C273.371 478.039 273.972 475.609 273.26 473.741C272.797 472.527 271.899 471.524 270.577 471.357Z" fill="#F680A4"/>
<path d="M321.675 480.484C319.375 480.195 318.153 482.767 318.748 484.823C319.215 486.44 320.665 487.743 322.372 487.483C324.468 487.164 325.069 484.736 324.357 482.867C323.895 481.652 322.997 480.649 321.675 480.484Z" fill="#F680A4"/>
<path d="M271.228 485.443C266.812 493.083 274.024 500.388 282.112 500.775C288.476 501.079 295.188 497.595 296.803 491.363C298.785 483.711 291.159 478.729 283.553 478.973C278.608 479.132 273.763 481.055 271.228 485.443Z" fill="#F680A4"/>
<path d="M305.381 486.395C300.061 485.645 297.34 491.485 298.792 496.215C299.935 499.935 303.333 502.972 307.263 502.444C312.087 501.796 313.38 496.26 311.665 491.955C310.551 489.156 308.439 486.825 305.381 486.395Z" fill="#F680A4"/>
<path d="M470.26 288.831C468.653 288.595 467.843 290.348 468.289 291.772C468.64 292.893 469.671 293.813 470.856 293.661C472.309 293.475 472.691 291.812 472.165 290.513C471.824 289.669 471.183 288.965 470.26 288.831Z" fill="#F680A4"/>
<path d="M465.949 272.995C462.688 272.525 461.035 276.089 461.935 278.984C462.641 281.261 464.729 283.125 467.135 282.811C470.088 282.425 470.869 279.044 469.809 276.408C469.12 274.693 467.821 273.265 465.949 272.995Z" fill="#F680A4"/>
<path d="M530.204 409.759C528.753 420.16 522.936 428.16 514.34 433.032C504.436 438.645 494.528 434.772 484.38 431.497C472.825 426.092 465.883 419.068 455.872 411.783C451.748 408.781 439.808 399.264 443.429 404.487C445.472 407.433 448.415 410.588 447.153 414.587C446.311 417.259 444.912 419.088 442.039 420.031C436.957 421.697 434.081 421.008 430.192 419.605C425.969 418.083 422.313 415.197 420.235 410.487C417.652 404.635 429.224 388.897 423.744 395.6C420.944 399.024 418.599 406.375 419.551 411.064C420.471 415.597 410.115 407.681 408.876 402.319C408.035 398.676 409.552 395.529 410.848 392.108C412.203 388.536 414.416 386.155 416.383 382.955C419.293 378.221 409.912 393.383 408.24 396.527C406.092 400.569 405.037 388.905 405.335 384.405C405.655 379.556 409.069 374.016 415.579 367.787C422.492 364.105 420.493 364.919 427.721 364.491C433.275 364.163 417.461 364.477 414.333 367.944C412.495 369.98 415.785 362.224 417.815 360.451C421.971 356.817 424.145 355.837 428.009 355.52C431.476 355.095 436.996 358.868 442.061 359.904C450.035 361.536 457.191 359.037 465.131 360.895C473.077 362.752 478.988 366.808 486.389 370.276C494.316 373.991 500.968 377.205 508.711 381.4C517.823 386.337 529.42 390.825 530.46 403.233C530.651 405.519 530.523 407.48 530.204 409.759Z" fill="#FAC1D2" stroke="#992953" stroke-width="5.33333" stroke-miterlimit="3" stroke-linecap="square"/>
<path d="M537.392 395.204C523.538 411.678 511.031 420.922 499.872 422.936C486.044 425.433 468.32 418.299 446.7 401.533C480.599 433.129 506.9 442.983 525.621 431.039C532.197 426.843 536.121 414.898 537.392 395.204Z" fill="#F391A8"/>
<path d="M507.328 396.249C506.567 400.892 512.004 405.439 516.448 405.752C519.945 405.997 522.827 403.924 522.376 400.117C521.823 395.444 516.655 392.319 512.604 392.397C509.971 392.448 507.765 393.581 507.328 396.249Z" fill="#F680A4"/>
<path d="M497.172 388.821C496.597 390.739 498.629 392.273 500.476 392.155C501.931 392.06 503.253 391.064 503.273 389.552C503.299 387.695 501.303 386.719 499.599 386.973C498.491 387.14 497.503 387.72 497.172 388.821Z" fill="#F680A4"/>
<path d="M434.316 374.088C433.741 376.005 435.773 377.541 437.62 377.421C439.073 377.328 440.397 376.331 440.417 374.819C440.443 372.963 438.445 371.985 436.741 372.241C435.635 372.407 434.647 372.987 434.316 374.088Z" fill="#F680A4"/>
<path d="M501.691 395.589C501.344 396.395 502.112 396.903 502.893 396.752C503.508 396.635 504.119 396.159 504.211 395.547C504.323 394.796 503.539 394.512 502.809 394.709C502.336 394.837 501.889 395.125 501.691 395.589Z" fill="#F680A4"/>
<path d="M506.055 389.32C506.655 391.039 508.941 391.092 510.217 390.023C511.223 389.181 511.653 387.743 510.867 386.617C509.9 385.235 507.935 385.575 506.835 386.669C506.12 387.38 505.711 388.332 506.055 389.32Z" fill="#F680A4"/>
<path d="M362.04 291.844C353.148 286.331 343.411 285.745 334.369 289.317C323.951 293.433 320.823 303.611 317.088 313.591C314.127 326.025 315.249 335.909 314.684 348.344C314.451 353.467 314.413 368.827 312.628 362.676C311.621 359.207 311.008 354.904 307.156 353.332C304.581 352.28 302.313 352.2 299.819 353.832C295.405 356.719 294.163 359.395 292.845 363.315C291.415 367.569 291.381 372.253 293.723 376.877C296.632 382.623 315.863 383.675 307.333 383.656C302.975 383.645 295.877 380.776 292.857 377.041C289.937 373.431 289.644 386.537 293.005 390.924C295.288 393.905 298.643 394.735 302.073 395.911C305.653 397.139 308.848 396.939 312.521 397.452C317.955 398.212 300.515 395.825 297.067 395.117C292.635 394.207 300.955 402.473 304.597 405.116C308.525 407.964 314.889 408.847 323.689 407.764C330.781 404.739 328.924 405.773 333.707 400.428C337.381 396.319 327.395 408.412 322.801 408.632C320.103 408.76 328.095 411.155 330.709 410.709C336.064 409.799 338.157 408.733 340.783 405.932C343.245 403.508 343.744 396.807 346.068 392.207C349.727 384.965 356.057 380.997 359.521 373.64C362.989 366.275 363.512 359.089 365.405 351.12C367.433 342.585 369.06 335.361 370.604 326.663C372.423 316.427 376.117 304.544 367.216 295.813C365.576 294.205 363.989 293.052 362.04 291.844Z" fill="#FAC1D2" stroke="#992953" stroke-width="5.33333" stroke-miterlimit="3" stroke-linecap="square"/>
<path d="M369.932 289.597C352.169 293.509 339.83 298.944 332.917 305.901C323.157 315.724 317.823 334.429 316.915 362.019C309.885 315.607 316.147 289.988 335.715 285.107C345.916 282.561 356.699 282.263 369.932 289.597Z" fill="#F391A8"/>
<path d="M355.347 313.947C353.075 314.599 350.949 312.025 350.869 309.735C350.805 307.932 351.861 306.32 353.707 306.344C355.972 306.373 357.409 308.885 357.307 310.993C357.239 312.364 356.652 313.572 355.347 313.947Z" fill="#F680A4"/>
<path d="M303.072 365.481C301.244 364.704 301.315 362.144 302.544 360.784C303.512 359.713 305.093 359.321 306.269 360.271C307.713 361.437 307.233 363.613 305.987 364.775C305.177 365.529 304.123 365.928 303.072 365.481Z" fill="#F680A4"/>
<path d="M363.287 311.317C361.457 310.54 361.528 307.98 362.759 306.62C363.727 305.549 365.308 305.157 366.484 306.107C367.927 307.273 367.448 309.449 366.201 310.611C365.391 311.365 364.337 311.764 363.287 311.317Z" fill="#F680A4"/>
<path d="M359.228 300.196C358.395 299.951 358.477 299.029 359.075 298.517C359.544 298.115 360.287 297.944 360.813 298.264C361.46 298.656 361.196 299.447 360.595 299.887C360.204 300.173 359.707 300.336 359.228 300.196Z" fill="#F680A4"/>
<path d="M350.832 301.52C349.879 299.956 351.247 298.144 352.856 297.835C354.121 297.592 355.493 298.175 355.875 299.505C356.343 301.139 354.869 302.449 353.351 302.607C352.363 302.708 351.379 302.419 350.832 301.52Z" fill="#F680A4"/>
<path d="M234.791 328.803C231.716 337.543 226.64 344.329 218.871 349.707C209.52 356.177 199.309 358.673 188.444 356.677C176.459 354.476 170.592 346.924 162.391 336.795C152.939 325.119 147.909 312.608 141.692 298.641C137.632 289.517 135.652 281.161 131.464 272.097C125.768 259.767 94.3362 241.851 112.257 238.668C118.775 237.511 124.564 238.019 129.512 243.156C135.207 249.069 120.455 228.235 128.24 222.5C135.259 217.327 145.523 226.716 148.04 230.968C151.208 236.32 145.257 213.077 153.439 208.324C167.033 200.425 165.36 223.485 172.359 231.244C177.511 236.953 182.12 241.557 187.543 247.017C198.767 258.317 208.183 265.997 220.531 278.135C229.511 286.96 235.577 297.015 236.719 309.972C237.3 316.568 237.048 322.384 234.791 328.803Z" fill="#FAC1D2" stroke="#992953" stroke-width="5.33333" stroke-miterlimit="3" stroke-linecap="square"/>
<path d="M198.748 328.235C203.169 331.328 204.077 337.675 200.773 342.399C197.469 347.121 191.196 348.445 186.775 345.352C182.352 342.259 181.445 335.913 184.749 331.189C188.053 326.465 194.325 325.143 198.748 328.235Z" fill="#F680A4"/>
<path d="M198.748 328.235C203.169 331.328 204.077 337.675 200.773 342.399C197.469 347.121 191.196 348.445 186.775 345.352C182.352 342.259 181.445 335.913 184.749 331.189C188.053 326.465 194.325 325.143 198.748 328.235Z" fill="#F680A4"/>
<path d="M186.8 313.912C189.715 315.951 190.369 320.053 188.26 323.068C186.151 326.084 182.072 326.876 179.157 324.837C176.243 322.799 175.589 318.696 177.699 315.681C179.807 312.665 183.885 311.873 186.8 313.912Z" fill="#F680A4"/>
<path d="M202.028 316.417C203.949 317.76 204.416 320.413 203.069 322.339C201.724 324.263 199.071 324.735 197.151 323.391C195.229 322.047 194.763 319.393 196.109 317.469C197.455 315.544 200.108 315.073 202.028 316.417Z" fill="#F680A4"/>
<path d="M231.913 350.485C223.108 370.395 196.652 378.02 172.871 367.503C149.089 356.985 136.931 332.283 145.736 312.372C154.541 292.463 180.997 284.837 204.779 295.355C228.56 305.872 240.719 330.576 231.913 350.485Z" fill="#FAC1D2"/>
<path d="M178.836 416.753C181.236 425.703 180.879 434.171 177.504 442.996C173.441 453.617 166.425 461.444 156.332 465.932C145.196 470.884 136.089 467.965 123.601 464.237C109.207 459.94 97.9908 452.456 84.9721 444.44C76.4694 439.205 70.1161 433.427 61.5414 428.311C49.8761 421.353 13.8188 424.319 26.8108 411.571C31.5361 406.935 36.6001 404.084 43.5854 405.531C51.6241 407.193 27.6841 398.332 30.8694 389.201C33.7414 380.969 47.5134 382.921 51.9921 385.008C57.6294 387.636 39.5921 371.816 43.6588 363.272C50.4174 349.075 62.0601 369.052 72.2174 371.501C79.6934 373.304 86.0974 374.501 93.6561 375.944C109.3 378.929 121.408 379.951 138.453 382.993C150.849 385.205 161.533 390.077 169.792 400.125C173.997 405.24 177.075 410.183 178.836 416.753Z" fill="#FAC1D2" stroke="#992953" stroke-width="5.33333" stroke-miterlimit="3" stroke-linecap="square"/>
<path d="M109.476 385.588C113.176 386.465 115.513 389.987 114.692 393.448C113.871 396.909 110.201 399.007 106.501 398.128C102.803 397.251 100.465 393.729 101.287 390.268C102.107 386.808 105.777 384.711 109.476 385.588Z" fill="#F680A4"/>
<path d="M92.5001 390.24C94.7081 390.764 96.0521 393.077 95.5001 395.405C94.9481 397.732 92.7081 399.196 90.5001 398.672C88.2921 398.149 86.9481 395.835 87.5001 393.507C88.0521 391.18 90.2921 389.716 92.5001 390.24Z" fill="#F680A4"/>
<path d="M98.3467 398.832C99.664 399.145 100.433 400.669 100.061 402.233C99.6907 403.799 98.32 404.815 97.0014 404.503C95.684 404.191 94.916 402.667 95.2867 401.101C95.6587 399.537 97.0294 398.52 98.3467 398.832Z" fill="#F680A4"/>
<path d="M109.533 400.393C110.32 400.58 110.756 401.585 110.507 402.637C110.256 403.689 109.416 404.392 108.629 404.207C107.843 404.02 107.408 403.013 107.657 401.961C107.907 400.909 108.748 400.207 109.533 400.393Z" fill="#F680A4"/>
<path d="M130.4 370.969C146.473 362.265 168.839 372.399 180.312 393.585C191.785 414.772 188.052 439.04 171.979 447.745C155.904 456.449 133.54 446.316 122.065 425.129C110.592 403.943 114.327 379.675 130.4 370.969Z" fill="#FAC1D2"/>
<path d="M678.543 86.912C677.729 85.1854 676.489 84.0947 675.775 84.4787C675.06 84.864 675.14 86.5774 675.952 88.304C676.765 90.0307 678.005 91.1214 678.72 90.7374C679.435 90.352 679.355 88.6387 678.543 86.912Z" fill="#992953"/>
<path d="M684.743 83.9C684.217 82.0507 683.171 80.7493 682.404 80.9973C681.639 81.2453 681.443 82.948 681.967 84.7974C682.492 86.6467 683.54 87.948 684.305 87.7C685.071 87.4533 685.267 85.7507 684.743 83.9Z" fill="#992953"/>
<path d="M726.467 120.885C728.261 120.66 729.64 119.787 729.547 118.936C729.452 118.085 727.919 117.579 726.125 117.803C724.332 118.028 722.952 118.901 723.047 119.752C723.14 120.603 724.673 121.109 726.467 120.885Z" fill="#992953"/>
<path d="M727.66 127.079C729.977 127.012 731.841 126.263 731.819 125.408C731.796 124.552 729.896 123.911 727.579 123.977C725.261 124.044 723.399 124.792 723.421 125.648C723.443 126.504 725.343 127.145 727.66 127.079Z" fill="#992953"/>
<path d="M641.589 168.38C637.36 146.441 661.532 143.245 661.835 135.856C662.801 112.157 670.621 75.9027 702.82 86.7814C718.663 92.1347 723.757 106.581 724.431 122.069C725.808 153.729 683.224 182.579 653.015 181.756C647.627 181.609 642.696 174.12 641.589 168.38Z" fill="#CA4986" stroke="#992953" stroke-width="5.33333" stroke-miterlimit="3" stroke-linecap="square"/>
<path d="M693.096 136.671C683.601 136.095 670.309 131.861 668.272 126.819C666.305 121.952 666.645 114.751 668.441 108.492C670.837 100.137 675.037 93.0561 682.848 89.2454C693.048 84.2681 704.117 87.1147 712.593 94.4747C722.387 102.979 725.133 117.465 721.027 128.411C718.956 133.927 703.499 137.301 693.096 136.671Z" fill="#F46AA6"/>
<path d="M698.047 98.7587C697.649 101.983 694.983 104.213 691.905 104.493C686.82 104.955 682.84 98.7041 685.887 94.2067C688.068 90.9881 692.352 90.5414 695.3 92.7214C697.216 94.1374 698.353 96.2667 698.047 98.7587Z" fill="#F78FCC"/>
<path d="M685.891 105.677C685.691 107.531 684.213 108.792 682.493 108.928C679.649 109.152 677.377 105.523 679.051 102.96C680.248 101.125 682.644 100.903 684.309 102.181C685.392 103.012 686.044 104.247 685.891 105.677Z" fill="#F78FCC"/>
<path d="M691.516 108.485C691.417 109.549 690.6 110.264 689.637 110.328C688.047 110.435 686.749 108.328 687.668 106.865C688.325 105.82 689.665 105.712 690.607 106.46C691.219 106.948 691.592 107.663 691.516 108.485Z" fill="#F78FCC"/>
<path d="M718.317 123.231C718.044 125.9 715.941 127.711 713.484 127.893C709.424 128.197 706.155 122.948 708.531 119.263C710.231 116.625 713.651 116.323 716.037 118.177C717.589 119.384 718.528 121.168 718.317 123.231Z" fill="#F78FCC"/>
<path d="M728.395 173.991C728.915 172.315 728.748 170.799 728.021 170.608C727.295 170.416 726.281 171.62 725.761 173.295C725.24 174.971 725.408 176.487 726.135 176.677C726.861 176.869 727.873 175.665 728.395 173.991Z" fill="#992953"/>
<path d="M734.499 175.869C735.292 174.293 735.388 172.757 734.711 172.441C734.035 172.125 732.841 173.148 732.047 174.724C731.253 176.301 731.157 177.837 731.835 178.153C732.511 178.469 733.704 177.447 734.499 175.869Z" fill="#992953"/>
<path d="M739.929 227.073C741.292 228.052 742.777 228.333 743.243 227.701C743.707 227.069 742.977 225.761 741.615 224.783C740.251 223.804 738.765 223.523 738.301 224.155C737.836 224.787 738.565 226.095 739.929 227.073Z" fill="#992953"/>
<path d="M736.887 231.996C738.508 233.412 740.245 234.083 740.763 233.492C741.28 232.901 740.383 231.272 738.761 229.856C737.14 228.44 735.403 227.771 734.885 228.361C734.368 228.952 735.264 230.58 736.887 231.996Z" fill="#992953"/>
<path d="M652.467 205.561C663.243 188.121 681.719 201.204 686.525 196.419C701.94 181.069 729.847 161.584 745.035 189.204C752.507 202.793 746.987 215.733 737.803 226.588C719.029 248.776 675.111 243.081 651.932 221.769C648.247 218.383 649.648 210.124 652.467 205.561Z" fill="#CA4986" stroke="#992953" stroke-width="5.33333" stroke-miterlimit="3" stroke-linecap="square"/>
<path d="M704.933 218.317C698.685 211.771 692.215 200.137 694.144 195.193C696.005 190.421 701.029 185.46 706.443 182.117C713.669 177.653 721.309 175.272 729.297 177.576C739.729 180.583 745.568 189.783 746.596 200.553C747.784 212.996 740.073 225.193 729.931 230.416C724.819 233.048 711.779 225.491 704.933 218.317Z" fill="#F46AA6"/>
<path d="M734.321 194.26C732.043 196.183 728.835 196.003 726.563 194.252C722.807 191.357 723.983 184.64 728.863 183.531C732.353 182.739 735.553 185.137 736.207 188.463C736.631 190.625 736.081 192.776 734.321 194.26Z" fill="#F78FCC"/>
<path d="M721.721 191.259C720.433 192.38 718.64 192.299 717.381 191.305C715.303 189.664 716.012 185.788 718.749 185.117C720.709 184.636 722.481 185.997 722.821 187.907C723.041 189.149 722.719 190.391 721.721 191.259Z" fill="#F78FCC"/>
<path d="M723.811 196.695C723.081 197.349 722.079 197.315 721.383 196.752C720.232 195.82 720.657 193.584 722.195 193.179C723.295 192.889 724.275 193.66 724.451 194.757C724.565 195.472 724.375 196.189 723.811 196.695Z" fill="#F78FCC"/>
<path d="M732.909 223.516C731.06 225.143 728.5 225.036 726.711 223.611C723.752 221.256 724.791 215.661 728.705 214.676C731.507 213.972 734.028 215.923 734.5 218.676C734.808 220.467 734.337 222.26 732.909 223.516Z" fill="#F78FCC"/>
<path d="M720.807 272.245C721.977 271.324 722.617 270.189 722.233 269.713C721.849 269.237 720.587 269.599 719.416 270.52C718.244 271.441 717.605 272.576 717.989 273.053C718.372 273.529 719.635 273.168 720.807 272.245Z" fill="#992953"/>
<path d="M723.897 276.433C725.2 275.709 726.021 274.684 725.733 274.145C725.444 273.605 724.151 273.756 722.849 274.48C721.547 275.204 720.724 276.229 721.013 276.768C721.303 277.308 722.595 277.157 723.897 276.433Z" fill="#992953"/>
<path d="M702.153 314.669C702.568 315.993 703.407 316.889 704.025 316.669C704.644 316.448 704.811 315.192 704.396 313.868C703.983 312.543 703.144 311.647 702.525 311.867C701.905 312.088 701.74 313.344 702.153 314.669Z" fill="#992953"/>
<path d="M697.715 316.664C698.083 318.415 698.896 319.701 699.529 319.533C700.161 319.367 700.376 317.808 700.008 316.057C699.64 314.307 698.828 313.02 698.195 313.188C697.563 313.355 697.347 314.913 697.715 316.664Z" fill="#992953"/>
<path d="M655.188 258.441C670.908 251.372 676.607 269.199 682.14 268.131C699.883 264.705 727.897 264.287 724.243 290.692C722.444 303.683 712.409 310.095 700.993 313.328C677.657 319.935 656.159 301.707 646.82 269.481C645.667 265.5 651.075 260.292 655.188 258.441Z" fill="#CA4986" stroke="#992953" stroke-width="5.33333" stroke-miterlimit="3" stroke-linecap="square"/>
<path d="M683.369 291.719C682.481 284.097 684.015 272.769 687.809 270.191C691.469 267.703 697.351 266.591 702.676 266.809C709.784 267.103 716.117 269.067 720.319 274.515C725.805 281.628 725.077 290.931 720.325 299.048C714.835 308.425 703.493 313.377 694.043 312.228C689.28 311.648 684.343 300.068 683.369 291.719Z" fill="#F46AA6"/>
<path d="M714.687 289.163C712.236 289.428 710.211 287.791 709.58 285.499C708.539 281.711 712.635 277.585 716.396 279.113C719.088 280.208 720.009 283.388 718.795 286.013C718.005 287.72 716.58 288.959 714.687 289.163Z" fill="#F78FCC"/>
<path d="M707.873 281.131C706.469 281.304 705.328 280.403 704.991 279.117C704.433 276.993 706.816 274.628 708.952 275.451C710.48 276.04 710.975 277.823 710.253 279.315C709.785 280.284 708.957 280.996 707.873 281.131Z" fill="#F78FCC"/>
<path d="M706.56 285.904C705.756 286.016 705.112 285.519 704.932 284.797C704.635 283.607 706.021 282.249 707.235 282.692C708.103 283.008 708.367 284.008 707.94 284.856C707.661 285.407 707.181 285.817 706.56 285.904Z" fill="#F78FCC"/>
<path d="M699.289 308.88C697.268 309.141 695.635 307.86 695.16 306.024C694.376 302.988 697.827 299.58 700.892 300.739C703.085 301.569 703.781 304.117 702.731 306.259C702.048 307.651 700.851 308.679 699.289 308.88Z" fill="#F78FCC"/>
<path d="M533.383 338.376C461.253 327.999 356.248 323.076 351.411 244.024C346.277 160.127 424.473 87.2453 504.241 90.0293C597.089 93.2707 686.917 167.836 666.371 258.347C652.755 318.323 592.584 346.893 533.383 338.376Z" fill="#FAC1D2" stroke="#992953" stroke-width="8" stroke-miterlimit="3" stroke-linecap="square"/>
<path d="M435.515 122.669C436.785 130.996 447.108 130.551 453.907 128.155C459.183 126.295 464.329 122.82 464.267 116.9C464.164 106.991 451.297 106.964 443.919 110.663C439.121 113.067 434.657 117.051 435.515 122.669Z" fill="#FDE6EF"/>
<path d="M422.915 217.629C417.427 226.857 427.38 236.063 435.621 240.096C442.016 243.225 449.584 244.676 454.268 238.901C462.108 229.236 450.167 217.2 440.344 213.883C433.957 211.725 426.617 211.404 422.915 217.629Z" fill="#F680A4"/>
<path d="M604.572 254.909C607.811 263.075 619.224 262.385 626.283 259.863C631.76 257.904 636.739 254.36 635.375 248.535C633.091 238.784 618.737 239.071 611.317 242.889C606.493 245.372 602.387 249.4 604.572 254.909Z" fill="#F680A4"/>
<path d="M456.268 216.581C465.359 222.24 475.244 216.317 479.561 207.42C484.948 196.323 479.904 177.411 467.576 177.104C452.2 176.721 446.52 186.777 447.512 201.819C447.797 206.143 451.071 213.347 456.268 216.581Z" fill="#992953"/>
<path d="M594.94 238.519C604.393 243.775 612.076 239.604 616.625 230.961C622.439 219.92 618.089 201.964 605.749 201.289C590.272 200.443 587.725 212.844 587.099 223.327C587.117 230.5 590.055 235.801 594.94 238.519Z" fill="#992953"/>
<path d="M436.219 135.579C436.348 138.256 438.723 140.615 441.639 141.492C446.46 142.943 450.744 138.763 448.181 134.5C446.348 131.451 442.292 130.183 439.309 131.309C437.369 132.041 436.119 133.511 436.219 135.579Z" fill="#FDE6EF"/>
<path d="M425.545 124.708C425.529 126.108 426.631 127.273 428.043 127.647C430.379 128.263 432.617 125.943 431.48 123.784C430.667 122.24 428.704 121.696 427.199 122.376C426.22 122.819 425.559 123.627 425.545 124.708Z" fill="#FDE6EF"/>
<path d="M427.391 204.929C427.375 206.329 428.476 207.495 429.888 207.868C432.224 208.484 434.461 206.165 433.325 204.007C432.512 202.461 430.549 201.919 429.044 202.599C428.064 203.04 427.404 203.848 427.391 204.929Z" fill="#F680A4"/>
<path d="M636.359 248.131C636.343 249.531 637.443 250.697 638.856 251.069C641.191 251.685 643.429 249.367 642.293 247.208C641.48 245.663 639.516 245.12 638.011 245.8C637.032 246.241 636.371 247.049 636.359 248.131Z" fill="#F680A4"/>
<path d="M636.303 235.792C636.316 236.501 636.912 237.111 637.657 237.323C638.892 237.672 640.028 236.531 639.399 235.417C638.947 234.62 637.909 234.312 637.132 234.633C636.625 234.843 636.292 235.243 636.303 235.792Z" fill="#F680A4"/>
<path d="M408.817 211.324C408.641 214.371 410.801 216.796 413.688 217.463C418.459 218.564 423.332 213.287 421.2 208.705C419.675 205.427 415.664 204.445 412.477 206.08C410.407 207.143 408.955 208.969 408.817 211.324Z" fill="#F680A4"/>
<path d="M617.172 266.089C617.047 267.957 618.341 269.429 620.088 269.821C622.975 270.467 625.961 267.205 624.696 264.411C623.791 262.412 621.365 261.835 619.423 262.855C618.16 263.519 617.268 264.645 617.172 266.089Z" fill="#F680A4"/>
<path d="M446.419 247.649C446.445 248.581 447.24 249.387 448.229 249.673C449.867 250.147 451.357 248.663 450.511 247.195C449.905 246.144 448.528 245.729 447.503 246.141C446.835 246.409 446.399 246.931 446.419 247.649Z" fill="#F680A4"/>
<path d="M592.46 212.579C592.313 215.835 594.689 218.457 597.829 219.212C603.017 220.46 608.223 214.892 605.844 209.964C604.141 206.437 599.78 205.329 596.351 207.029C594.12 208.133 592.573 210.064 592.46 212.579Z" fill="#FDE6EF"/>
<path d="M453.955 190.347C453.789 193.797 456.292 196.571 459.605 197.36C465.083 198.665 470.599 192.745 468.103 187.529C466.316 183.799 461.713 182.637 458.084 184.451C455.724 185.631 454.084 187.681 453.955 190.347Z" fill="#FDE6EF"/>
<path d="M456.937 133.839C457.063 136.309 459.581 137.971 461.968 139.311C469.995 143.812 474.776 132.733 473.216 128.565C472.067 125.495 463.241 127.092 459.787 129.903C458.427 131.011 456.84 131.929 456.937 133.839Z" fill="#FDE6EF"/>
<path d="M600.293 145.844C603.253 151.228 617.321 152.389 614.497 146.868C613.085 144.105 608.041 144.577 607.26 142.099C606.684 140.275 604.175 137.029 601.3 137.38C597.217 137.879 598.648 142.851 600.293 145.844Z" fill="#FDE6EF"/>
<path d="M526.305 272.373C542.031 273.977 552.151 262.735 553.004 257.031C553.857 251.325 534.869 241.86 530.871 240.747C527.099 239.696 508.671 245.137 505.215 251.179C502.327 256.228 516.257 271.349 526.305 272.373Z" fill="#F680A4"/>
<path d="M409.929 131.511C408.495 142.405 407.123 150.753 405.811 156.556C401.068 177.532 385.168 191.773 384.016 213.529C382.941 233.829 388.655 250.797 397.503 268.952C404.592 283.496 419.461 300.739 442.112 320.681C407.893 313.199 385.019 302.27 373.488 287.895C361.912 273.463 356.644 257.939 354.468 239.641C351.277 212.809 358.959 189.497 373.675 167.044C380.244 157.022 392.328 145.177 409.929 131.511Z" fill="#F391A8"/>
<path d="M476.683 242.197C480.609 246.295 484.263 248.788 489.197 251.004C503.859 257.587 516.787 242.321 532.056 244.699C545.98 246.867 553.564 262.661 568.083 261.16C573.349 260.616 577.499 259.229 582.409 256.792C589.119 253.461 571.2 256.723 565.259 255.54C551.724 252.848 544.771 238.883 530.841 237.717C518.275 236.665 509.544 247.796 496.996 247.165C489.613 246.795 471.239 236.517 476.683 242.197Z" fill="#992953"/>
<path d="M380.835 49.112C382.107 47.3107 383.764 46.312 384.533 46.8853C385.303 47.4573 384.893 49.384 383.621 51.1854C382.349 52.9867 380.692 53.984 379.923 53.412C379.153 52.84 379.563 50.9133 380.835 49.112Z" fill="#992953"/>
<path d="M374.105 44.512C375.061 42.516 376.531 41.2427 377.385 41.6693C378.24 42.0973 378.156 44.064 377.2 46.06C376.244 48.056 374.773 49.3293 373.92 48.9013C373.065 48.4747 373.148 46.508 374.105 44.512Z" fill="#992953"/>
<path d="M318.291 78.436C316.225 77.8374 314.765 76.584 315.032 75.6374C315.299 74.692 317.193 74.4107 319.259 75.0094C321.325 75.608 322.785 76.8614 322.519 77.8067C322.251 78.752 320.357 79.0347 318.291 78.436Z" fill="#992953"/>
<path d="M315.751 85.2267C313.041 84.708 310.989 83.5027 311.173 82.536C311.357 81.5707 313.707 81.208 316.417 81.7267C319.127 82.2467 321.177 83.4507 320.995 84.4174C320.811 85.3827 318.461 85.7454 315.751 85.2267Z" fill="#992953"/>
<path d="M409.269 148.509C418.269 124.457 390.461 116.208 391.465 107.776C394.685 80.7347 392.164 38.152 352.339 44.316C332.744 47.3493 321.368 62.4 320.465 80.168C319.093 107.187 356.212 159.736 396.055 158.877C402.475 158.739 406.913 154.803 409.269 148.509Z" fill="#CA4986" stroke="#992953" stroke-width="5.33333" stroke-miterlimit="3" stroke-linecap="square"/>
<path d="M355.677 103.232C366.989 104.399 383.465 102.104 386.808 96.7174C390.032 91.52 391.117 82.7627 390.007 75.024C388.601 65.2267 384.909 56.6 376.589 50.8654C365.476 43.2054 351.883 44.336 340.511 51.1387C327.373 58.9987 321.437 75.068 324.249 88.3974C325.667 95.116 343.284 101.955 355.677 103.232Z" fill="#F46AA6"/>
<path d="M355.745 58.8026C355.619 62.5333 358.341 65.572 361.905 66.4773C367.795 67.9733 373.619 61.6533 370.865 55.972C368.896 51.9066 363.945 50.58 360.081 52.4866C357.571 53.7253 355.843 55.92 355.745 58.8026Z" fill="#F78FCC"/>
<path d="M368.753 68.9707C368.647 71.108 370.151 72.8213 372.147 73.304C375.447 74.1027 378.783 70.4253 377.288 67.2C376.217 64.892 373.445 64.1813 371.253 65.3107C369.829 66.0453 368.836 67.32 368.753 68.9707Z" fill="#F78FCC"/>
<path d="M361.628 71.076C361.548 72.3013 362.379 73.2667 363.497 73.524C365.345 73.948 367.257 71.8093 366.447 69.9773C365.867 68.6653 364.313 68.2866 363.069 68.956C362.261 69.3906 361.691 70.1293 361.628 71.076Z" fill="#F78FCC"/>
<path d="M327.427 82.8413C327.256 85.92 329.393 88.3733 332.245 89.0506C336.96 90.172 341.764 84.8493 339.652 80.2187C338.14 76.9053 334.177 75.9067 331.033 77.552C328.988 78.6213 327.557 80.464 327.427 82.8413Z" fill="#F78FCC"/>
<path d="M306.227 139.756C305.883 138.001 306.319 136.537 307.2 136.488C308.083 136.439 309.079 137.823 309.424 139.576C309.768 141.331 309.332 142.795 308.449 142.844C307.568 142.895 306.572 141.509 306.227 139.756Z" fill="#992953"/>
<path d="M298.776 140.436C298.095 138.727 298.227 137.192 299.069 137.011C299.913 136.828 301.149 138.068 301.829 139.777C302.511 141.487 302.379 143.023 301.536 143.204C300.693 143.385 299.456 142.145 298.776 140.436Z" fill="#992953"/>
<path d="M284.291 189.948C282.537 190.652 280.753 190.644 280.308 189.931C279.864 189.217 280.927 188.065 282.68 187.361C284.433 186.657 286.217 186.665 286.663 187.379C287.107 188.093 286.045 189.244 284.291 189.948Z" fill="#992953"/>
<path d="M275.549 175.557C273.165 175.433 271.148 174.644 271.045 173.796C270.943 172.949 272.795 172.361 275.179 172.485C277.561 172.609 279.58 173.397 279.681 174.245C279.784 175.093 277.932 175.681 275.549 175.557Z" fill="#992953"/>
<path d="M276.071 158.777C273.84 157.931 272.16 156.563 272.323 155.724C272.484 154.885 274.427 154.892 276.659 155.74C278.889 156.587 280.569 157.955 280.408 158.793C280.245 159.632 278.303 159.624 276.071 158.777Z" fill="#992953"/>
<path d="M322.723 209.107C322.575 211.488 321.767 213.499 320.917 213.592C320.069 213.687 319.5 211.829 319.647 209.447C319.795 207.065 320.603 205.055 321.452 204.961C322.3 204.867 322.869 206.724 322.723 209.107Z" fill="#992953"/>
<path d="M390.207 185.547C380.343 166.252 356.615 175.613 351.74 169.961C336.108 151.839 306.493 127.227 284.313 151.575C273.401 163.553 274.964 179.237 286.86 189.877C307.461 208.303 366.333 224.06 388.264 201.653C391.957 197.879 392.787 190.595 390.207 185.547Z" fill="#CA4986" stroke="#992953" stroke-width="5.33333" stroke-miterlimit="3" stroke-linecap="square"/>
<path d="M326.957 187.897C335.5 182.528 345.148 172.095 343.663 166.76C342.229 161.611 337.051 155.661 331.141 151.261C323.252 145.388 314.525 141.525 304.608 142.297C291.656 143.308 283.165 151.419 280.157 162.035C276.681 174.299 283.869 188.031 295.116 195.228C300.783 198.856 317.6 193.78 326.957 187.897Z" fill="#F46AA6"/>
<path d="M290.631 186.104C292.996 188.44 296.784 188.881 299.725 187.589C304.585 185.455 304.272 178.596 298.729 176.561C294.764 175.107 290.632 176.86 289.34 180.017C288.5 182.071 288.803 184.3 290.631 186.104Z" fill="#F78FCC"/>
<path d="M302.981 174.916C304.315 176.272 306.429 176.536 308.061 175.799C310.757 174.579 310.541 170.615 307.439 169.424C306.329 168.999 305.2 169.036 304.263 169.408C303.324 169.78 302.576 170.485 302.225 171.396C301.769 172.579 301.951 173.868 302.981 174.916Z" fill="#F78FCC"/>
<path d="M325.228 176.867C325.979 177.653 327.16 177.812 328.065 177.391C329.561 176.692 329.416 174.401 327.679 173.705C326.436 173.208 325.164 173.78 324.784 174.831C324.537 175.513 324.647 176.259 325.228 176.867Z" fill="#F78FCC"/>
<path d="M310.213 182.636C312.121 184.597 315.14 184.984 317.463 183.923C321.304 182.167 320.973 176.443 316.541 174.716C313.371 173.481 310.107 174.923 309.115 177.551C308.471 179.259 308.739 181.12 310.213 182.636Z" fill="#F78FCC"/>
<path d="M299.539 238.231C298.312 237.096 297.743 235.852 298.268 235.456C298.793 235.06 300.216 235.66 301.443 236.795C302.669 237.931 303.239 239.175 302.713 239.571C302.188 239.967 300.765 239.367 299.539 238.231Z" fill="#992953"/>
<path d="M295.253 241.771C293.841 240.805 293.04 239.635 293.464 239.157C293.889 238.681 295.38 239.079 296.791 240.044C298.203 241.009 299.004 242.18 298.58 242.657C298.155 243.133 296.664 242.736 295.253 241.771Z" fill="#992953"/>
<path d="M314.672 283.709C313.977 284.939 312.852 285.661 312.163 285.324C311.472 284.987 311.476 283.715 312.171 282.487C312.867 281.259 313.992 280.535 314.681 280.872C315.372 281.209 315.368 282.481 314.672 283.709Z" fill="#992953"/>
<path d="M319.557 286.535C318.849 288.192 317.692 289.305 316.977 289.019C316.263 288.731 316.257 287.152 316.967 285.493C317.675 283.835 318.832 282.723 319.547 283.009C320.261 283.296 320.267 284.876 319.557 286.535Z" fill="#992953"/>
<path d="M378.632 237.235C361.329 227.228 351.823 243.732 345.508 241.612C325.257 234.815 292.491 229.007 292.587 255.783C292.635 268.956 302.869 278.641 316.245 282.609C341.421 290.077 387.461 277.513 386.688 249.747C386.569 245.461 383.16 239.853 378.632 237.235Z" fill="#CA4986" stroke="#992953" stroke-width="5.33333" stroke-miterlimit="3" stroke-linecap="square"/>
<path d="M340.389 264.515C342.68 257.116 342.764 245.589 338.809 242.332C334.992 239.189 328.385 237.004 322.201 236.241C313.947 235.225 306.311 236.009 300.564 240.643C293.059 246.693 292.14 256.081 296.517 264.991C301.728 275.597 315.395 281.217 326.495 281.816C332.088 282.117 338.087 271.953 340.389 264.515Z" fill="#F46AA6"/>
<path d="M330.356 252.555C333.187 253.288 335.819 252.061 336.921 249.92C338.744 246.38 334.596 241.519 329.945 242.304C326.617 242.865 325.033 245.828 326.04 248.653C326.696 250.491 328.169 251.989 330.356 252.555Z" fill="#F78FCC"/>
<path d="M328.231 260.879C329.848 261.32 331.329 260.649 331.928 259.445C332.919 257.456 330.5 254.66 327.867 255.063C325.983 255.349 325.12 257.015 325.728 258.627C326.124 259.673 326.981 260.537 328.231 260.879Z" fill="#F78FCC"/>
<path d="M320.752 254.94C321.677 255.205 322.509 254.839 322.835 254.163C323.373 253.043 321.963 251.436 320.472 251.64C319.404 251.785 318.936 252.721 319.301 253.64C319.54 254.237 320.037 254.735 320.752 254.94Z" fill="#F78FCC"/>
<path d="M410.613 135.424C403.06 128.392 389.128 128.885 385.625 139.313C384.293 143.277 384.769 147.131 386.595 150.891C392.537 163.132 414.923 162.875 415.885 148.023C416.208 143.063 414.223 138.784 410.613 135.424Z" fill="#CA4986"/>
<path d="M384.96 178.149C375.431 175.407 363.463 181.94 364.748 192.455C365.236 196.451 367.257 199.56 370.42 201.997C380.712 209.931 400.164 199.893 394.816 186.684C393.031 182.273 389.513 179.459 384.96 178.149Z" fill="#CA4986"/>
<path d="M368.56 238.436C361.145 243.78 359.717 254.472 368.732 257.799C372.157 259.063 375.728 258.937 379.395 257.772C391.329 253.983 394.111 236.836 380.729 235.18C376.261 234.627 372.103 235.881 368.56 238.436Z" fill="#CA4986"/>
<path d="M300 54.3333C315.709 54.3333 328.444 42.1953 328.444 27.2222C328.444 12.2492 315.709 0.111084 300 0.111084C284.291 0.111084 271.556 12.2492 271.556 27.2222C271.556 42.1953 284.291 54.3333 300 54.3333Z" fill="white" fill-opacity="0.3"/>
<path d="M506.667 559C522.376 559 535.111 546.862 535.111 531.889C535.111 516.916 522.376 504.778 506.667 504.778C490.957 504.778 478.222 516.916 478.222 531.889C478.222 546.862 490.957 559 506.667 559Z" fill="white" fill-opacity="0.3"/>
<path d="M634.444 444.368C655.186 444.368 672 428.342 672 408.573C672 388.804 655.186 372.778 634.444 372.778C613.703 372.778 596.889 388.804 596.889 408.573C596.889 428.342 613.703 444.368 634.444 444.368Z" fill="white" fill-opacity="0.3"/>
<path d="M23.0383 134.333C35.271 134.333 45.1876 124.882 45.1876 113.222C45.1876 101.563 35.271 92.1111 23.0383 92.1111C10.8055 92.1111 0.888916 101.563 0.888916 113.222C0.888916 124.882 10.8055 134.333 23.0383 134.333Z" fill="white" fill-opacity="0.3"/>
<path d="M155.778 529.097C164.369 529.097 171.333 522.459 171.333 514.271C171.333 506.082 164.369 499.444 155.778 499.444C147.187 499.444 140.222 506.082 140.222 514.271C140.222 522.459 147.187 529.097 155.778 529.097Z" fill="white" fill-opacity="0.3"/>
<path d="M500.667 83.6666C507.908 83.6666 513.778 78.294 513.778 71.6666C513.778 65.0392 507.908 59.6666 500.667 59.6666C493.426 59.6666 487.556 65.0392 487.556 71.6666C487.556 78.294 493.426 83.6666 500.667 83.6666Z" fill="white" fill-opacity="0.3"/>
<path d="M244.279 190.239C251.223 190.239 256.852 184.703 256.852 177.874C256.852 171.046 251.223 165.51 244.279 165.51C237.334 165.51 231.705 171.046 231.705 177.874C231.705 184.703 237.334 190.239 244.279 190.239Z" fill="white" fill-opacity="0.3"/>
<path d="M310.188 25.7724C314.709 25.7724 318.375 22.0128 318.375 17.375C318.375 12.7372 314.709 8.97754 310.188 8.97754C305.666 8.97754 302 12.7372 302 17.375C302 22.0128 305.666 25.7724 310.188 25.7724Z" fill="white" fill-opacity="0.3"/>
<path d="M516.854 530.439C521.376 530.439 525.042 526.679 525.042 522.042C525.042 517.404 521.376 513.644 516.854 513.644C512.332 513.644 508.667 517.404 508.667 522.042C508.667 526.679 512.332 530.439 516.854 530.439Z" fill="white" fill-opacity="0.3"/>
<path d="M647.895 406.659C653.865 406.659 658.705 401.695 658.705 395.571C658.705 389.448 653.865 384.484 647.895 384.484C641.925 384.484 637.085 389.448 637.085 395.571C637.085 401.695 641.925 406.659 647.895 406.659Z" fill="white" fill-opacity="0.3"/>
<path d="M30.9712 112.093C34.4923 112.093 37.3467 109.166 37.3467 105.554C37.3467 101.943 34.4923 99.0153 30.9712 99.0153C27.4501 99.0153 24.5957 101.943 24.5957 105.554C24.5957 109.166 27.4501 112.093 30.9712 112.093Z" fill="white" fill-opacity="0.3"/>
<path d="M161.349 513.478C163.822 513.478 165.827 511.422 165.827 508.886C165.827 506.349 163.822 504.293 161.349 504.293C158.876 504.293 156.872 506.349 156.872 508.886C156.872 511.422 158.876 513.478 161.349 513.478Z" fill="white" fill-opacity="0.3"/>
<path d="M504.696 71.0249C506.78 71.0249 508.47 69.3608 508.47 67.308C508.47 65.2552 506.78 63.5911 504.696 63.5911C502.612 63.5911 500.922 65.2552 500.922 67.308C500.922 69.3608 502.612 71.0249 504.696 71.0249Z" fill="white" fill-opacity="0.3"/>
<path d="M271.751 178.619C273.75 178.619 275.37 176.905 275.37 174.79C275.37 172.674 273.75 170.96 271.751 170.96C269.752 170.96 268.132 172.674 268.132 174.79C268.132 176.905 269.752 178.619 271.751 178.619Z" fill="white" fill-opacity="0.3"/>
<path d="M249.72 177.588C251.718 177.588 253.339 175.873 253.339 173.758C253.339 171.643 251.718 169.929 249.72 169.929C247.721 169.929 246.1 171.643 246.1 173.758C246.1 175.873 247.721 177.588 249.72 177.588Z" fill="white" fill-opacity="0.3"/>
<path d="M524.667 544.439C526.968 544.439 528.833 542.526 528.833 540.166C528.833 537.805 526.968 535.892 524.667 535.892C522.365 535.892 520.5 537.805 520.5 540.166C520.5 542.526 522.365 544.439 524.667 544.439Z" fill="white" fill-opacity="0.3"/>
<path d="M658.21 425.143C661.248 425.143 663.711 422.617 663.711 419.501C663.711 416.385 661.248 413.858 658.21 413.858C655.172 413.858 652.709 416.385 652.709 419.501C652.709 422.617 655.172 425.143 658.21 425.143Z" fill="white" fill-opacity="0.3"/>
<path d="M21.7213 103.662C23.5133 103.662 24.9659 102.172 24.9659 100.334C24.9659 98.496 23.5133 97.0061 21.7213 97.0061C19.9294 97.0061 18.4768 98.496 18.4768 100.334C18.4768 102.172 19.9294 103.662 21.7213 103.662Z" fill="white" fill-opacity="0.3"/>
<path d="M165.622 521.134C166.88 521.134 167.9 520.088 167.9 518.797C167.9 517.506 166.88 516.46 165.622 516.46C164.363 516.46 163.343 517.506 163.343 518.797C163.343 520.088 164.363 521.134 165.622 521.134Z" fill="white" fill-opacity="0.3"/>
<path d="M275.204 185.004C276.222 185.004 277.046 184.132 277.046 183.055C277.046 181.979 276.222 181.106 275.204 181.106C274.187 181.106 273.362 181.979 273.362 183.055C273.362 184.132 274.187 185.004 275.204 185.004Z" fill="white" fill-opacity="0.3"/>
<path d="M237.048 185.098C238.065 185.098 238.89 184.225 238.89 183.149C238.89 182.073 238.065 181.2 237.048 181.2C236.031 181.2 235.206 182.073 235.206 183.149C235.206 184.225 236.031 185.098 237.048 185.098Z" fill="white" fill-opacity="0.3"/>
</g>
<defs>
<clipPath id="clip0_201_2">
<rect width="752" height="559" fill="white"/>
</clipPath>
</defs>
</svg>
