<?xml version="1.0" encoding="UTF-8" standalone="no"?><!-- Generator: Gravit.io --><svg xmlns="http://www.w3.org/2000/svg" xmlns:xlink="http://www.w3.org/1999/xlink" style="isolation:isolate" viewBox="0 0 761 574.8" width="761pt" height="574.8pt"><defs><clipPath id="_clipPath_uukeANHyF550Sq2n5tuOXml6r3AaMmLk"><rect width="761" height="574.8"/></clipPath></defs><g clip-path="url(#_clipPath_uukeANHyF550Sq2n5tuOXml6r3AaMmLk)"><rect width="761" height="574.8" style="fill:rgb(55,86,89)" fill-opacity="0"/><g><path d=" M 546.48 339.612 C 547.59 352.173 542.822 362.613 537.855 374.323 C 524.637 405.485 497.587 422.011 468.922 440.017 C 422.482 469.188 374.224 482.295 320.379 475.932 C 287.361 472.03 260.494 462.147 232.926 444.916 C 174.759 408.559 127.855 355.879 137.238 285.337 C 145.288 224.82 185.202 176.642 244.067 153.811 C 260.291 147.518 274.688 141.017 292.028 142.71 C 355.406 148.895 211.267 204.213 227.415 265.039 C 235.242 294.522 249.459 307.651 272.01 315.773 C 324.516 334.683 377.948 269.528 448.425 267.052 C 465.111 266.466 479.801 280.701 495.012 290.943 C 515.875 304.992 544.105 312.722 546.48 339.612 Z " fill="rgb(243,145,168)" vector-effect="non-scaling-stroke" stroke-width="6" stroke="rgb(153,41,83)" stroke-linejoin="miter" stroke-linecap="square" stroke-miterlimit="3"/><path d=" M 504.638 322.266 C 516.075 355.932 492.18 383.033 468.665 405.096 C 451.461 421.238 430.525 431.758 408.379 438.916 C 376.949 449.076 347.411 456.77 313.458 451.719 C 281.352 446.942 255.11 435.07 228.987 415.009 C 185.826 381.864 147.498 339.179 151.864 282.267 C 155.424 235.842 181.938 200.946 220.561 177.888 C 228.161 173.351 234.539 169.006 243.222 166.97 C 282.551 157.745 199.346 224.416 208.377 260.152 C 218.383 299.743 250.163 323.452 287.618 331.924 C 335.047 342.653 375.101 291.187 427.013 280.193 C 453.217 274.644 472.9 279.625 489.755 297.294 C 496.848 304.729 501.327 312.521 504.638 322.266 Z " fill="rgb(250,193,210)"/><path d=" M 465.309 287.25 C 460.445 286.748 457.781 291.913 458.98 295.99 C 459.923 299.199 462.958 301.748 466.58 301.177 C 471.028 300.475 472.373 295.616 470.92 291.914 C 469.976 289.508 468.103 287.538 465.309 287.25 Z " fill="rgb(246,128,164)"/><path d=" M 171.28 246.482 C 166.358 246.563 162.852 252.572 163.476 256.887 C 163.968 260.283 166.706 262.684 170.513 261.586 C 175.187 260.239 177.292 254.737 176.351 250.867 C 175.739 248.351 174.108 246.435 171.28 246.482 Z " fill="rgb(246,128,164)"/><path d=" M 169.48 270.942 C 161.426 270.888 155.947 280.472 157.155 287.473 C 158.106 292.982 162.692 296.966 168.876 295.336 C 176.468 293.333 179.678 284.516 177.97 278.223 C 176.86 274.132 174.107 270.973 169.48 270.942 Z " fill="rgb(246,128,164)"/><path d=" M 180.532 261.479 C 177.279 261.481 175.032 265.385 175.495 268.221 C 175.86 270.452 177.699 272.055 180.203 271.374 C 183.277 270.539 184.604 266.953 183.936 264.406 C 183.502 262.75 182.401 261.477 180.532 261.479 Z " fill="rgb(246,128,164)"/><path d=" M 274.652 155.939 C 270.377 152.538 261.653 155.277 258.067 159.46 C 255.245 162.752 255.288 166.765 259.581 168.498 C 264.851 170.626 271.898 167.339 274.789 163.318 C 276.669 160.704 277.107 157.892 274.652 155.939 Z " fill="rgb(253,230,239)"/><path d=" M 285.569 155.762 C 283.807 153.916 280.345 155.163 278.964 157.258 C 277.877 158.907 277.95 160.986 279.696 161.968 C 281.84 163.173 284.622 161.61 285.726 159.585 C 286.444 158.269 286.581 156.821 285.569 155.762 Z " fill="rgb(253,230,239)"/><path d=" M 282.91 152.687 C 283.821 151.73 283.018 150.617 281.849 150.425 C 280.929 150.274 279.826 150.629 279.374 151.445 C 278.82 152.446 279.763 153.252 280.884 153.35 C 281.612 153.414 282.388 153.237 282.91 152.687 Z " fill="rgb(253,230,239)"/><path d=" M 345.643 430.742 C 344.911 430.689 344.479 431.496 344.637 432.117 C 344.761 432.606 345.205 432.983 345.756 432.877 C 346.432 432.747 346.663 431.993 346.465 431.431 C 346.336 431.066 346.064 430.773 345.643 430.742 Z " fill="rgb(246,128,164)"/><path d=" M 326.939 430.597 C 324.543 431.9 325.609 433.675 327.928 434.125 C 329.753 434.48 332.225 434.103 333.597 432.948 C 335.281 431.531 333.758 430.195 331.49 429.891 C 330.015 429.693 328.316 429.849 326.939 430.597 Z " fill="rgb(246,128,164)"/><path d=" M 302.813 427.619 C 301.121 427.471 300.157 429.303 300.548 430.73 C 300.855 431.853 301.895 432.732 303.162 432.509 C 304.717 432.236 305.219 430.519 304.737 429.226 C 304.424 428.385 303.785 427.704 302.813 427.619 Z " fill="rgb(246,128,164)"/><path d=" M 340.332 432.805 C 338.64 432.657 337.677 434.49 338.067 435.917 C 338.374 437.04 339.415 437.918 340.681 437.696 C 342.236 437.423 342.738 435.706 342.257 434.413 C 341.944 433.572 341.304 432.89 340.332 432.805 Z " fill="rgb(246,128,164)"/><path d=" M 302.959 437.478 C 299.517 442.939 304.67 447.89 310.633 447.969 C 315.326 448.031 320.366 445.429 321.706 441.022 C 323.351 435.61 317.838 432.299 312.215 432.65 C 308.559 432.878 304.935 434.342 302.959 437.478 Z " fill="rgb(246,128,164)"/><path d=" M 328.159 437.336 C 324.248 436.937 322.1 441.096 323.06 444.376 C 323.815 446.958 326.253 449.007 329.168 448.543 C 332.745 447.974 333.832 444.063 332.668 441.085 C 331.911 439.149 330.406 437.566 328.159 437.336 Z " fill="rgb(246,128,164)"/><path d=" M 454.608 294.917 C 453.427 294.79 452.787 296.038 453.082 297.026 C 453.315 297.804 454.054 298.425 454.933 298.29 C 456.011 298.125 456.332 296.95 455.975 296.052 C 455.743 295.468 455.286 294.99 454.608 294.917 Z " fill="rgb(246,128,164)"/><path d=" M 451.799 283.917 C 449.403 283.665 448.097 286.204 448.692 288.211 C 449.161 289.791 450.659 291.049 452.442 290.771 C 454.632 290.431 455.289 288.041 454.569 286.218 C 454.101 285.033 453.176 284.062 451.799 283.917 Z " fill="rgb(246,128,164)"/></g><g><path d=" M 519.761 381.757 C 520.408 389.607 517.465 396.417 511.976 401.394 C 505.65 407.129 497.763 405.923 489.799 405.194 C 480.456 403.136 474.221 399.137 465.698 395.45 C 462.188 393.932 451.886 388.929 455.394 392.155 C 457.373 393.976 460.045 395.801 459.779 398.934 C 459.601 401.029 458.878 402.597 456.931 403.759 C 453.486 405.814 451.268 405.782 448.191 405.394 C 444.851 404.974 441.702 403.463 439.407 400.358 C 436.555 396.499 442.438 383.082 439.529 388.887 C 438.043 391.852 437.533 397.617 439.001 400.893 C 440.419 404.058 431.54 399.967 429.753 396.246 C 428.538 393.718 429.131 391.167 429.518 388.45 C 429.922 385.614 431.151 383.508 432.065 380.843 C 433.417 376.901 429.043 389.537 428.336 392.113 C 427.428 395.423 424.74 387.062 424.218 383.72 Q 423.374 378.317 428.984 369.875 C 433.439 366.045 432.11 366.968 437.328 365.468 C 441.338 364.315 429.819 367.144 428.098 370.195 C 427.087 371.987 428.222 365.771 429.415 364.139 C 431.859 360.798 433.29 359.723 436.065 358.856 C 438.532 357.975 443.192 359.83 447.068 359.756 C 453.172 359.64 457.998 356.636 464.113 356.69 C 470.233 356.744 475.225 358.741 481.211 360.063 C 487.622 361.479 493.018 362.739 499.373 364.536 C 506.852 366.652 516.077 368.03 518.876 376.94 C 519.391 378.581 519.619 380.037 519.761 381.757 Z " fill="rgb(250,193,210)" vector-effect="non-scaling-stroke" stroke-width="4" stroke="rgb(153,41,83)" stroke-linejoin="miter" stroke-linecap="square" stroke-miterlimit="3"/><path d=" M 522.63 369.925 Q 511.482 391.422 499.729 396.384 Q 485.166 402.532 457.303 389.458 C 487.3 407.01 508.165 409.898 519.903 398.082 Q 526.088 391.857 522.63 369.925 Z " fill="rgb(243,145,168)"/><path d=" M 500.801 375.629 C 501.006 379.152 505.733 381.586 509.036 381.085 C 511.635 380.69 513.403 378.7 512.448 375.988 C 511.276 372.659 506.98 371.221 504.029 371.944 C 502.11 372.414 500.683 373.606 500.801 375.629 Z " fill="rgb(246,128,164)"/><path d=" M 492.149 371.862 C 492.043 373.36 493.782 374.15 495.114 373.759 C 496.163 373.451 496.967 372.504 496.734 371.394 C 496.447 370.031 494.825 369.645 493.62 370.112 C 492.837 370.415 492.21 371.002 492.149 371.862 Z " fill="rgb(246,128,164)"/><path d=" M 443.731 371.408 C 443.626 372.906 445.365 373.696 446.697 373.305 C 447.745 372.997 448.55 372.05 448.316 370.94 C 448.029 369.577 446.408 369.191 445.203 369.658 C 444.419 369.961 443.792 370.548 443.731 371.408 Z " fill="rgb(246,128,164)"/><path d=" M 496.567 376.073 C 496.446 376.719 497.091 376.965 497.638 376.726 C 498.069 376.539 498.437 376.091 498.404 375.628 C 498.363 375.059 497.742 374.98 497.241 375.245 C 496.916 375.416 496.637 375.701 496.567 376.073 Z " fill="rgb(246,128,164)"/><path d=" M 498.731 370.768 C 499.452 371.927 501.134 371.591 501.893 370.598 C 502.489 369.817 502.569 368.694 501.808 367.999 C 500.874 367.146 499.491 367.719 498.866 368.7 C 498.459 369.338 498.317 370.102 498.731 370.768 Z " fill="rgb(246,128,164)"/></g><g><path d=" M 382.113 292.425 C 374.289 291.836 367.608 294.817 362.829 300.325 C 357.322 306.67 358.765 314.524 359.735 322.456 C 362.07 331.755 366.239 337.941 370.168 346.41 C 371.786 349.899 377.079 360.131 373.762 356.658 C 371.891 354.698 369.993 352.047 366.886 352.335 C 364.809 352.527 363.272 353.259 362.177 355.208 C 360.241 358.656 360.34 360.867 360.821 363.931 C 361.342 367.257 362.942 370.385 366.1 372.651 C 370.025 375.466 383.184 369.508 377.502 372.448 C 374.599 373.951 368.883 374.499 365.581 373.06 C 362.389 371.668 366.731 380.489 370.486 382.245 C 373.037 383.438 375.556 382.828 378.245 382.423 C 381.053 382.001 383.109 380.761 385.73 379.831 C 389.609 378.456 377.179 382.905 374.64 383.628 C 371.376 384.557 379.773 387.177 383.112 387.673 Q 388.511 388.476 396.731 382.825 C 400.402 378.357 399.524 379.689 400.855 374.476 C 401.878 370.471 399.42 381.973 396.441 383.71 C 394.69 384.73 400.836 383.555 402.421 382.355 C 405.668 379.894 406.692 378.461 407.469 375.688 C 408.268 373.223 406.28 368.592 406.234 364.727 C 406.161 358.643 408.998 353.811 408.756 347.716 C 408.513 341.616 406.373 336.654 404.874 330.697 C 403.269 324.317 401.85 318.948 399.866 312.625 C 397.532 305.185 395.876 296.001 386.931 293.274 C 385.283 292.772 383.828 292.555 382.113 292.425 Z " fill="rgb(250,193,210)" vector-effect="non-scaling-stroke" stroke-width="4" stroke="rgb(153,41,83)" stroke-linejoin="miter" stroke-linecap="square" stroke-miterlimit="3"/><path d=" M 386.586 288.198 Q 370.89 301.326 367.604 311.86 Q 362.965 326.732 376.386 354.736 C 355.641 326.291 350.937 307.079 362.266 297.056 C 368.172 291.832 375.242 287.899 386.586 288.198 Z " fill="rgb(243,145,168)"/><path d=" M 385.312 309.447 C 384.026 310.668 381.721 309.691 380.875 308.195 C 380.209 307.018 380.353 305.58 381.589 304.957 C 383.106 304.192 384.932 305.366 385.593 306.804 C 386.023 307.739 386.051 308.746 385.312 309.447 Z " fill="rgb(246,128,164)"/><path d=" M 368.375 361.832 C 366.889 361.948 366.05 360.22 366.398 358.89 C 366.671 357.842 367.588 357.034 368.699 357.259 C 370.063 357.535 370.497 359.149 370.07 360.353 C 369.792 361.136 369.229 361.765 368.375 361.832 Z " fill="rgb(246,128,164)"/><path d=" M 389.684 304.949 C 388.198 305.065 387.359 303.337 387.707 302.007 C 387.98 300.96 388.897 300.151 390.008 300.376 C 391.372 300.652 391.806 302.266 391.379 303.47 C 391.101 304.253 390.537 304.883 389.684 304.949 Z " fill="rgb(246,128,164)"/><path d=" M 383.134 298.955 C 382.494 299.08 382.23 298.439 382.45 297.892 C 382.624 297.461 383.058 297.091 383.519 297.121 C 384.086 297.158 384.183 297.775 383.936 298.277 C 383.775 298.603 383.501 298.883 383.134 298.955 Z " fill="rgb(246,128,164)"/><path d=" M 378.006 302.743 C 376.831 302.033 377.114 300.353 378.077 299.59 C 378.835 298.99 379.949 298.903 380.664 299.657 C 381.541 300.582 381.014 301.964 380.058 302.594 C 379.436 303.004 378.681 303.151 378.006 302.743 Z " fill="rgb(246,128,164)"/></g><g><path d=" M 289.891 322.195 C 287.585 328.75 283.777 333.84 277.95 337.873 C 270.937 342.726 263.279 344.598 255.131 343.101 C 246.141 341.45 241.741 335.786 235.591 328.189 C 228.501 319.432 224.729 310.049 220.067 299.574 C 217.021 292.732 215.537 286.464 212.396 279.666 C 208.124 270.418 184.55 256.981 197.99 254.594 C 202.879 253.726 207.221 254.107 210.932 257.961 C 215.203 262.395 204.139 246.77 209.977 242.468 C 215.242 238.589 222.939 245.63 224.828 248.82 C 227.204 252.833 222.74 235.402 228.877 231.836 C 239.073 225.912 237.817 243.207 243.067 249.026 C 246.931 253.309 250.387 256.762 254.454 260.856 C 262.873 269.331 269.934 275.091 279.196 284.194 C 285.931 290.814 290.48 298.355 291.336 308.072 C 291.772 313.02 291.584 317.381 289.891 322.195 Z " fill="rgb(250,193,210)" vector-effect="non-scaling-stroke" stroke-width="4" stroke="rgb(153,41,83)" stroke-linejoin="miter" stroke-linecap="square" stroke-miterlimit="3"/><path d=" M 262.858 321.77 C 266.175 324.09 266.856 328.849 264.377 332.392 C 261.899 335.935 257.195 336.927 253.878 334.607 C 250.562 332.288 249.881 327.528 252.359 323.985 C 254.837 320.443 259.542 319.45 262.858 321.77 Z " fill="rgb(246,128,164)"/><path d=" M 262.858 321.77 C 266.175 324.09 266.856 328.849 264.377 332.392 C 261.899 335.935 257.195 336.927 253.878 334.607 C 250.562 332.288 249.881 327.528 252.359 323.985 C 254.837 320.443 259.542 319.45 262.858 321.77 Z " fill="rgb(246,128,164)"/><path d=" M 253.898 311.027 C 256.084 312.556 256.574 315.633 254.992 317.895 C 253.411 320.156 250.352 320.75 248.166 319.221 C 245.98 317.692 245.49 314.615 247.071 312.354 C 248.653 310.093 251.712 309.498 253.898 311.027 Z " fill="rgb(246,128,164)"/><path d=" M 265.319 312.906 C 266.76 313.914 267.11 315.904 266.1 317.347 C 265.09 318.79 263.101 319.144 261.66 318.136 C 260.22 317.128 259.87 315.138 260.879 313.695 C 261.889 312.252 263.878 311.898 265.319 312.906 Z " fill="rgb(246,128,164)"/><path d=" M 287.733 338.457 C 281.129 353.39 261.287 359.109 243.45 351.221 C 225.614 343.332 216.495 324.805 223.099 309.873 C 229.703 294.94 249.545 289.221 267.381 297.11 C 285.217 304.998 294.337 323.525 287.733 338.457 Z " fill="rgb(250,193,210)"/></g><g><path d=" M 247.925 388.159 C 249.724 394.87 249.457 401.222 246.925 407.84 C 243.879 415.806 238.616 421.676 231.046 425.043 C 222.695 428.756 215.865 426.568 206.499 423.772 C 195.703 420.549 187.29 414.935 177.527 408.924 C 171.149 404.997 166.385 400.663 159.953 396.827 C 151.205 391.608 124.162 393.832 133.906 384.272 C 137.449 380.795 141.248 378.657 146.487 379.741 C 152.516 380.989 134.561 374.342 136.949 367.495 C 139.103 361.32 149.432 362.784 152.792 364.35 C 157.02 366.32 143.492 354.455 146.542 348.047 C 151.611 337.4 160.342 352.382 167.961 354.219 C 173.568 355.571 178.371 356.469 184.039 357.551 C 195.773 359.79 204.854 360.556 217.638 362.838 C 226.934 364.497 234.947 368.151 241.142 375.687 C 244.296 379.524 246.604 383.23 247.925 388.159 Z " fill="rgb(250,193,210)" vector-effect="non-scaling-stroke" stroke-width="4" stroke="rgb(153,41,83)" stroke-linejoin="miter" stroke-linecap="square" stroke-miterlimit="3"/><path d=" M 195.905 364.784 C 198.68 365.442 200.432 368.084 199.817 370.679 C 199.201 373.275 196.449 374.848 193.674 374.19 C 190.899 373.532 189.147 370.89 189.762 368.295 C 190.378 365.699 193.13 364.126 195.905 364.784 Z " fill="rgb(246,128,164)"/><path d=" M 183.173 368.273 C 184.829 368.666 185.837 370.402 185.423 372.147 C 185.009 373.892 183.328 374.99 181.673 374.598 C 180.017 374.205 179.009 372.469 179.423 370.724 C 179.837 368.978 181.517 367.88 183.173 368.273 Z " fill="rgb(246,128,164)"/><path d=" M 187.558 374.718 C 188.546 374.952 189.122 376.095 188.844 377.269 C 188.565 378.442 187.537 379.205 186.549 378.97 C 185.561 378.736 184.985 377.593 185.263 376.419 C 185.541 375.246 186.57 374.483 187.558 374.718 Z " fill="rgb(246,128,164)"/><path d=" M 195.948 375.888 C 196.538 376.028 196.864 376.782 196.677 377.572 C 196.49 378.361 195.859 378.888 195.27 378.748 C 194.68 378.608 194.353 377.854 194.54 377.065 C 194.728 376.276 195.358 375.748 195.948 375.888 Z " fill="rgb(246,128,164)"/><path d=" M 211.598 353.821 C 223.653 347.292 240.426 354.892 249.032 370.783 C 257.637 386.673 254.836 404.874 242.781 411.402 C 230.726 417.931 213.952 410.33 205.347 394.44 C 196.742 378.55 199.542 360.349 211.598 353.821 Z " fill="rgb(250,193,210)"/></g><g><g><g><path d=" M 634.418 170.046 C 634.022 168.67 633.233 167.716 632.658 167.915 C 632.083 168.115 631.938 169.394 632.335 170.769 C 632.731 172.144 633.52 173.099 634.095 172.899 C 634.67 172.7 634.815 171.421 634.418 170.046 Z " fill="rgb(153,41,83)"/><path d=" M 639.367 168.553 C 639.199 167.121 638.578 166.033 637.981 166.125 C 637.384 166.217 637.037 167.455 637.206 168.887 C 637.374 170.319 637.996 171.407 638.592 171.315 C 639.189 171.223 639.536 169.985 639.367 168.553 Z " fill="rgb(153,41,83)"/><path d=" M 665.869 200.9 C 667.224 200.947 668.35 200.464 668.381 199.823 C 668.412 199.182 667.337 198.624 665.982 198.578 C 664.627 198.531 663.502 199.014 663.47 199.655 C 663.439 200.296 664.514 200.854 665.869 200.9 Z " fill="rgb(153,41,83)"/><path d=" M 666.016 205.629 C 667.74 205.855 669.209 205.522 669.294 204.885 C 669.379 204.249 668.049 203.548 666.325 203.322 C 664.601 203.096 663.132 203.429 663.047 204.065 C 662.962 204.702 664.293 205.402 666.016 205.629 Z " fill="rgb(153,41,83)"/><path d=" M 597.37 225.982 C 596.846 209.233 615.126 209.74 616.228 204.304 C 619.761 186.87 629.861 160.952 652.412 172.835 C 663.507 178.682 665.563 189.986 664.221 201.535 C 661.477 225.144 626.513 241.445 604.24 237.245 C 600.268 236.496 597.507 230.365 597.37 225.982 Z " fill="rgb(202,73,134)" vector-effect="non-scaling-stroke" stroke-width="4" stroke="rgb(153,41,83)" stroke-linejoin="miter" stroke-linecap="square" stroke-miterlimit="3"/><path d=" M 639.281 208.623 C 632.319 207.069 622.978 202.353 622.069 198.377 C 621.191 194.54 622.299 189.247 624.373 184.826 C 627.14 178.924 631.092 174.179 637.329 172.285 C 645.474 169.812 653.333 173.236 658.735 179.694 C 664.976 187.155 665.288 198.209 660.946 205.826 C 658.757 209.665 646.909 210.327 639.281 208.623 Z " fill="rgb(244,106,166)"/><path d=" M 647.453 181.137 C 646.776 183.478 644.536 184.812 642.224 184.653 C 638.403 184.391 636.199 179.289 638.99 176.321 C 640.987 174.196 644.213 174.375 646.137 176.339 C 647.387 177.617 647.976 179.328 647.453 181.137 Z " fill="rgb(247,143,204)"/><path d=" M 637.629 184.816 C 637.261 186.164 636.017 186.923 634.727 186.819 C 632.594 186.647 631.343 183.689 632.887 181.99 C 633.992 180.774 635.792 180.894 636.874 182.038 C 637.577 182.783 637.913 183.774 637.629 184.816 Z " fill="rgb(247,143,204)"/><path d=" M 641.461 187.564 C 641.262 188.34 640.571 188.772 639.851 188.705 C 638.66 188.594 637.95 186.88 638.804 185.907 C 639.415 185.21 640.42 185.289 641.028 185.956 C 641.423 186.389 641.615 186.964 641.461 187.564 Z " fill="rgb(247,143,204)"/><path d=" M 659.555 201.668 C 659.035 203.613 657.263 204.703 655.422 204.547 C 652.379 204.289 650.583 200.014 652.779 197.567 C 654.352 195.816 656.92 195.998 658.467 197.655 C 659.473 198.733 659.956 200.166 659.555 201.668 Z " fill="rgb(247,143,204)"/></g><g><path d=" M 660.984 240.455 C 661.569 239.276 661.625 238.134 661.11 237.906 C 660.594 237.677 659.701 238.449 659.116 239.627 C 658.532 240.806 658.475 241.948 658.991 242.176 C 659.506 242.405 660.399 241.633 660.984 240.455 Z " fill="rgb(153,41,83)"/><path d=" M 665.28 242.572 C 666.056 241.499 666.309 240.373 665.846 240.059 C 665.382 239.744 664.377 240.36 663.601 241.433 C 662.826 242.506 662.573 243.632 663.036 243.947 C 663.5 244.261 664.505 243.645 665.28 242.572 Z " fill="rgb(153,41,83)"/><path d=" M 663.215 281.135 C 664.109 282.022 665.175 282.407 665.594 281.994 C 666.014 281.582 665.629 280.526 664.736 279.639 C 663.842 278.752 662.776 278.367 662.357 278.78 C 661.937 279.193 662.322 280.248 663.215 281.135 Z " fill="rgb(153,41,83)"/><path d=" M 660.377 284.419 C 661.41 285.66 662.616 286.363 663.07 285.987 C 663.523 285.611 663.053 284.299 662.02 283.057 C 660.987 281.816 659.781 281.113 659.327 281.489 C 658.874 281.865 659.344 283.178 660.377 284.419 Z " fill="rgb(153,41,83)"/><path d=" M 601.005 254.809 C 611.058 243.175 623.184 255.06 627.313 252.087 C 640.553 242.553 663.534 231.44 671.497 253.699 C 675.415 264.65 669.79 273.576 661.699 280.523 C 645.159 294.722 613.313 285.284 598.682 266.747 C 596.357 263.801 598.375 257.852 601.005 254.809 Z " fill="rgb(202,73,134)" vector-effect="non-scaling-stroke" stroke-width="4" stroke="rgb(153,41,83)" stroke-linejoin="miter" stroke-linecap="square" stroke-miterlimit="3"/><path d=" M 638.341 270.491 C 634.493 264.9 631.084 255.517 633.1 252.085 C 635.046 248.773 639.356 245.696 643.762 243.864 C 649.644 241.418 655.584 240.562 661.226 243.217 C 668.594 246.684 671.824 254.191 671.305 262.289 C 670.705 271.645 663.546 279.76 655.414 282.422 C 651.315 283.763 642.558 276.617 638.341 270.491 Z " fill="rgb(244,106,166)"/><path d=" M 662.963 256.17 C 661.048 257.322 658.693 256.808 657.219 255.241 C 654.781 252.651 656.451 247.817 660.196 247.576 C 662.876 247.403 664.96 249.561 665.049 252.101 C 665.106 253.753 664.443 255.28 662.963 256.17 Z " fill="rgb(247,143,204)"/><path d=" M 653.99 252.449 C 652.902 253.127 651.584 252.853 650.77 251.968 C 649.426 250.506 650.412 247.72 652.519 247.548 C 654.027 247.425 655.178 248.643 655.202 250.098 C 655.218 251.044 654.831 251.926 653.99 252.449 Z " fill="rgb(247,143,204)"/><path d=" M 654.891 256.723 C 654.272 257.121 653.534 256.977 653.085 256.477 C 652.344 255.65 652.926 254.045 654.112 253.928 C 654.961 253.843 655.595 254.531 655.595 255.365 C 655.595 255.907 655.368 256.416 654.891 256.723 Z " fill="rgb(247,143,204)"/><path d=" M 658.44 277.667 C 656.878 278.651 654.994 278.268 653.838 277 C 651.928 274.904 653.362 270.884 656.378 270.621 C 658.536 270.432 660.171 272.177 660.194 274.272 C 660.209 275.634 659.647 276.906 658.44 277.667 Z " fill="rgb(247,143,204)"/></g><g><path d=" M 643.685 312.313 C 644.662 311.77 645.271 311.006 645.043 310.607 C 644.816 310.209 643.838 310.327 642.861 310.87 C 641.884 311.413 641.275 312.178 641.503 312.576 C 641.73 312.974 642.708 312.857 643.685 312.313 Z " fill="rgb(153,41,83)"/><path d=" M 645.476 315.782 C 646.527 315.4 647.258 314.739 647.108 314.305 C 646.957 313.872 645.983 313.829 644.932 314.21 C 643.882 314.592 643.151 315.253 643.301 315.687 C 643.451 316.12 644.426 316.163 645.476 315.782 Z " fill="rgb(153,41,83)"/><path d=" M 624.83 341.511 C 624.979 342.541 625.493 343.305 625.978 343.215 C 626.462 343.124 626.735 342.215 626.586 341.184 C 626.437 340.154 625.922 339.39 625.438 339.481 C 624.953 339.571 624.681 340.481 624.83 341.511 Z " fill="rgb(153,41,83)"/><path d=" M 621.306 342.461 C 621.37 343.802 621.819 344.85 622.308 344.802 C 622.796 344.753 623.141 343.625 623.076 342.284 C 623.012 340.944 622.563 339.895 622.075 339.944 C 621.586 339.993 621.242 341.121 621.306 342.461 Z " fill="rgb(153,41,83)"/><path d=" M 596.734 294.291 C 609.216 290.924 611.317 304.803 615.541 304.67 C 629.087 304.242 649.883 307.262 644.037 326.381 C 641.161 335.788 632.968 339.343 624.13 340.38 C 606.064 342.499 592.31 326.445 589.225 301.472 C 588.844 298.386 593.468 295.172 596.734 294.291 Z " fill="rgb(202,73,134)" vector-effect="non-scaling-stroke" stroke-width="4" stroke="rgb(153,41,83)" stroke-linejoin="miter" stroke-linecap="square" stroke-miterlimit="3"/><path d=" M 613.648 322.283 C 613.897 316.534 616.378 308.328 619.494 306.869 C 622.501 305.461 626.988 305.337 630.905 306.132 C 636.134 307.194 640.591 309.402 643.055 313.935 C 646.272 319.855 644.627 326.658 640.143 332.103 C 634.963 338.395 625.976 340.714 619.114 338.739 C 615.656 337.744 613.376 328.581 613.648 322.283 Z " fill="rgb(244,106,166)"/><path d=" M 637.142 324.113 C 635.296 324.018 633.991 322.565 633.797 320.793 C 633.475 317.864 636.999 315.296 639.603 316.875 C 641.467 318.005 641.771 320.47 640.559 322.269 C 639.772 323.439 638.569 324.187 637.142 324.113 Z " fill="rgb(247,143,204)"/><path d=" M 633.052 317.355 C 631.991 317.317 631.254 316.513 631.157 315.522 C 630.996 313.883 633.043 312.414 634.526 313.277 C 635.587 313.895 635.742 315.274 635.031 316.293 C 634.568 316.955 633.871 317.385 633.052 317.355 Z " fill="rgb(247,143,204)"/><path d=" M 631.512 320.734 C 630.903 320.721 630.486 320.277 630.438 319.721 C 630.36 318.804 631.548 317.964 632.393 318.435 C 632.998 318.773 633.075 319.545 632.658 320.122 C 632.387 320.497 631.983 320.743 631.512 320.734 Z " fill="rgb(247,143,204)"/><path d=" M 623.397 336.884 C 621.869 336.837 620.811 335.694 620.679 334.278 C 620.459 331.936 623.419 329.823 625.551 331.046 C 627.077 331.921 627.289 333.891 626.257 335.352 C 625.586 336.302 624.577 336.921 623.397 336.884 Z " fill="rgb(247,143,204)"/></g></g><g><path d=" M 497.034 339.005 C 444.854 322.746 367.68 306.62 373.495 247.505 C 379.666 184.768 446.235 140.093 504.974 151.636 C 573.345 165.072 631.001 230.968 605.026 295.55 C 587.815 338.345 539.861 352.35 497.034 339.005 Z " fill="rgb(250,193,210)" vector-effect="non-scaling-stroke" stroke-width="6" stroke="rgb(153,41,83)" stroke-linejoin="miter" stroke-linecap="square" stroke-miterlimit="3"/><path d=" M 450.201 167.637 C 450.152 173.954 457.849 174.851 463.168 173.885 C 467.296 173.135 471.521 171.174 472.178 166.782 C 473.28 159.432 463.755 157.883 457.852 159.745 C 454.013 160.955 450.234 163.374 450.201 167.637 Z " fill="rgb(253,230,239)"/><path d=" M 429.582 236.459 C 424.422 242.64 430.698 250.64 436.321 254.606 C 440.685 257.684 446.117 259.658 450.272 255.938 C 457.226 249.713 449.814 239.38 442.934 235.756 C 438.462 233.4 433.064 232.289 429.582 236.459 Z " fill="rgb(246,128,164)"/><path d=" M 559.672 285.659 C 561.1 292.09 569.634 292.937 575.16 291.907 C 579.449 291.108 583.558 289.076 583.24 284.6 C 582.708 277.108 572.044 275.613 566.096 277.559 C 562.229 278.825 558.709 281.32 559.672 285.659 Z " fill="rgb(246,128,164)"/><path d=" M 454.406 239.648 C 460.465 244.919 468.489 241.708 472.744 235.633 C 478.052 228.055 476.565 213.45 467.472 211.758 C 456.131 209.647 450.73 216.419 449.676 227.675 C 449.374 230.91 450.942 236.634 454.406 239.648 Z " fill="rgb(153,41,83)"/><path d=" M 554.488 272.376 C 560.863 277.392 567.048 275.217 571.445 269.358 C 577.062 261.873 575.975 248.059 566.918 246.092 C 555.557 243.626 552.197 252.506 550.487 260.194 C 549.648 265.509 551.193 269.783 554.488 272.376 Z " fill="rgb(153,41,83)"/><path d=" M 449.188 177.28 C 448.965 179.278 450.443 181.307 452.499 182.303 C 455.896 183.95 459.565 181.365 458.174 177.904 C 457.179 175.427 454.326 174.006 451.983 174.486 C 450.46 174.798 449.359 175.737 449.188 177.28 Z " fill="rgb(253,230,239)"/><path d=" M 442.576 167.962 C 442.398 168.996 443.075 169.99 444.076 170.434 C 445.732 171.168 447.666 169.717 447.081 167.983 C 446.662 166.743 445.273 166.107 444.077 166.431 C 443.3 166.643 442.714 167.162 442.576 167.962 Z " fill="rgb(253,230,239)"/><path d=" M 434.407 227.587 C 434.228 228.621 434.905 229.616 435.907 230.06 C 437.563 230.793 439.496 229.342 438.911 227.608 C 438.493 226.368 437.103 225.732 435.908 226.057 C 435.13 226.268 434.545 226.788 434.407 227.587 Z " fill="rgb(246,128,164)"/><path d=" M 584.016 284.418 C 583.838 285.452 584.514 286.446 585.516 286.89 C 587.172 287.624 589.106 286.173 588.521 284.439 C 588.102 283.199 586.713 282.563 585.517 282.888 C 584.74 283.099 584.154 283.618 584.016 284.418 Z " fill="rgb(246,128,164)"/><path d=" M 585.442 275.273 C 585.367 275.801 585.736 276.323 586.263 276.568 C 587.135 276.974 588.113 276.263 587.779 275.364 C 587.54 274.72 586.808 274.369 586.193 274.515 C 585.794 274.609 585.499 274.866 585.442 275.273 Z " fill="rgb(246,128,164)"/><path d=" M 419.893 230.114 C 419.4 232.35 420.711 234.402 422.769 235.239 C 426.172 236.622 430.407 233.293 429.373 229.647 C 428.633 227.038 425.781 225.834 423.227 226.666 C 421.566 227.206 420.274 228.386 419.893 230.114 Z " fill="rgb(246,128,164)"/><path d=" M 567.674 295.435 C 567.358 296.804 568.143 298.048 569.389 298.545 C 571.45 299.367 574.05 297.306 573.445 295.087 C 573.012 293.499 571.284 292.783 569.725 293.308 C 568.711 293.649 567.917 294.378 567.674 295.435 Z " fill="rgb(246,128,164)"/><path d=" M 443.419 261.484 C 443.328 262.177 443.821 262.868 444.52 263.197 C 445.675 263.742 446.956 262.82 446.503 261.633 C 446.18 260.783 445.21 260.312 444.401 260.496 C 443.875 260.615 443.49 260.948 443.419 261.484 Z " fill="rgb(246,128,164)"/><path d=" M 555.734 252.873 C 555.239 255.265 556.687 257.491 558.922 258.423 C 562.616 259.964 567.132 256.459 565.956 252.527 C 565.115 249.713 562.017 248.374 559.275 249.225 C 557.492 249.778 556.117 251.024 555.734 252.873 Z " fill="rgb(253,230,239)"/><path d=" M 455.812 219.946 C 455.279 222.481 456.802 224.832 459.162 225.81 C 463.063 227.428 467.852 223.7 466.623 219.541 C 465.744 216.565 462.473 215.159 459.57 216.07 C 457.682 216.663 456.224 217.987 455.812 219.946 Z " fill="rgb(253,230,239)"/><path d=" M 464.737 178.454 C 464.536 180.299 466.204 181.829 467.812 183.104 C 473.221 187.392 478.078 179.757 477.418 176.484 C 476.932 174.074 470.207 174.208 467.315 175.879 C 466.176 176.537 464.891 177.029 464.737 178.454 Z " fill="rgb(253,230,239)"/><path d=" M 569.468 204.385 C 571.019 208.724 581.3 211.256 579.865 206.831 C 579.147 204.618 575.356 204.368 575.072 202.44 C 574.862 201.02 573.39 198.319 571.219 198.237 C 568.137 198.12 568.605 201.973 569.468 204.385 Z " fill="rgb(253,230,239)"/><path d=" M 430.204 171.143 Q 426.668 182.988 424.177 189.2 C 418.171 204.17 404.703 212.826 401.265 228.799 C 398.056 243.704 400.27 256.948 404.664 271.444 Q 409.945 288.863 431.549 315.054 Q 394.874 300.64 384.629 282.617 C 377.772 270.554 375.717 258.431 376.28 244.623 C 377.107 224.374 385.566 208.024 399.132 193.147 Q 408.216 183.185 430.204 171.143 Z " fill="rgb(243,145,168)"/><path d=" M 474.281 271.514 C 476.054 273.849 478.345 274.477 481.64 275.354 C 490.017 277.585 496.044 274.165 503.662 276.381 C 511.211 278.577 515.123 287.236 523.141 287.333 C 524.18 287.346 523.486 287.972 526.079 287.172 C 529.621 286.079 523.1 284.625 521.446 283.295 C 515.938 278.863 511.954 273.455 505.007 271.731 C 499.07 270.258 494.261 273.285 488.326 273.136 C 483.382 273.011 471.822 268.279 474.281 271.514 Z " fill="rgb(246,128,164)"/><path d=" M 511.793 292.569 C 512.537 291.975 510.065 292.387 508.371 292.59 C 503.698 293.149 502.24 293.7 499.273 293.076 C 495.511 292.285 491.536 288.036 490.863 287.501 C 490.189 286.965 489.132 285.701 487.604 286.126 C 485.517 286.706 488.691 287.206 489.3 287.772 C 492.343 290.599 494.328 293.989 498.844 294.859 C 502.038 295.474 505.106 295.35 508.611 294.053 C 509.752 293.631 510.704 293.439 511.793 292.569 Z " fill="rgb(153,41,83)"/><path d=" M 465.943 264.375 C 468.365 267.876 470.773 270.158 474.164 272.385 C 484.239 279.002 495.627 269.235 506.651 272.81 C 516.705 276.071 520.444 288.669 531.373 289.283 C 535.338 289.505 538.575 288.972 542.502 287.751 C 547.866 286.082 534.209 286.367 529.95 284.785 C 520.248 281.182 516.758 270.015 506.582 267.496 C 497.401 265.223 489.612 272.428 480.396 270.47 C 474.973 269.318 462.587 259.523 465.943 264.375 Z " fill="rgb(153,41,83)"/></g><g><g><path d=" M 418.453 106.666 C 419.609 105.484 420.955 104.942 421.456 105.457 C 421.958 105.972 421.426 107.35 420.27 108.533 C 419.114 109.716 417.768 110.258 417.266 109.742 C 416.765 109.227 417.296 107.849 418.453 106.666 Z " fill="rgb(153,41,83)"/><path d=" M 414.016 102.46 C 414.961 101.096 416.201 100.327 416.783 100.745 C 417.365 101.163 417.069 102.61 416.124 103.974 C 415.179 105.338 413.939 106.107 413.357 105.689 C 412.775 105.271 413.07 103.824 414.016 102.46 Z " fill="rgb(153,41,83)"/><path d=" M 368.652 120.947 C 367.194 120.258 366.261 119.156 366.571 118.488 C 366.882 117.819 368.318 117.836 369.776 118.525 C 371.235 119.213 372.167 120.315 371.857 120.984 C 371.547 121.652 370.111 121.636 368.652 120.947 Z " fill="rgb(153,41,83)"/><path d=" M 365.964 125.673 C 364.019 124.967 362.643 123.831 362.894 123.138 C 363.145 122.444 364.928 122.455 366.873 123.162 C 368.818 123.868 370.194 125.004 369.943 125.697 C 369.692 126.391 367.909 126.38 365.964 125.673 Z " fill="rgb(153,41,83)"/><path d=" M 427.694 183.652 C 437.218 166.911 417.606 157.496 419.352 151.372 C 424.95 131.73 428.145 99.897 397.921 99.728 C 383.051 99.644 372.837 109.437 370.056 122.488 C 365.829 142.333 387.07 185.659 416.676 189.759 C 421.446 190.42 425.202 188.032 427.694 183.652 Z " fill="rgb(202,73,134)" vector-effect="non-scaling-stroke" stroke-width="4" stroke="rgb(153,41,83)" stroke-linejoin="miter" stroke-linecap="square" stroke-miterlimit="3"/><path d=" M 393.39 143.753 C 401.628 145.961 414.102 146.22 417.217 142.629 C 420.223 139.164 422.067 132.808 422.165 126.945 C 422.288 119.523 420.58 112.696 415.101 107.461 C 407.781 100.467 397.581 99.689 388.351 103.374 C 377.688 107.633 371.383 118.827 371.88 129.032 C 372.131 134.176 384.364 141.334 393.39 143.753 Z " fill="rgb(244,106,166)"/><path d=" M 398.721 110.86 C 398.184 113.607 399.84 116.181 402.371 117.275 C 406.554 119.084 411.619 115.096 410.255 110.561 C 409.28 107.317 405.771 105.746 402.684 106.698 C 400.677 107.318 399.136 108.737 398.721 110.86 Z " fill="rgb(247,143,204)"/><path d=" M 407.146 119.936 C 406.813 121.507 407.723 122.954 409.143 123.549 C 411.492 124.532 414.4 122.206 413.676 119.64 C 413.158 117.803 411.189 116.947 409.432 117.523 C 408.29 117.898 407.403 118.723 407.146 119.936 Z " fill="rgb(247,143,204)"/><path d=" M 401.619 120.648 C 401.414 121.546 401.914 122.36 402.712 122.683 C 404.03 123.217 405.7 121.861 405.318 120.407 C 405.044 119.367 403.939 118.902 402.939 119.249 C 402.288 119.475 401.778 119.955 401.619 120.648 Z " fill="rgb(247,143,204)"/><path d=" M 374.893 125.296 C 374.401 127.555 375.692 129.625 377.724 130.467 C 381.082 131.857 385.272 128.487 384.258 124.807 C 383.533 122.173 380.717 120.962 378.193 121.807 C 376.552 122.356 375.273 123.55 374.893 125.296 Z " fill="rgb(247,143,204)"/></g><g><path d=" M 352.43 164.922 C 352.383 163.581 352.88 162.549 353.539 162.617 C 354.198 162.685 354.771 163.829 354.818 165.169 C 354.865 166.509 354.368 167.541 353.708 167.473 C 353.049 167.405 352.476 166.262 352.43 164.922 Z " fill="rgb(153,41,83)"/><path d=" M 346.831 164.54 C 346.53 163.193 346.81 162.072 347.456 162.038 C 348.102 162.003 348.87 163.069 349.171 164.415 C 349.472 165.762 349.191 166.883 348.546 166.917 C 347.9 166.952 347.131 165.887 346.831 164.54 Z " fill="rgb(153,41,83)"/><path d=" M 330.22 199.482 C 328.837 199.795 327.517 199.577 327.272 198.996 C 327.028 198.415 327.951 197.689 329.333 197.376 C 330.715 197.063 332.036 197.281 332.281 197.862 C 332.525 198.443 331.602 199.169 330.22 199.482 Z " fill="rgb(153,41,83)"/><path d=" M 325.456 187.787 C 323.706 187.412 322.305 186.588 322.331 185.948 C 322.356 185.308 323.797 185.093 325.547 185.468 C 327.297 185.843 328.698 186.667 328.673 187.307 C 328.648 187.947 327.206 188.162 325.456 187.787 Z " fill="rgb(153,41,83)"/><path d=" M 327.838 175.423 C 326.286 174.531 325.205 173.318 325.424 172.716 C 325.644 172.114 327.082 172.351 328.633 173.243 C 330.185 174.136 331.266 175.348 331.047 175.95 C 330.827 176.552 329.389 176.316 327.838 175.423 Z " fill="rgb(153,41,83)"/><path d=" M 356.401 218.238 C 356.009 219.985 355.171 221.377 354.532 221.346 C 353.892 221.314 353.691 219.871 354.083 218.125 C 354.476 216.378 355.313 214.986 355.953 215.017 C 356.593 215.048 356.794 216.492 356.401 218.238 Z " fill="rgb(153,41,83)"/><path d=" M 409.175 208.813 C 404.164 193.353 385.481 197.464 382.543 192.7 C 373.121 177.422 354.116 155.675 334.797 171.068 C 325.292 178.642 324.585 190.442 332.13 199.736 C 345.195 215.829 386.918 234.495 405.822 220.509 C 409.006 218.154 410.486 212.858 409.175 208.813 Z " fill="rgb(202,73,134)" vector-effect="non-scaling-stroke" stroke-width="4" stroke="rgb(153,41,83)" stroke-linejoin="miter" stroke-linecap="square" stroke-miterlimit="3"/><path d=" M 362.059 203.036 C 369.022 200.075 377.407 193.496 376.941 189.368 C 376.492 185.385 373.365 180.364 369.511 176.403 C 364.368 171.116 358.364 167.218 350.928 166.612 C 341.218 165.82 333.965 170.817 330.476 178.321 C 326.445 186.99 330.135 198.013 337.608 204.679 C 341.373 208.039 354.429 206.279 362.059 203.036 Z " fill="rgb(244,106,166)"/><path d=" M 335.37 197.39 C 336.845 199.401 339.597 200.177 341.929 199.57 C 345.782 198.567 346.365 193.451 342.503 191.286 C 339.739 189.737 336.471 190.544 335.138 192.729 C 334.272 194.149 334.231 195.836 335.37 197.39 Z " fill="rgb(247,143,204)"/><path d=" M 345.847 190.572 C 346.673 191.735 348.207 192.183 349.503 191.83 C 351.645 191.247 351.956 188.286 349.8 187.036 C 349.029 186.589 348.189 186.482 347.45 186.646 C 346.711 186.81 346.073 187.243 345.705 187.876 C 345.227 188.698 345.208 189.674 345.847 190.572 Z " fill="rgb(247,143,204)"/><path d=" M 362.089 194.661 C 362.552 195.333 363.407 195.591 364.127 195.386 C 365.318 195.048 365.483 193.334 364.28 192.612 C 363.419 192.096 362.409 192.369 362.002 193.101 C 361.738 193.577 361.731 194.142 362.089 194.661 Z " fill="rgb(247,143,204)"/><path d=" M 350.284 197.149 C 351.464 198.828 353.653 199.474 355.5 198.963 C 358.553 198.12 358.989 193.842 355.912 192.037 C 353.711 190.745 351.122 191.425 350.076 193.253 C 349.396 194.441 349.372 195.851 350.284 197.149 Z " fill="rgb(247,143,204)"/></g><g><path d=" M 335.771 237.05 C 334.998 236.063 334.724 235.075 335.16 234.843 C 335.596 234.612 336.578 235.226 337.352 236.212 C 338.125 237.199 338.399 238.188 337.963 238.419 C 337.527 238.65 336.545 238.036 335.771 237.05 Z " fill="rgb(153,41,83)"/><path d=" M 332.177 239.161 C 331.246 238.279 330.792 237.316 331.163 237.014 C 331.534 236.711 332.591 237.183 333.521 238.065 C 334.452 238.948 334.906 239.91 334.535 240.213 C 334.164 240.515 333.107 240.044 332.177 239.161 Z " fill="rgb(153,41,83)"/><path d=" M 341.572 272.526 C 340.911 273.353 339.992 273.755 339.521 273.423 C 339.05 273.091 339.204 272.15 339.865 271.323 C 340.526 270.496 341.445 270.094 341.916 270.426 C 342.387 270.758 342.233 271.699 341.572 272.526 Z " fill="rgb(153,41,83)"/><path d=" M 344.854 275.199 C 344.132 276.342 343.143 277.029 342.648 276.731 C 342.153 276.434 342.337 275.264 343.059 274.12 C 343.781 272.976 344.769 272.289 345.265 272.587 C 345.76 272.885 345.576 274.055 344.854 275.199 Z " fill="rgb(153,41,83)"/><path d=" M 394.46 245.714 C 382.836 236.246 373.835 247.338 369.411 245.018 C 355.223 237.576 331.648 229.381 328.537 249.221 C 327.007 258.981 333.434 267.37 342.867 271.898 C 360.623 280.421 396.211 276.59 398.939 255.936 C 399.36 252.749 397.501 248.191 394.46 245.714 Z " fill="rgb(202,73,134)" vector-effect="non-scaling-stroke" stroke-width="4" stroke="rgb(153,41,83)" stroke-linejoin="miter" stroke-linecap="square" stroke-miterlimit="3"/><path d=" M 362.898 261.369 C 365.473 256.163 366.906 247.637 364.364 244.755 C 361.911 241.973 357.278 239.569 352.79 238.27 C 346.798 236.536 341.05 236.209 336.243 238.957 C 329.967 242.546 328.171 249.389 330.353 256.506 C 332.951 264.98 342.403 270.767 350.552 272.529 C 354.658 273.417 360.308 266.603 362.898 261.369 Z " fill="rgb(244,106,166)"/><path d=" M 356.889 251.32 C 358.898 252.199 360.993 251.604 362.064 250.149 C 363.834 247.745 361.341 243.651 357.804 243.68 C 355.273 243.7 353.748 245.706 354.158 247.918 C 354.424 249.356 355.337 250.641 356.889 251.32 Z " fill="rgb(247,143,204)"/><path d=" M 354.326 257.231 C 355.472 257.751 356.648 257.43 357.235 256.609 C 358.204 255.254 356.746 252.896 354.748 252.881 C 353.319 252.87 352.482 254 352.741 255.266 C 352.909 256.089 353.441 256.83 354.326 257.231 Z " fill="rgb(247,143,204)"/><path d=" M 349.494 251.945 C 350.148 252.251 350.808 252.079 351.129 251.616 C 351.66 250.851 350.807 249.494 349.679 249.467 C 348.871 249.448 348.413 250.085 348.575 250.81 C 348.68 251.28 348.989 251.708 349.494 251.945 Z " fill="rgb(247,143,204)"/></g></g><path d=" M 430.245 174.122 C 425.487 168.017 415.112 166.726 411.278 174.032 C 409.821 176.809 409.715 179.719 410.62 182.721 C 413.565 192.492 430.173 194.962 432.652 184.078 C 433.479 180.444 432.518 177.039 430.245 174.122 Z " fill="rgb(202,73,134)"/><path d=" M 406.169 202.711 C 399.439 199.548 389.8 202.964 389.501 210.903 C 389.388 213.92 390.515 216.463 392.567 218.644 C 399.246 225.742 414.843 220.621 412.454 210.203 C 411.656 206.724 409.386 204.223 406.169 202.711 Z " fill="rgb(202,73,134)"/><path d=" M 386.858 245.405 C 380.733 248.482 378.404 256.23 384.684 259.764 C 387.071 261.108 389.729 261.439 392.583 261.013 C 401.872 259.625 405.97 247.258 396.258 244.441 C 393.015 243.501 389.785 243.935 386.858 245.405 Z " fill="rgb(202,73,134)"/></g><ellipse vector-effect="non-scaling-stroke" cx="397.5530303030309" cy="283.16715691941465" rx="290" ry="266.8338235860813" fill="rgb(191,225,184)" fill-opacity="0.37"/><circle vector-effect="non-scaling-stroke" cx="200" cy="188.24999999999994" r="38.75000000000003" fill="rgb(255,255,255)" fill-opacity="0.8"/><circle vector-effect="non-scaling-stroke" cx="596.125" cy="409.3749999999999" r="24.875" fill="rgb(255,255,255)" fill-opacity="0.8"/><path d=" M 254.174 91.038 C 259.531 83.763 269.975 82.343 277.481 87.87 C 284.987 93.398 286.731 103.792 281.374 111.067 C 276.016 118.343 265.573 119.763 258.067 114.235 C 250.561 108.708 248.816 98.314 254.174 91.038 Z " fill="rgb(255,255,255)" fill-opacity="0.8"/></g></svg>